<?xml version="1.0" encoding="utf-8"?>
<!-- Generator: Adobe Illustrator 21.1.0, SVG Export Plug-In . SVG Version: 6.00 Build 0)  -->
<svg version="1.1" id="Icons" xmlns="http://www.w3.org/2000/svg" xmlns:xlink="http://www.w3.org/1999/xlink" x="0px" y="0px"
	 viewBox="0 0 48 48" style="enable-background:new 0 0 48 48;" xml:space="preserve">
<style type="text/css">
	.st0{fill:#FFE500;}
	.st1{fill:#EBCB00;}
	.st2{fill:#FFF48C;}
	.st3{opacity:0.15;fill:#45413C;}
	.st4{fill:none;stroke:#45413C;stroke-linecap:round;stroke-linejoin:round;stroke-miterlimit:10;}
	.st5{fill:#FFAA54;}
	.st6{fill:#FFB0CA;stroke:#45413C;stroke-linecap:round;stroke-linejoin:round;stroke-miterlimit:10;}
	.st7{fill:#FF87AF;stroke:#45413C;stroke-linecap:round;stroke-linejoin:round;stroke-miterlimit:10;}
	.st8{fill:#00B8F0;}
	.st9{fill:#4ACFFF;}
	.st10{fill:#FFFFFF;stroke:#45413C;stroke-linecap:round;stroke-linejoin:round;stroke-miterlimit:10;}
	.st11{fill:#45413C;stroke:#45413C;stroke-linecap:round;stroke-linejoin:round;stroke-miterlimit:10;}
	.st12{fill:#009FD9;}
	.st13{fill:none;stroke:#45413C;stroke-linecap:round;stroke-miterlimit:10;}
	.st14{fill:#FFFFFF;stroke:#45413C;stroke-linejoin:round;stroke-miterlimit:10;}
	.st15{fill:#FF6242;}
	.st16{fill:#FF866E;}
	.st17{fill:#656769;}
	.st18{fill:#87898C;}
	.st19{fill:#4AEFF7;stroke:#45413C;stroke-linecap:round;stroke-linejoin:round;stroke-miterlimit:10;}
	.st20{fill:none;stroke:#48CF3E;stroke-linecap:round;stroke-linejoin:round;stroke-miterlimit:10;}
	.st21{fill:none;stroke:#FF4064;stroke-linecap:round;stroke-linejoin:round;stroke-miterlimit:10;}
	.st22{fill:none;stroke:#FFB700;stroke-linecap:round;stroke-linejoin:round;stroke-miterlimit:10;}
	.st23{fill:none;stroke:#00AED9;stroke-linecap:round;stroke-linejoin:round;stroke-miterlimit:10;}
	.st24{fill:#FFFACF;}
	.st25{fill:#45413C;}
	.st26{fill:#FF866E;stroke:#45413C;stroke-linecap:round;stroke-linejoin:round;stroke-miterlimit:10;}
	.st27{fill:#DABFF5;stroke:#45413C;stroke-linejoin:round;stroke-miterlimit:10;}
	.st28{fill:#EDDBFF;}
	.st29{fill:none;stroke:#45413C;stroke-linejoin:round;stroke-miterlimit:10;}
	.st30{fill:#6DD627;}
	.st31{fill:#46B000;}
	.st32{fill:#C8FFA1;}
	.st33{fill:url(#XMLID_91_);}
	.st34{fill:url(#XMLID_92_);}
	.st35{fill:#F0F0F0;stroke:#45413C;stroke-linecap:round;stroke-linejoin:round;stroke-miterlimit:10;}
	.st36{fill:#EBCB00;stroke:#45413C;stroke-linecap:round;stroke-linejoin:round;stroke-miterlimit:10;}
	.st37{fill:#BDBEC0;stroke:#45413C;stroke-linecap:round;stroke-linejoin:round;stroke-miterlimit:10;}
	.st38{fill:#F0F0F0;}
	.st39{fill:#FFFFFF;}
	.st40{fill:url(#XMLID_93_);}
	.st41{fill:url(#XMLID_94_);}
	.st42{fill:#FFE500;stroke:#45413C;stroke-linecap:round;stroke-linejoin:round;stroke-miterlimit:10;}
	.st43{fill:#E04122;}
	.st44{fill:#8CFFE4;stroke:#45413C;stroke-linecap:round;stroke-linejoin:round;stroke-miterlimit:10;}
	.st45{fill:#E5FFF9;}
	.st46{fill:#E0E0E0;}
	.st47{fill:#9CEB60;}
	.st48{fill:#6DD627;stroke:#45413C;stroke-linecap:round;stroke-linejoin:round;stroke-miterlimit:10;}
	.st49{fill:#E8F4FA;}
	.st50{fill:#F0D5A8;}
	.st51{fill:#DEBB7E;}
	.st52{fill:#B89558;}
	.st53{fill:#00B8F0;stroke:#45413C;stroke-linecap:round;stroke-linejoin:round;stroke-miterlimit:10;}
	.st54{fill:#FFFCE5;}
	.st55{fill:#FF87AF;}
	.st56{fill:#4ACFFF;stroke:#45413C;stroke-linecap:round;stroke-linejoin:round;stroke-miterlimit:10;}
	.st57{fill:#E5F8FF;}
	.st58{fill:none;stroke:#45413C;stroke-miterlimit:10;}
	.st59{fill:none;stroke:#FF6242;stroke-linecap:round;stroke-linejoin:round;stroke-miterlimit:10;}
	.st60{fill:#BDBEC0;}
	.st61{fill:#B89558;stroke:#45413C;stroke-linecap:round;stroke-linejoin:round;stroke-miterlimit:10;}
	.st62{fill:#FF6242;stroke:#45413C;stroke-linecap:round;stroke-linejoin:round;stroke-miterlimit:10;}
	.st63{fill:#525252;stroke:#45413C;stroke-linecap:round;stroke-linejoin:round;stroke-miterlimit:10;}
	.st64{fill:#525252;}
	.st65{fill:#00DBA8;}
	.st66{fill:#00AD85;}
	.st67{fill:#BF8DF2;}
	.st68{fill:#DABFF5;}
	.st69{fill:#00F5BC;}
	.st70{fill:#DAEDF7;}
	.st71{fill:#C0DCEB;}
	.st72{fill:#ADC4D9;}
	.st73{fill:#ADC4D9;stroke:#45413C;stroke-linecap:round;stroke-linejoin:round;stroke-miterlimit:10;}
	.st74{fill:#00DFEB;stroke:#45413C;stroke-linecap:round;stroke-linejoin:round;stroke-miterlimit:10;}
	.st75{fill:#627B8C;stroke:#45413C;stroke-linecap:round;stroke-linejoin:round;stroke-miterlimit:10;}
	.st76{fill:#8CA4B8;}
	.st77{fill:#00DBA8;stroke:#45413C;stroke-linecap:round;stroke-linejoin:round;stroke-miterlimit:10;}
	.st78{fill:#FF8A14;}
	.st79{fill:#BF8256;}
	.st80{fill:#DEA47A;}
	.st81{fill:#915E3A;}
	.st82{fill:#FFA694;}
	.st83{fill:#E5FEFF;stroke:#45413C;stroke-linecap:round;stroke-linejoin:round;stroke-miterlimit:10;}
	.st84{fill:#803EC2;stroke:#45413C;stroke-linecap:round;stroke-linejoin:round;stroke-miterlimit:10;}
	.st85{fill:#9F5AE5;}
	.st86{fill:#803EC2;}
</style>
<g id="XMLID_728_">
	<circle id="XMLID_1879_" class="st15" cx="24" cy="21.5" r="20"/>
	<path id="XMLID_1876_" class="st43" d="M24,1.5c-11,0-20,9-20,20s9,20,20,20s20-9,20-20S35,1.5,24,1.5z M24,38.5
		c-10.1,0-18.2-8.2-18.2-18.2C5.8,10.2,13.9,2,24,2s18.2,8.2,18.2,18.2C42.2,30.3,34.1,38.5,24,38.5z"/>
	<ellipse id="XMLID_1875_" class="st16" cx="24" cy="5.5" rx="6" ry="1.5"/>
	<ellipse id="XMLID_1874_" class="st3" cx="24" cy="45.3" rx="15" ry="1.5"/>
	<circle id="XMLID_1873_" class="st4" cx="24" cy="21.5" r="20"/>
	<ellipse id="XMLID_1872_" class="st43" cx="37" cy="24.5" rx="2.5" ry="1.5"/>
	<ellipse id="XMLID_1871_" class="st43" cx="11" cy="24.5" rx="2.5" ry="1.5"/>
	<circle id="XMLID_1870_" class="st11" cx="13.5" cy="20.5" r="1"/>
	<circle id="XMLID_1869_" class="st11" cx="34.5" cy="20.5" r="1"/>
	<path id="XMLID_1868_" class="st4" d="M31.5,18.5c0,0,2.3-4,6-2"/>
	<path id="XMLID_1867_" class="st4" d="M16.5,18.5c0,0-2.3-4-6-2"/>
	<path id="XMLID_1866_" class="st10" d="M39.5,38.5h-31c-0.6,0-1-0.4-1-1V28c0-0.6,0.4-1,1-1h31c0.6,0,1,0.4,1,1v9.5
		C40.5,38.1,40.1,38.5,39.5,38.5z"/>
	<g id="XMLID_1824_">
		<path id="XMLID_1862_" class="st15" d="M13.8,32.2l1,1.1c0.2-0.2,0.5-0.6,0.7-0.8c0.2-0.1,0.5-0.2,0.7,0.1c0.2,0.2,0.2,0.5,0,0.8
			c-0.2,0.3-0.4,0.5-0.6,0.8l0.7,0.7c0.3,0.4,0.3,0.7,0,0.9c-0.3,0.3-0.7,0.3-1,0l-0.7-0.7c-0.6,0.5-1.3,0.9-2.1,0.9
			c-1.3,0-2.3-0.7-2.3-2.1c0-0.9,0.6-1.6,1.4-2.1c-0.4-0.4-0.6-0.8-0.6-1.3c0-1,1-1.6,2-1.6c0.9,0,2,0.5,2,1.5
			C15,31.3,14.5,31.9,13.8,32.2z M13.8,34.3l-1.4-1.5c-0.7,0.4-0.8,0.8-0.8,1.2c0,0.6,0.4,0.9,1,0.9C13,34.9,13.4,34.7,13.8,34.3z
			 M13.7,30.7c0-0.4-0.3-0.6-0.6-0.6c-0.3,0-0.6,0.2-0.6,0.5c0,0.3,0.3,0.6,0.5,0.8C13.5,31.2,13.7,31,13.7,30.7z"/>
		<path id="XMLID_1858_" class="st15" d="M19,34.7v-1.6c-0.2-0.1-0.4-0.1-0.7-0.2c-0.9-0.3-1.4-0.8-1.4-1.7c0-1.2,0.9-2,2.1-2.2
			c0-0.2,0-0.1,0-0.3c0-0.3,0-0.4,0.3-0.4c0.2,0,0.3,0,0.3,0.4v0.3c0.4,0,0.8,0.1,1.1,0.3c0.4,0.2,0.5,0.4,0.5,0.7
			c0,0.4-0.2,0.7-0.6,0.7c-0.3,0-0.7-0.2-1-0.3v1.3c1.3,0.4,2.2,0.8,2.2,2.1c0,0.9-0.5,1.6-1.3,2c-0.3,0.1-0.5,0.2-0.8,0.2
			c0,0.1,0,0.2,0,0.3c0,0.2,0,0.4-0.3,0.4c-0.2,0-0.3,0-0.3-0.4v-0.3c-0.6,0-1.3-0.1-1.8-0.4c-0.6-0.4-0.3-1.3,0.3-1.3
			C17.9,34.4,18.6,34.7,19,34.7z M19,31.6v-1.1c-0.3,0.1-0.5,0.3-0.5,0.6C18.5,31.3,18.8,31.5,19,31.6z M19.5,33.3v1.4
			c0.4-0.1,0.6-0.4,0.6-0.8C20.2,33.6,20,33.4,19.5,33.3z"/>
		<path id="XMLID_1834_" class="st15" d="M23.5,36.1c-0.4,0-0.7-0.3-0.7-0.7c0-0.4,0.3-0.7,0.7-0.7c0.4,0,0.7,0.3,0.7,0.7
			S23.9,36.1,23.5,36.1z M22.8,33.4v-3.7c0-0.4,0.3-0.7,0.7-0.7c0.4,0,0.7,0.3,0.7,0.7v3.7c0,0.4-0.3,0.7-0.7,0.7
			C23.1,34.1,22.8,33.8,22.8,33.4z"/>
		<path id="XMLID_1831_" class="st15" d="M26.5,33.1l0.2-1.1h-0.8c-0.3,0-0.5-0.2-0.5-0.5c0-0.3,0.2-0.5,0.5-0.5h1l0.2-1.5
			c0-0.3,0.2-0.5,0.5-0.5c0.4,0,0.5,0.3,0.4,0.6l-0.2,1.4h0.9l0.2-1.5c0-0.3,0.2-0.5,0.5-0.5c0.4,0,0.5,0.3,0.4,0.6l-0.2,1.4h0.8
			c0.3,0,0.5,0.2,0.5,0.5c0,0.3-0.2,0.5-0.5,0.5h-1l-0.2,1.1h0.8c0.3,0,0.5,0.2,0.5,0.5c0,0.3-0.1,0.5-0.5,0.5h-1l-0.2,1.5
			c0,0.3-0.2,0.5-0.5,0.5c-0.4,0-0.5-0.3-0.4-0.6l0.2-1.4h-0.9l-0.2,1.5c0,0.3-0.2,0.5-0.5,0.5c-0.4,0-0.5-0.3-0.4-0.6l0.2-1.4h-0.8
			c-0.3,0-0.5-0.2-0.5-0.5s0.2-0.5,0.5-0.5H26.5z M27.6,32l-0.2,1.1h0.9l0.2-1.1H27.6z"/>
		<path id="XMLID_1825_" class="st15" d="M32.6,32.2c-0.9,0-1.5-0.7-1.5-1.5c0-0.8,0.6-1.6,1.5-1.6c0.8,0,1.5,0.7,1.5,1.6
			C34.1,31.4,33.5,32.2,32.6,32.2z M32.6,31.2c0.3,0,0.5-0.3,0.5-0.6c0-0.3-0.2-0.6-0.5-0.6c-0.3,0-0.5,0.3-0.5,0.6
			C32.1,30.9,32.3,31.2,32.6,31.2z M32.3,35.3l3.2-6c0.2-0.3,0.4-0.4,0.7-0.2c0.3,0.1,0.4,0.4,0.2,0.8l-3.2,6
			c-0.2,0.3-0.4,0.5-0.8,0.2C32.1,35.8,32.1,35.6,32.3,35.3z M36,36.1c-0.9,0-1.5-0.7-1.5-1.5c0-0.8,0.6-1.6,1.5-1.6
			c0.8,0,1.5,0.7,1.5,1.6C37.5,35.4,36.8,36.1,36,36.1z M36,35.1c0.3,0,0.5-0.3,0.5-0.6c0-0.3-0.2-0.6-0.5-0.6
			c-0.3,0-0.5,0.3-0.5,0.6C35.5,34.9,35.7,35.1,36,35.1z"/>
	</g>
</g>
</svg>
