<?xml version="1.0" encoding="utf-8"?>
<!-- Generator: Adobe Illustrator 21.1.0, SVG Export Plug-In . SVG Version: 6.00 Build 0)  -->
<svg version="1.1" id="Icons" xmlns="http://www.w3.org/2000/svg" xmlns:xlink="http://www.w3.org/1999/xlink" x="0px" y="0px"
	 viewBox="0 0 48 48" style="enable-background:new 0 0 48 48;" xml:space="preserve">
<style type="text/css">
	.st0{fill:#FFE500;}
	.st1{fill:#EBCB00;}
	.st2{fill:#FFF48C;}
	.st3{opacity:0.15;fill:#45413C;}
	.st4{fill:none;stroke:#45413C;stroke-linecap:round;stroke-linejoin:round;stroke-miterlimit:10;}
	.st5{fill:#FFAA54;}
	.st6{fill:#FFB0CA;stroke:#45413C;stroke-linecap:round;stroke-linejoin:round;stroke-miterlimit:10;}
	.st7{fill:#FF87AF;stroke:#45413C;stroke-linecap:round;stroke-linejoin:round;stroke-miterlimit:10;}
	.st8{fill:#00B8F0;}
	.st9{fill:#4ACFFF;}
	.st10{fill:#FFFFFF;stroke:#45413C;stroke-linecap:round;stroke-linejoin:round;stroke-miterlimit:10;}
	.st11{fill:#45413C;stroke:#45413C;stroke-linecap:round;stroke-linejoin:round;stroke-miterlimit:10;}
	.st12{fill:#009FD9;}
	.st13{fill:none;stroke:#45413C;stroke-linecap:round;stroke-miterlimit:10;}
	.st14{fill:#FFFFFF;stroke:#45413C;stroke-linejoin:round;stroke-miterlimit:10;}
	.st15{fill:#FF6242;}
	.st16{fill:#FF866E;}
	.st17{fill:#656769;}
	.st18{fill:#87898C;}
	.st19{fill:#4AEFF7;stroke:#45413C;stroke-linecap:round;stroke-linejoin:round;stroke-miterlimit:10;}
	.st20{fill:none;stroke:#48CF3E;stroke-linecap:round;stroke-linejoin:round;stroke-miterlimit:10;}
	.st21{fill:none;stroke:#FF4064;stroke-linecap:round;stroke-linejoin:round;stroke-miterlimit:10;}
	.st22{fill:none;stroke:#FFB700;stroke-linecap:round;stroke-linejoin:round;stroke-miterlimit:10;}
	.st23{fill:none;stroke:#00AED9;stroke-linecap:round;stroke-linejoin:round;stroke-miterlimit:10;}
	.st24{fill:#FFFACF;}
	.st25{fill:#45413C;}
	.st26{fill:#FF866E;stroke:#45413C;stroke-linecap:round;stroke-linejoin:round;stroke-miterlimit:10;}
	.st27{fill:#DABFF5;stroke:#45413C;stroke-linejoin:round;stroke-miterlimit:10;}
	.st28{fill:#EDDBFF;}
	.st29{fill:none;stroke:#45413C;stroke-linejoin:round;stroke-miterlimit:10;}
	.st30{fill:#6DD627;}
	.st31{fill:#46B000;}
	.st32{fill:#C8FFA1;}
	.st33{fill:url(#XMLID_91_);}
	.st34{fill:url(#XMLID_92_);}
	.st35{fill:#F0F0F0;stroke:#45413C;stroke-linecap:round;stroke-linejoin:round;stroke-miterlimit:10;}
	.st36{fill:#EBCB00;stroke:#45413C;stroke-linecap:round;stroke-linejoin:round;stroke-miterlimit:10;}
	.st37{fill:#BDBEC0;stroke:#45413C;stroke-linecap:round;stroke-linejoin:round;stroke-miterlimit:10;}
	.st38{fill:#F0F0F0;}
	.st39{fill:#FFFFFF;}
	.st40{fill:url(#XMLID_93_);}
	.st41{fill:url(#XMLID_94_);}
	.st42{fill:#FFE500;stroke:#45413C;stroke-linecap:round;stroke-linejoin:round;stroke-miterlimit:10;}
	.st43{fill:#E04122;}
	.st44{fill:#8CFFE4;stroke:#45413C;stroke-linecap:round;stroke-linejoin:round;stroke-miterlimit:10;}
	.st45{fill:#E5FFF9;}
	.st46{fill:#E0E0E0;}
	.st47{fill:#9CEB60;}
	.st48{fill:#6DD627;stroke:#45413C;stroke-linecap:round;stroke-linejoin:round;stroke-miterlimit:10;}
	.st49{fill:#E8F4FA;}
	.st50{fill:#F0D5A8;}
	.st51{fill:#DEBB7E;}
	.st52{fill:#B89558;}
	.st53{fill:#00B8F0;stroke:#45413C;stroke-linecap:round;stroke-linejoin:round;stroke-miterlimit:10;}
	.st54{fill:#FFFCE5;}
	.st55{fill:#FF87AF;}
	.st56{fill:#4ACFFF;stroke:#45413C;stroke-linecap:round;stroke-linejoin:round;stroke-miterlimit:10;}
	.st57{fill:#E5F8FF;}
	.st58{fill:none;stroke:#45413C;stroke-miterlimit:10;}
	.st59{fill:none;stroke:#FF6242;stroke-linecap:round;stroke-linejoin:round;stroke-miterlimit:10;}
	.st60{fill:#BDBEC0;}
	.st61{fill:#B89558;stroke:#45413C;stroke-linecap:round;stroke-linejoin:round;stroke-miterlimit:10;}
	.st62{fill:#FF6242;stroke:#45413C;stroke-linecap:round;stroke-linejoin:round;stroke-miterlimit:10;}
	.st63{fill:#525252;stroke:#45413C;stroke-linecap:round;stroke-linejoin:round;stroke-miterlimit:10;}
	.st64{fill:#525252;}
	.st65{fill:#00DBA8;}
	.st66{fill:#00AD85;}
	.st67{fill:#BF8DF2;}
	.st68{fill:#DABFF5;}
	.st69{fill:#00F5BC;}
	.st70{fill:#DAEDF7;}
	.st71{fill:#C0DCEB;}
	.st72{fill:#ADC4D9;}
	.st73{fill:#ADC4D9;stroke:#45413C;stroke-linecap:round;stroke-linejoin:round;stroke-miterlimit:10;}
	.st74{fill:#00DFEB;stroke:#45413C;stroke-linecap:round;stroke-linejoin:round;stroke-miterlimit:10;}
	.st75{fill:#627B8C;stroke:#45413C;stroke-linecap:round;stroke-linejoin:round;stroke-miterlimit:10;}
	.st76{fill:#8CA4B8;}
	.st77{fill:#00DBA8;stroke:#45413C;stroke-linecap:round;stroke-linejoin:round;stroke-miterlimit:10;}
	.st78{fill:#FF8A14;}
	.st79{fill:#BF8256;}
	.st80{fill:#DEA47A;}
	.st81{fill:#915E3A;}
	.st82{fill:#FFA694;}
	.st83{fill:#E5FEFF;stroke:#45413C;stroke-linecap:round;stroke-linejoin:round;stroke-miterlimit:10;}
	.st84{fill:#803EC2;stroke:#45413C;stroke-linecap:round;stroke-linejoin:round;stroke-miterlimit:10;}
	.st85{fill:#9F5AE5;}
	.st86{fill:#803EC2;}
</style>
<g id="XMLID_537_">
	<ellipse id="XMLID_585_" class="st3" cx="24" cy="44.5" rx="11" ry="1.5"/>
	<path class="st49" d="M24,2.5c-9.8,0-17.7,7.9-17.7,17.7c0,12.5,5.7,10.2,5.7,17.6c0,1.4,1.7,2.7,3.1,2.7c2.8,0,3.3-1.8,3.4-3.4
		c0.1-0.6,0.6-1,1.1-1c0.6,0,1.2,0.5,1.2,1.2c0,2.1,1.5,3.3,3.1,3.3s3.1-1.2,3.1-3.3c0-0.6,0.5-1.2,1.2-1.2c0.6,0,1.1,0.4,1.1,1
		c0.2,1.6,0.7,3.4,3.4,3.4c1.4,0,3.1-1.2,3.1-2.7c0-7.5,5.7-5.2,5.7-17.6C41.7,10.4,33.8,2.5,24,2.5z"/>
	<path class="st4" d="M24,2.5c-9.8,0-17.7,7.9-17.7,17.7c0,12.5,5.7,10.2,5.7,17.6c0,1.4,1.7,2.7,3.1,2.7c2.8,0,3.3-1.8,3.4-3.4
		c0.1-0.6,0.6-1,1.1-1c0.6,0,1.2,0.5,1.2,1.2c0,2.1,1.5,3.3,3.1,3.3s3.1-1.2,3.1-3.3c0-0.6,0.5-1.2,1.2-1.2c0.6,0,1.1,0.4,1.1,1
		c0.2,1.6,0.7,3.4,3.4,3.4c1.4,0,3.1-1.2,3.1-2.7c0-7.5,5.7-5.2,5.7-17.6C41.7,10.4,33.8,2.5,24,2.5z"/>
	<path id="XMLID_569_" class="st63" d="M24.8,29.1c-0.2-0.3-0.5-0.5-0.8-0.5s-0.6,0.2-0.8,0.5l-1.2,2.1c-0.1,0.3-0.1,0.6,0,0.9
		c0.2,0.3,0.4,0.4,0.8,0.4h2.3c0.3,0,0.6-0.2,0.8-0.4c0.2-0.3,0.2-0.6,0-0.9L24.8,29.1z"/>
	<g id="XMLID_565_">
		<circle id="XMLID_568_" class="st18" cx="16.3" cy="24.3" r="4.2"/>
		<path id="XMLID_567_" class="st17" d="M16.3,21.9c2,0,3.7,1.4,4.1,3.3c0.1-0.3,0.1-0.6,0.1-0.9c0-2.3-1.9-4.2-4.2-4.2
			s-4.2,1.9-4.2,4.2c0,0.3,0,0.6,0.1,0.9C12.6,23.3,14.3,21.9,16.3,21.9z"/>
		<circle id="XMLID_566_" class="st4" cx="16.3" cy="24.3" r="4.2"/>
	</g>
	<g id="XMLID_561_">
		<circle id="XMLID_564_" class="st18" cx="31.7" cy="24.3" r="4.2"/>
		<path id="XMLID_563_" class="st17" d="M31.7,21.9c2,0,3.7,1.4,4.1,3.3c0.1-0.3,0.1-0.6,0.1-0.9c0-2.3-1.9-4.2-4.2-4.2
			s-4.2,1.9-4.2,4.2c0,0.3,0,0.6,0.1,0.9C28,23.3,29.7,21.9,31.7,21.9z"/>
		<circle id="XMLID_562_" class="st4" cx="31.7" cy="24.3" r="4.2"/>
	</g>
	<ellipse id="XMLID_560_" class="st39" cx="24" cy="6" rx="5.3" ry="1.3"/>
</g>
</svg>
