<?xml version="1.0" encoding="utf-8"?>
<!-- Generator: Adobe Illustrator 21.1.0, SVG Export Plug-In . SVG Version: 6.00 Build 0)  -->
<svg version="1.1" id="Icons" xmlns="http://www.w3.org/2000/svg" xmlns:xlink="http://www.w3.org/1999/xlink" x="0px" y="0px"
	 viewBox="0 0 48 48" style="enable-background:new 0 0 48 48;" xml:space="preserve">
<style type="text/css">
	.st0{fill:#FFE500;}
	.st1{fill:#EBCB00;}
	.st2{fill:#FFF48C;}
	.st3{opacity:0.15;fill:#45413C;}
	.st4{fill:none;stroke:#45413C;stroke-linecap:round;stroke-linejoin:round;stroke-miterlimit:10;}
	.st5{fill:#FFAA54;}
	.st6{fill:#FFB0CA;stroke:#45413C;stroke-linecap:round;stroke-linejoin:round;stroke-miterlimit:10;}
	.st7{fill:#FF87AF;stroke:#45413C;stroke-linecap:round;stroke-linejoin:round;stroke-miterlimit:10;}
	.st8{fill:#00B8F0;}
	.st9{fill:#4ACFFF;}
	.st10{fill:#FFFFFF;stroke:#45413C;stroke-linecap:round;stroke-linejoin:round;stroke-miterlimit:10;}
	.st11{fill:#45413C;stroke:#45413C;stroke-linecap:round;stroke-linejoin:round;stroke-miterlimit:10;}
	.st12{fill:#009FD9;}
	.st13{fill:none;stroke:#45413C;stroke-linecap:round;stroke-miterlimit:10;}
	.st14{fill:#FFFFFF;stroke:#45413C;stroke-linejoin:round;stroke-miterlimit:10;}
	.st15{fill:#FF6242;}
	.st16{fill:#FF866E;}
	.st17{fill:#656769;}
	.st18{fill:#87898C;}
	.st19{fill:#4AEFF7;stroke:#45413C;stroke-linecap:round;stroke-linejoin:round;stroke-miterlimit:10;}
	.st20{fill:none;stroke:#48CF3E;stroke-linecap:round;stroke-linejoin:round;stroke-miterlimit:10;}
	.st21{fill:none;stroke:#FF4064;stroke-linecap:round;stroke-linejoin:round;stroke-miterlimit:10;}
	.st22{fill:none;stroke:#FFB700;stroke-linecap:round;stroke-linejoin:round;stroke-miterlimit:10;}
	.st23{fill:none;stroke:#00AED9;stroke-linecap:round;stroke-linejoin:round;stroke-miterlimit:10;}
	.st24{fill:#FFFACF;}
	.st25{fill:#45413C;}
	.st26{fill:#FF866E;stroke:#45413C;stroke-linecap:round;stroke-linejoin:round;stroke-miterlimit:10;}
	.st27{fill:#DABFF5;stroke:#45413C;stroke-linejoin:round;stroke-miterlimit:10;}
	.st28{fill:#EDDBFF;}
	.st29{fill:none;stroke:#45413C;stroke-linejoin:round;stroke-miterlimit:10;}
	.st30{fill:#6DD627;}
	.st31{fill:#46B000;}
	.st32{fill:#C8FFA1;}
	.st33{fill:url(#XMLID_91_);}
	.st34{fill:url(#XMLID_92_);}
	.st35{fill:#F0F0F0;stroke:#45413C;stroke-linecap:round;stroke-linejoin:round;stroke-miterlimit:10;}
	.st36{fill:#EBCB00;stroke:#45413C;stroke-linecap:round;stroke-linejoin:round;stroke-miterlimit:10;}
	.st37{fill:#BDBEC0;stroke:#45413C;stroke-linecap:round;stroke-linejoin:round;stroke-miterlimit:10;}
	.st38{fill:#F0F0F0;}
	.st39{fill:#FFFFFF;}
	.st40{fill:url(#XMLID_93_);}
	.st41{fill:url(#XMLID_94_);}
	.st42{fill:#FFE500;stroke:#45413C;stroke-linecap:round;stroke-linejoin:round;stroke-miterlimit:10;}
	.st43{fill:#E04122;}
	.st44{fill:#8CFFE4;stroke:#45413C;stroke-linecap:round;stroke-linejoin:round;stroke-miterlimit:10;}
	.st45{fill:#E5FFF9;}
	.st46{fill:#E0E0E0;}
	.st47{fill:#9CEB60;}
	.st48{fill:#6DD627;stroke:#45413C;stroke-linecap:round;stroke-linejoin:round;stroke-miterlimit:10;}
	.st49{fill:#E8F4FA;}
	.st50{fill:#F0D5A8;}
	.st51{fill:#DEBB7E;}
	.st52{fill:#B89558;}
	.st53{fill:#00B8F0;stroke:#45413C;stroke-linecap:round;stroke-linejoin:round;stroke-miterlimit:10;}
	.st54{fill:#FFFCE5;}
	.st55{fill:#FF87AF;}
	.st56{fill:#4ACFFF;stroke:#45413C;stroke-linecap:round;stroke-linejoin:round;stroke-miterlimit:10;}
	.st57{fill:#E5F8FF;}
	.st58{fill:none;stroke:#45413C;stroke-miterlimit:10;}
	.st59{fill:none;stroke:#FF6242;stroke-linecap:round;stroke-linejoin:round;stroke-miterlimit:10;}
	.st60{fill:#BDBEC0;}
	.st61{fill:#B89558;stroke:#45413C;stroke-linecap:round;stroke-linejoin:round;stroke-miterlimit:10;}
	.st62{fill:#FF6242;stroke:#45413C;stroke-linecap:round;stroke-linejoin:round;stroke-miterlimit:10;}
	.st63{fill:#525252;stroke:#45413C;stroke-linecap:round;stroke-linejoin:round;stroke-miterlimit:10;}
	.st64{fill:#525252;}
	.st65{fill:#00DBA8;}
	.st66{fill:#00AD85;}
	.st67{fill:#BF8DF2;}
	.st68{fill:#DABFF5;}
	.st69{fill:#00F5BC;}
	.st70{fill:#DAEDF7;}
	.st71{fill:#C0DCEB;}
	.st72{fill:#ADC4D9;}
	.st73{fill:#ADC4D9;stroke:#45413C;stroke-linecap:round;stroke-linejoin:round;stroke-miterlimit:10;}
	.st74{fill:#00DFEB;stroke:#45413C;stroke-linecap:round;stroke-linejoin:round;stroke-miterlimit:10;}
	.st75{fill:#627B8C;stroke:#45413C;stroke-linecap:round;stroke-linejoin:round;stroke-miterlimit:10;}
	.st76{fill:#8CA4B8;}
	.st77{fill:#00DBA8;stroke:#45413C;stroke-linecap:round;stroke-linejoin:round;stroke-miterlimit:10;}
	.st78{fill:#FF8A14;}
	.st79{fill:#BF8256;}
	.st80{fill:#DEA47A;}
	.st81{fill:#915E3A;}
	.st82{fill:#FFA694;}
	.st83{fill:#E5FEFF;stroke:#45413C;stroke-linecap:round;stroke-linejoin:round;stroke-miterlimit:10;}
	.st84{fill:#803EC2;stroke:#45413C;stroke-linecap:round;stroke-linejoin:round;stroke-miterlimit:10;}
	.st85{fill:#9F5AE5;}
	.st86{fill:#803EC2;}
</style>
<g id="XMLID_7_">
	<circle id="XMLID_164_" class="st0" cx="19.4" cy="20.4" r="18.9"/>
	<path id="XMLID_161_" class="st1" d="M19.4,1.5C9,1.5,0.5,10,0.5,20.4S9,39.3,19.4,39.3s18.9-8.5,18.9-18.9S29.8,1.5,19.4,1.5z
		 M19.4,36.4c-9.5,0-17.2-7.7-17.2-17.2C2.2,9.7,9.9,2,19.4,2s17.2,7.7,17.2,17.2C36.6,28.7,28.9,36.4,19.4,36.4z"/>
	<ellipse id="XMLID_160_" class="st2" cx="19.4" cy="5.3" rx="5.7" ry="1.4"/>
	<ellipse id="XMLID_159_" class="st3" cx="19.4" cy="44.6" rx="15.1" ry="1.4"/>
	<circle id="XMLID_158_" class="st4" cx="19.4" cy="20.4" r="18.9"/>
	<path id="XMLID_157_" class="st13" d="M24.1,27.9c-1.3,0.9-3,1.4-4.7,1.4c-1.7,0-3.4-0.5-4.7-1.4"/>
	<ellipse id="XMLID_156_" class="st5" cx="30.7" cy="25.1" rx="2.4" ry="1.4"/>
	<ellipse id="XMLID_155_" class="st5" cx="8.1" cy="25.1" rx="2.4" ry="1.4"/>
	<polyline id="XMLID_154_" class="st4" points="29.8,19 27.9,21.3 32.2,20.4 	"/>
	<circle id="XMLID_153_" class="st11" cx="8.6" cy="20.4" r="0.9"/>
	<g id="XMLID_149_">
		<path id="XMLID_152_" class="st14" d="M47.2,20.8c0,0.2-0.1,0.3-0.3,0.4c-0.2,0.1-0.3,0.1-0.5,0l-4.9-1.9
			c-0.2-0.1-0.4-0.3-0.4-0.6c0-0.3,0.2-0.5,0.5-0.5l5.1-0.6c0.2,0,0.3,0,0.5,0.2c0.1,0.1,0.2,0.3,0.2,0.5L47.2,20.8z"/>
		<path id="XMLID_151_" class="st14" d="M46.6,10.5c-0.1-0.2-0.2-0.3-0.4-0.4c-0.2-0.1-0.4,0-0.5,0.1l-4.4,2.9
			c-0.2,0.1-0.3,0.4-0.2,0.7c0.1,0.2,0.3,0.4,0.6,0.4l5.2-0.5c0.2,0,0.3-0.1,0.4-0.3c0.1-0.1,0.1-0.3,0.1-0.5L46.6,10.5z"/>
		<path id="XMLID_150_" class="st14" d="M40.8,4c-0.1-0.1-0.3-0.1-0.5-0.1c-0.2,0.1-0.3,0.2-0.4,0.4l-1.7,5c-0.1,0.2,0,0.5,0.2,0.7
			c0.2,0.1,0.5,0.1,0.7-0.1l3.8-3.5c0.1-0.1,0.2-0.3,0.2-0.5S43,5.5,42.9,5.4L40.8,4z"/>
	</g>
</g>
</svg>
