<?xml version="1.0" encoding="utf-8"?>
<!-- Generator: Adobe Illustrator 21.1.0, SVG Export Plug-In . SVG Version: 6.00 Build 0)  -->
<svg version="1.1" id="Icons" xmlns="http://www.w3.org/2000/svg" xmlns:xlink="http://www.w3.org/1999/xlink" x="0px" y="0px"
	 viewBox="0 0 48 48" style="enable-background:new 0 0 48 48;" xml:space="preserve">
<style type="text/css">
	.st0{fill:#FFE500;}
	.st1{fill:#EBCB00;}
	.st2{fill:#FFF48C;}
	.st3{opacity:0.15;fill:#45413C;}
	.st4{fill:none;stroke:#45413C;stroke-linecap:round;stroke-linejoin:round;stroke-miterlimit:10;}
	.st5{fill:#FFAA54;}
	.st6{fill:#FFB0CA;stroke:#45413C;stroke-linecap:round;stroke-linejoin:round;stroke-miterlimit:10;}
	.st7{fill:#FF87AF;stroke:#45413C;stroke-linecap:round;stroke-linejoin:round;stroke-miterlimit:10;}
	.st8{fill:#00B8F0;}
	.st9{fill:#4ACFFF;}
	.st10{fill:#FFFFFF;stroke:#45413C;stroke-linecap:round;stroke-linejoin:round;stroke-miterlimit:10;}
	.st11{fill:#45413C;stroke:#45413C;stroke-linecap:round;stroke-linejoin:round;stroke-miterlimit:10;}
	.st12{fill:#009FD9;}
	.st13{fill:none;stroke:#45413C;stroke-linecap:round;stroke-miterlimit:10;}
	.st14{fill:#FFFFFF;stroke:#45413C;stroke-linejoin:round;stroke-miterlimit:10;}
	.st15{fill:#FF6242;}
	.st16{fill:#FF866E;}
	.st17{fill:#656769;}
	.st18{fill:#87898C;}
	.st19{fill:#4AEFF7;stroke:#45413C;stroke-linecap:round;stroke-linejoin:round;stroke-miterlimit:10;}
	.st20{fill:none;stroke:#48CF3E;stroke-linecap:round;stroke-linejoin:round;stroke-miterlimit:10;}
	.st21{fill:none;stroke:#FF4064;stroke-linecap:round;stroke-linejoin:round;stroke-miterlimit:10;}
	.st22{fill:none;stroke:#FFB700;stroke-linecap:round;stroke-linejoin:round;stroke-miterlimit:10;}
	.st23{fill:none;stroke:#00AED9;stroke-linecap:round;stroke-linejoin:round;stroke-miterlimit:10;}
	.st24{fill:#FFFACF;}
	.st25{fill:#45413C;}
	.st26{fill:#FF866E;stroke:#45413C;stroke-linecap:round;stroke-linejoin:round;stroke-miterlimit:10;}
	.st27{fill:#DABFF5;stroke:#45413C;stroke-linejoin:round;stroke-miterlimit:10;}
	.st28{fill:#EDDBFF;}
	.st29{fill:none;stroke:#45413C;stroke-linejoin:round;stroke-miterlimit:10;}
	.st30{fill:#6DD627;}
	.st31{fill:#46B000;}
	.st32{fill:#C8FFA1;}
	.st33{fill:url(#XMLID_91_);}
	.st34{fill:url(#XMLID_92_);}
	.st35{fill:#F0F0F0;stroke:#45413C;stroke-linecap:round;stroke-linejoin:round;stroke-miterlimit:10;}
	.st36{fill:#EBCB00;stroke:#45413C;stroke-linecap:round;stroke-linejoin:round;stroke-miterlimit:10;}
	.st37{fill:#BDBEC0;stroke:#45413C;stroke-linecap:round;stroke-linejoin:round;stroke-miterlimit:10;}
	.st38{fill:#F0F0F0;}
	.st39{fill:#FFFFFF;}
	.st40{fill:url(#XMLID_93_);}
	.st41{fill:url(#XMLID_94_);}
	.st42{fill:#FFE500;stroke:#45413C;stroke-linecap:round;stroke-linejoin:round;stroke-miterlimit:10;}
	.st43{fill:#E04122;}
	.st44{fill:#8CFFE4;stroke:#45413C;stroke-linecap:round;stroke-linejoin:round;stroke-miterlimit:10;}
	.st45{fill:#E5FFF9;}
	.st46{fill:#E0E0E0;}
	.st47{fill:#9CEB60;}
	.st48{fill:#6DD627;stroke:#45413C;stroke-linecap:round;stroke-linejoin:round;stroke-miterlimit:10;}
	.st49{fill:#E8F4FA;}
	.st50{fill:#F0D5A8;}
	.st51{fill:#DEBB7E;}
	.st52{fill:#B89558;}
	.st53{fill:#00B8F0;stroke:#45413C;stroke-linecap:round;stroke-linejoin:round;stroke-miterlimit:10;}
	.st54{fill:#FFFCE5;}
	.st55{fill:#FF87AF;}
	.st56{fill:#4ACFFF;stroke:#45413C;stroke-linecap:round;stroke-linejoin:round;stroke-miterlimit:10;}
	.st57{fill:#E5F8FF;}
	.st58{fill:none;stroke:#45413C;stroke-miterlimit:10;}
	.st59{fill:none;stroke:#FF6242;stroke-linecap:round;stroke-linejoin:round;stroke-miterlimit:10;}
	.st60{fill:#BDBEC0;}
	.st61{fill:#B89558;stroke:#45413C;stroke-linecap:round;stroke-linejoin:round;stroke-miterlimit:10;}
	.st62{fill:#FF6242;stroke:#45413C;stroke-linecap:round;stroke-linejoin:round;stroke-miterlimit:10;}
	.st63{fill:#525252;stroke:#45413C;stroke-linecap:round;stroke-linejoin:round;stroke-miterlimit:10;}
	.st64{fill:#525252;}
	.st65{fill:#00DBA8;}
	.st66{fill:#00AD85;}
	.st67{fill:#BF8DF2;}
	.st68{fill:#DABFF5;}
	.st69{fill:#00F5BC;}
	.st70{fill:#DAEDF7;}
	.st71{fill:#C0DCEB;}
	.st72{fill:#ADC4D9;}
	.st73{fill:#ADC4D9;stroke:#45413C;stroke-linecap:round;stroke-linejoin:round;stroke-miterlimit:10;}
	.st74{fill:#00DFEB;stroke:#45413C;stroke-linecap:round;stroke-linejoin:round;stroke-miterlimit:10;}
	.st75{fill:#627B8C;stroke:#45413C;stroke-linecap:round;stroke-linejoin:round;stroke-miterlimit:10;}
	.st76{fill:#8CA4B8;}
	.st77{fill:#00DBA8;stroke:#45413C;stroke-linecap:round;stroke-linejoin:round;stroke-miterlimit:10;}
	.st78{fill:#FF8A14;}
	.st79{fill:#BF8256;}
	.st80{fill:#DEA47A;}
	.st81{fill:#915E3A;}
	.st82{fill:#FFA694;}
	.st83{fill:#E5FEFF;stroke:#45413C;stroke-linecap:round;stroke-linejoin:round;stroke-miterlimit:10;}
	.st84{fill:#803EC2;stroke:#45413C;stroke-linecap:round;stroke-linejoin:round;stroke-miterlimit:10;}
	.st85{fill:#9F5AE5;}
	.st86{fill:#803EC2;}
</style>
<g id="XMLID_641_">
	<circle id="XMLID_7363_" class="st0" cx="26.5" cy="20.7" r="18.7"/>
	<path id="XMLID_7360_" class="st1" d="M26.5,2C16.2,2,7.8,10.4,7.8,20.7s8.4,18.7,18.7,18.7S45.2,31,45.2,20.7S36.8,2,26.5,2z
		 M26.5,36.5c-9.4,0-17-7.6-17-17c0-9.4,7.6-17,17-17s17,7.6,17,17C43.5,28.9,35.9,36.5,26.5,36.5z"/>
	<ellipse id="XMLID_7359_" class="st2" cx="26.5" cy="5.7" rx="5.6" ry="1.4"/>
	<path id="XMLID_7358_" class="st10" d="M7.9,39.4c0.2-0.8,0.8-1.5,1.7-1.7l3.4-0.8c0.1,0,0.2-0.1,0.2-0.3c0-0.1-0.1-0.2-0.2-0.3
		l-3.4-0.8c-0.8-0.2-1.5-0.8-1.7-1.7l-0.8-3.4c0-0.1-0.1-0.2-0.3-0.2s-0.2,0.1-0.3,0.2L5.8,34c-0.2,0.8-0.8,1.5-1.7,1.7l-3.4,0.8
		c-0.1,0-0.2,0.1-0.2,0.3c0,0.1,0.1,0.2,0.2,0.3l3.4,0.8c0.8,0.2,1.5,0.8,1.7,1.7l0.8,3.4c0,0.1,0.1,0.2,0.3,0.2s0.2-0.1,0.3-0.2
		L7.9,39.4z"/>
	<path id="XMLID_7357_" class="st10" d="M44.7,6l2.6-0.9c0.1,0,0.2-0.1,0.2-0.2c0-0.1-0.1-0.2-0.2-0.2L45.2,4
		c-0.3-0.1-0.5-0.3-0.6-0.6l-0.7-2.2c0-0.1-0.1-0.2-0.2-0.2c-0.1,0-0.2,0.1-0.2,0.2l-0.7,2.2C42.5,3.6,42.3,3.9,42,4l-2.2,0.7
		c-0.1,0-0.2,0.1-0.2,0.2c0,0.1,0.1,0.2,0.2,0.2L42,5.9c0.3,0.1,0.5,0.3,0.6,0.6l0.7,2.2c0,0.1,0.1,0.2,0.2,0.2
		c0.1,0,0.2-0.1,0.2-0.2L44.7,6z"/>
	<ellipse id="XMLID_7356_" class="st3" cx="26.1" cy="44.5" rx="14.9" ry="1.5"/>
	<circle id="XMLID_7355_" class="st4" cx="26.5" cy="20.7" r="18.7"/>
	<path id="XMLID_7354_" class="st13" d="M31.2,28.1c-1.3,0.9-2.9,1.4-4.7,1.4c-1.7,0-3.3-0.5-4.7-1.4"/>
	<ellipse id="XMLID_7353_" class="st5" cx="37.7" cy="25.3" rx="2.3" ry="1.4"/>
	<ellipse id="XMLID_7352_" class="st5" cx="15.3" cy="25.3" rx="2.3" ry="1.4"/>
	<g id="XMLID_7344_">
		<path id="XMLID_7351_" class="st17" d="M39.9,23.9h-5.4c-2.6,0-4.9-1.9-5.3-4.5l-0.7-4.5c-0.3-1.6,1-3.1,2.7-3.1h12
			c1.6,0,2.9,1.4,2.7,3l-0.5,4.3C44.9,21.9,42.6,23.9,39.9,23.9z"/>
		<path id="XMLID_7350_" class="st18" d="M29.1,19.4c0.3,1.5,1.1,2.8,2.3,3.6l11.2-11.2H31c-1.7,0-2.9,1.5-2.7,3.1L29.1,19.4z"/>
		<path id="XMLID_7349_" class="st4" d="M39.9,23.9h-5.4c-2.6,0-4.9-1.9-5.3-4.5l-0.7-4.5c-0.3-1.6,1-3.1,2.7-3.1h12
			c1.6,0,2.9,1.4,2.7,3l-0.5,4.3C44.9,21.9,42.6,23.9,39.9,23.9z"/>
		<path id="XMLID_7348_" class="st17" d="M13.1,23.9h5.4c2.6,0,4.9-1.9,5.3-4.5l0.7-4.5c0.3-1.6-1-3.1-2.7-3.1H10
			c-1.6,0-2.9,1.4-2.7,3l0.5,4.3C8.1,21.9,10.4,23.9,13.1,23.9z"/>
		<path id="XMLID_7347_" class="st18" d="M7.8,19.1c0.2,1.8,1.3,3.3,2.9,4.2l11.5-11.5c0,0-0.1,0-0.1,0H10c-1.6,0-2.9,1.4-2.7,3
			L7.8,19.1z"/>
		<path id="XMLID_7346_" class="st4" d="M13.1,23.9h5.4c2.6,0,4.9-1.9,5.3-4.5l0.7-4.5c0.3-1.6-1-3.1-2.7-3.1H10
			c-1.6,0-2.9,1.4-2.7,3l0.5,4.3C8.1,21.9,10.4,23.9,13.1,23.9z"/>
		<path id="XMLID_7345_" class="st4" d="M29.3,12.5c-0.8-0.4-1.7-0.7-2.8-0.7c-1,0-2,0.2-2.8,0.7"/>
	</g>
</g>
</svg>
