<?xml version="1.0" encoding="utf-8"?>
<svg xmlns="http://www.w3.org/2000/svg" xml:space="preserve" id="Icons" x="0" y="0" version="1.1" viewBox="0 0 48 48">
  <style>
    .st4{fill:none;stroke:#45413c;stroke-linecap:round;stroke-linejoin:round;stroke-miterlimit:10}.st5{fill:#ffaa54}.st48{fill:#6dd627;stroke:#45413c;stroke-linecap:round;stroke-linejoin:round;stroke-miterlimit:10}
  </style>
  <g id="XMLID_733_">
    <ellipse id="XMLID_2240_" cx="24" cy="45.5" fill="#45413c" opacity=".15" rx="17.7" ry="1.5"/>
    <circle id="XMLID_2239_" cx="24" cy="19.7" r="18.2" fill="#ffe500"/>
    <path id="XMLID_2236_" fill="#ebcb00" d="M24 1.5C14 1.5 5.8 9.6 5.8 19.7S14 37.9 24 37.9s18.2-8.1 18.2-18.2S34 1.5 24 1.5zm0 33.6c-9.2 0-16.6-7.4-16.6-16.6C7.4 9.4 14.8 2 24 2s16.6 7.4 16.6 16.6c0 9.1-7.4 16.5-16.6 16.5z"/>
    <ellipse id="XMLID_2235_" cx="24" cy="5.1" fill="#fff48c" rx="5.5" ry="1.4"/>
    <circle id="XMLID_2234_" cx="24" cy="19.7" r="18.2" class="st4"/>
    <ellipse id="XMLID_2233_" cx="34.9" cy="24.2" class="st5" rx="2.3" ry="1.4"/>
    <ellipse id="XMLID_2232_" cx="13.1" cy="24.2" class="st5" rx="2.3" ry="1.4"/>
    <ellipse id="XMLID_2231_" cx="24" cy="30.1" fill="#ffb0ca" stroke="#45413c" stroke-linecap="round" stroke-linejoin="round" stroke-miterlimit="10" rx="10" ry="5.5"/>
    <path id="XMLID_2229_" d="M33.8 14.8c-2.1-.3-4.2-1.4-5.7-2.9" class="st4"/>
    <path id="XMLID_336_" d="M14.2 14.8c2.1-.3 4.2-1.4 5.7-2.9" class="st4"/>
    <path id="XMLID_2228_" d="m35.2 16.5-3 1.5c-.7.3-.7 1.3 0 1.6l2.9 1.5" class="st4"/>
    <path id="XMLID_1702_" d="m12.9 16.5 2.9 1.5c.7.3.7 1.3 0 1.6L12.9 21" class="st4"/>
    <path id="XMLID_335_" fill="#6dd627" d="M32.9 38.8c.5 0 1 0 1.5.3.6.3 1 .8 1.1 1.3 2.1.9 2.6 2 2.5 3.2-.1 1.2-1 1.8-4.5 1.8h-19c-3.5 0-4.4-.6-4.5-1.8-.1-1.3.5-2.5 3.2-3.5-1.1-1.1-.3-3.5 1.3-3.8 1.7-.3 1.8-1.8 1.8-4.1v-5.6c1.8-1.2 4.6-2 7.7-2s5.9.8 7.7 2v6.6c0 1.7.2 4.1 1.2 5.6z"/>
    <path fill="#46b000" d="M31.7 30.2v-3.5c-1.8-1.2-4.6-2-7.7-2s-5.9.8-7.7 2v3.5c1.8-1.2 4.6-2 7.7-2s5.9.8 7.7 2z"/>
    <path id="XMLID_334_" d="M32.9 38.8c.5 0 1 0 1.5.3.6.3 1 .8 1.1 1.3 2.1.9 2.6 2 2.5 3.2-.1 1.2-1 1.8-4.5 1.8h-19c-3.5 0-4.4-.6-4.5-1.8-.1-1.3.5-2.5 3.2-3.5-1.1-1.1-.3-3.5 1.3-3.8 1.7-.3 1.8-1.8 1.8-4.1v-5.6c1.8-1.2 4.6-2 7.7-2s5.9.8 7.7 2v6.6c0 1.7.2 4.1 1.2 5.6z" class="st4"/>
    <path id="XMLID_1698_" d="M28.1 30.5c0 3.5.7 7.6 2.3 8.2 1.6.6 2.6-.3 4.1.5 1.5.7 1.7 2.6 0 3.6" class="st4"/>
    <path id="XMLID_1697_" d="M16.3 32.3c0 2.3-.1 3.8-1.8 4.1-1.8.3-2.5 3.2-.9 4.1 1.6.9 3.3.4 4.3-.1" class="st4"/>
    <path id="XMLID_1678_" d="M19.5 33.2s-.2 5.8-2.3 8.2c-1.3 1.5-1.4 4.1 0 4.1" class="st4"/>
    <path id="XMLID_1677_" d="M25.4 35.5s.8 5 1.8 5.9 2.4.5 3.6.9c1.3.5 1.4 3.2-.5 3.2" class="st4"/>
    <path id="XMLID_1676_" d="M22.2 45.5s-1.5-.7-.9-2.7" class="st4"/>
    <path id="XMLID_1675_" d="M39.3 36.5s.4-1.7.9-3.2c.4-1.3 2.1-1.7 2.7-.1.7 1.6-1.2 3.2-3.6 3.3z" class="st48"/>
    <path id="XMLID_1674_" d="M39.4 40.2s1.1-.7 1.8-1.4c.9-1 2.8.5 1.4 1.8-1.4 1.2-3.2-.4-3.2-.4z" class="st48"/>
    <path id="XMLID_1673_" d="M7.8 40.4s-.7-1.7-.7-3.1c-.1-1.8-3.5-1.8-3.1.8.5 2.6 3.8 2.3 3.8 2.3z" class="st48"/>
  </g>
</svg>