<?xml version="1.0" encoding="UTF-8" standalone="no"?>
<svg
   xmlns:dc="http://purl.org/dc/elements/1.1/"
   xmlns:cc="http://creativecommons.org/ns#"
   xmlns:rdf="http://www.w3.org/1999/02/22-rdf-syntax-ns#"
   xmlns:svg="http://www.w3.org/2000/svg"
   xmlns="http://www.w3.org/2000/svg"
   xmlns:sodipodi="http://sodipodi.sourceforge.net/DTD/sodipodi-0.dtd"
   xmlns:inkscape="http://www.inkscape.org/namespaces/inkscape"
   width="247.01082mm"
   height="122.16093mm"
   viewBox="0 0 247.01082 122.16093"
   version="1.1"
   id="svg1311"
   inkscape:version="1.0.2 (e86c870879, 2021-01-15, custom)"
   sodipodi:docname="GPO Index 9 1891.svg">
  <defs
     id="defs1305" />
  <sodipodi:namedview
     id="base"
     pagecolor="#ffffff"
     bordercolor="#666666"
     borderopacity="1.0"
     inkscape:pageopacity="0.0"
     inkscape:pageshadow="2"
     inkscape:zoom="0.98994949"
     inkscape:cx="287.58913"
     inkscape:cy="377.81266"
     inkscape:document-units="mm"
     inkscape:current-layer="layer1"
     inkscape:document-rotation="0"
     showgrid="false"
     inkscape:window-width="1920"
     inkscape:window-height="1057"
     inkscape:window-x="-8"
     inkscape:window-y="-8"
     inkscape:window-maximized="1" />
  <metadata
     id="metadata1308">
    <rdf:RDF>
      <cc:Work
         rdf:about="">
        <dc:format>image/svg+xml</dc:format>
        <dc:type
           rdf:resource="http://purl.org/dc/dcmitype/StillImage" />
        <dc:title></dc:title>
      </cc:Work>
    </rdf:RDF>
  </metadata>
  <g
     inkscape:label="Layer 1"
     inkscape:groupmode="layer"
     id="layer1"
     transform="translate(-13.1286,-15.6483)">
    <path
       style="fill:#000000;stroke-width:0.264583"
       d="m 14.92102,137.70076 c -0.2341,-0.13101 -0.425636,-0.40813 -0.425636,-0.61583 0,-0.2077 -0.28199,-0.56239 -0.626643,-0.78822 -0.58136,-0.38092 -0.629159,-0.59168 -0.661471,-2.91655 -0.01916,-1.37828 -0.04892,-2.59525 -0.06615,-2.70437 -0.147005,-0.93123 0.893402,-2.12899 8.89569,-10.24117 4.874507,-4.94144 8.862739,-9.03185 8.862739,-9.0898 0,-0.0579 1.041797,-1.26483 2.315104,-2.68197 1.273307,-1.41714 2.493698,-2.80464 2.711979,-3.08332 2.600918,-3.32064 5.230488,-5.7137 5.577222,-5.07561 0.101655,0.18708 0.267798,1.07156 0.369207,1.96551 l 0.184383,1.62538 -2.605067,2.87254 c -1.432784,1.5799 -2.959055,3.34879 -3.391709,3.93088 -2.21684,2.98248 -10.341501,11.79558 -14.269049,15.47812 -2.694124,2.52606 -4.1261,4.05209 -3.959082,4.2191 0.07216,0.0722 0.214023,0.0117 0.315252,-0.13445 0.101228,-0.14611 0.779364,-0.69843 1.506968,-1.22738 1.674322,-1.21719 11.037565,-10.71548 14.097117,-14.30045 2.493581,-2.9218 6.086015,-7.3637 7.276947,-8.99766 0.763378,-1.04735 1.319543,-1.09517 1.224094,-0.10524 -0.03023,0.31352 0.01286,0.74863 0.09575,0.96691 0.08289,0.21829 0.295024,1.23032 0.471403,2.24896 0.176382,1.01865 0.359728,2.07175 0.407437,2.34022 0.09956,0.56022 -0.09473,0.88649 -2.781684,4.67124 -2.748293,3.87117 -6.3673,8.11696 -9.640301,11.30993 -2.825571,2.75648 -4.131197,4.30049 -3.636525,4.30049 0.784539,0 8.204348,-7.50925 10.477426,-10.60372 0.654005,-0.89033 4.68556,-5.96625 5.424829,-6.83012 0.594114,-0.69424 0.647182,-0.68617 0.8997,0.13691 0.309899,1.0101 -4.48169,7.55898 -9.364589,12.79901 -1.017023,1.09141 -1.850392,2.07367 -1.851932,2.18282 -0.0075,0.53006 0.671784,-0.01 2.995662,-2.38126 2.46488,-2.51525 3.443714,-3.70473 5.070272,-6.16135 1.341641,-2.02631 3.152439,-4.22354 3.480737,-4.22354 0.171407,0 0.52115,0.88864 0.777203,1.97476 l 0.46555,1.97477 -1.541632,2.32471 c -0.8479,1.27859 -2.254911,3.25025 -3.126695,4.38146 -0.871784,1.13121 -1.510033,2.13177 -1.418336,2.22347 0.255381,0.25538 1.741104,-1.43568 3.628136,-4.12959 0.937665,-1.3386 1.954406,-2.78159 2.259423,-3.20664 l 0.55458,-0.77282 0.276711,0.60732 c 0.357632,0.78491 -0.239609,2.12995 -2.355794,5.30541 -1.471914,2.2087 -1.86381,3.28368 -0.77824,2.13474 0.673595,-0.71291 2.93879,-4.03404 2.93879,-4.30872 0,-0.12362 0.228812,-0.43185 0.508471,-0.68493 0.486035,-0.43986 0.52605,-0.43291 0.906868,0.15743 1.020971,1.58269 1.055399,1.91593 0.339921,3.29007 -0.371216,0.71295 -1.086443,1.89158 -1.589392,2.61918 -0.502949,0.72761 -0.867961,1.36965 -0.811139,1.42677 0.204671,0.20573 0.871146,-0.54797 2.086872,-2.35998 0.680789,-1.0147 1.390388,-1.84491 1.576885,-1.84491 0.814795,0 1.578983,1.5958 0.950265,1.98437 -0.145521,0.0899 -0.264584,0.35585 -0.264584,0.59091 0,0.35401 0.102484,0.3311 0.597004,-0.13348 l 0.597003,-0.56085 1.683559,1.07041 c 2.478032,1.57554 5.075783,2.40827 7.04431,2.2581 1.610722,-0.12288 3.042708,-0.60664 3.042708,-1.02791 0,-0.12728 -0.220223,-0.11356 -0.489384,0.0305 -0.622324,0.33306 -3.851616,0.43763 -5.066866,0.16408 -2.937894,-0.66133 -7.07262,-4.07805 -8.508424,-7.03093 -1.754171,-3.60763 -1.822886,-3.80289 -2.743581,-7.79623 -0.234854,-1.01865 -0.549791,-2.20927 -0.699854,-2.64584 -0.324787,-0.94485 -1.377966,-5.91068 -1.767602,-8.33437 -0.152062,-0.94589 -0.403654,-2.4937 -0.559091,-3.43959 -0.155438,-0.94588 -0.342895,-2.25557 -0.416574,-2.91041 -0.07368,-0.65485 -0.301037,-2.61938 -0.505251,-4.36563 -0.20421,-1.74625 -0.396684,-4.48469 -0.427717,-6.08542 -0.121055,-6.24409 0.05959,-17.31493 0.319471,-19.57916 0.150326,-1.30969 0.371361,-3.33375 0.491194,-4.49792 0.708512,-6.88315 1.818992,-11.60623 3.514764,-14.94896 3.695801,-7.2852 4.586669,-8.5319 8.683068,-12.1513 3.771812,-3.33261 7.926917,-5.11881 10.876423,-4.67559 0.684953,0.10293 1.510908,0.40216 1.835454,0.66496 l 0.590085,0.47783 -1.242113,1.69048 c -2.470293,3.36202 -3.372155,4.45927 -3.895315,4.73926 -0.292971,0.15679 -0.459603,0.40331 -0.37029,0.54782 0.08931,0.14451 -0.128588,0.64455 -0.484219,1.1112 -1.835061,2.40794 -3.599408,7.24304 -4.799071,13.15159 -1.045927,5.15137 -1.444252,10.02193 -1.384851,16.93333 0.07311,8.50673 0.433682,12.12179 1.794489,17.99167 0.286756,1.23693 0.629711,2.78474 0.762125,3.43959 1.009671,4.99331 1.861436,8.40265 3.040671,12.17083 0.942139,3.01055 1.55167,7.10228 1.326488,8.90458 -0.181549,1.45306 -0.281048,1.61493 -2.082863,3.38847 -1.633292,1.60766 -2.145634,1.94375 -3.744291,2.45618 -1.785774,0.57241 -3.202292,0.80545 -5.159375,0.84879 -0.509323,0.0113 -1.102546,0.13211 -1.318271,0.26851 -0.327128,0.20685 -0.261257,0.38482 0.396875,1.07228 0.761243,0.79517 0.844428,0.81786 2.356057,0.64271 2.111478,-0.24465 4.854448,-1.20806 6.492237,-2.28025 1.564661,-1.02431 2.935317,-2.94495 3.795726,-5.31878 0.556244,-1.53465 0.576659,-1.80294 0.296548,-3.89707 -0.165452,-1.23693 -0.601142,-3.26099 -0.968195,-4.49792 -1.039951,-3.5045 -1.367962,-4.84268 -1.325431,-5.40731 0.02159,-0.28678 -0.05784,-0.64598 -0.176535,-0.7982 -0.543314,-0.6968 -2.449309,-8.92264 -3.202607,-13.82174 -0.116207,-0.75576 -0.270311,-1.47014 -0.342453,-1.5875 -0.07214,-0.11736 -0.33043,-1.93978 -0.573979,-4.04983 -0.435216,-3.77062 -0.55054,-10.11299 -0.271817,-14.94896 0.07548,-1.30969 0.135044,-2.70172 0.132353,-3.09341 -0.0027,-0.39168 0.232452,-2.39728 0.522541,-4.45689 0.835052,-5.92883 2.62359,-12.29928 4.020043,-14.31867 0.267112,-0.38627 0.485658,-0.76391 0.485658,-0.83919 0,-0.51884 5.035958,-7.33907 6.387661,-8.65085 0.561369,-0.54479 1.020673,-1.10277 1.020673,-1.23996 0,-0.36014 -1.05124,-1.26763 -2.05798,-1.77657 -0.477044,-0.24116 -1.611035,-0.50792 -2.519979,-0.5928 -1.544537,-0.14423 -1.842553,-0.0733 -4.556604,1.08449 -3.171232,1.35282 -4.899851,2.28786 -5.616144,3.03786 -0.254558,0.26654 -1.951117,0.99054 -3.770127,1.60889 -3.466156,1.17829 -7.515972,2.68121 -8.863542,3.28936 -0.436563,0.19701 -1.27,0.56225 -1.852084,0.81163 -2.467269,1.05705 -10.192572,4.98092 -10.473967,5.31998 -0.168549,0.20309 -0.431326,0.36925 -0.583951,0.36925 -0.152624,0 -0.476906,0.18046 -0.720627,0.40103 -0.24372,0.22056 -0.987295,0.66704 -1.652388,0.99218 -0.665094,0.32514 -1.963342,1.30703 -2.884998,2.18197 -0.921655,0.87494 -2.687767,2.41828 -3.924695,3.42963 -1.236927,1.01136 -3.00457,2.47676 -3.928097,3.25645 -0.923526,0.77969 -1.744595,1.35216 -1.824598,1.27216 -0.08,-0.08 -0.175902,-0.53245 -0.21311,-1.00544 -0.07417,-0.94285 -0.297234,-0.68615 4.800212,-5.52383 4.301365,-4.08216 8.219742,-7.01893 13.189082,-9.88502 2.702866,-1.55889 8.453082,-4.50805 10.333804,-5.29997 0.582083,-0.2451 1.534583,-0.66478 2.116667,-0.93262 1.043109,-0.47997 2.186514,-0.93542 6.879167,-2.74015 2.295824,-0.88295 4.095062,-1.3082 6.864085,-1.62236 1.570292,-0.17816 1.91924,-0.39903 0.630415,-0.39903 -2.600468,0 -8.00173,1.00975 -9.478875,1.77205 -0.363802,0.18775 -0.804371,0.34209 -0.979041,0.34299 -0.17467,8.9e-4 -0.412795,0.15727 -0.529166,0.3475 -0.116372,0.19024 -1.223616,0.74126 -2.460544,1.2245 -4.329983,1.69163 -10.490959,4.52125 -12.435417,5.71136 -0.509323,0.31173 -1.586463,0.92669 -2.393646,1.36658 -0.807182,0.43989 -2.318844,1.44218 -3.359247,2.22731 -1.040404,0.78512 -2.414793,1.81376 -3.054198,2.28586 -0.639406,0.47209 -1.449464,1.1131 -1.800128,1.42447 -1.417403,1.25855 -7.70433,5.78696 -8.034213,5.78696 -0.07919,0 -0.143985,-0.22378 -0.143985,-0.49729 0,-0.48155 1.494257,-1.86404 3.42558,-3.16934 0.517025,-0.34944 2.13067,-1.58534 3.585878,-2.74644 2.717773,-2.16849 3.947198,-2.9793 9.657293,-6.36904 8.457832,-5.0209 10.519537,-6.05353 15.742709,-7.88493 4.151087,-1.4555 6.69386,-2.0323 10.31875,-2.34071 1.74625,-0.14857 3.323828,-0.27135 3.505729,-0.27285 0.181901,-0.002 0.330729,-0.11056 0.330729,-0.24234 0,-0.30131 -4.919419,-0.10513 -6.879167,0.27433 -3.043806,0.58937 -7.803319,1.86507 -9.359993,2.50878 -0.891119,0.36849 -1.977403,0.81016 -2.413965,0.98147 -1.236713,0.48532 -6.798509,3.3558 -7.581469,3.91286 -0.386267,0.27482 -0.775586,0.49967 -0.865154,0.49967 -0.08957,0 -0.60697,0.27807 -1.149781,0.61794 -0.542812,0.33987 -1.930389,1.13054 -3.083504,1.75706 -1.153116,0.62652 -2.761099,1.6445 -3.573295,2.26218 -0.812196,0.61768 -2.0305,1.46411 -2.707344,1.88096 -0.676843,0.41685 -2.224017,1.4227 -3.438164,2.23524 -1.214147,0.81253 -2.564728,1.6595 -3.00129,1.88214 -0.436563,0.22264 -1.150938,0.59871 -1.5875,0.83573 l -0.79375,0.43093 -0.08179,-1.21662 c -0.09681,-1.44011 0.168031,-1.80178 2.463038,-3.36352 0.873125,-0.59417 2.747128,-1.91914 4.164451,-2.9444 2.793827,-2.02098 6.727212,-4.64588 8.542221,-5.70056 0.626074,-0.3638 2.428507,-1.44964 4.005406,-2.41297 5.230903,-3.19557 6.431765,-3.74359 11.995214,-5.47405 2.474622,-0.7697 6.20017,-1.57308 8.26823,-1.78296 0.982266,-0.0997 1.785938,-0.29996 1.785938,-0.44505 0,-0.16524 -0.46958,-0.19216 -1.256771,-0.072 -0.691224,0.10546 -2.030678,0.22341 -2.976563,0.26211 -3.998706,0.16358 -11.531905,2.88996 -16.801042,6.08055 -1.018646,0.61681 -3.334403,1.99692 -5.146128,3.06691 -2.952784,1.74389 -4.502674,2.74444 -8.479915,5.4743 -3.965619,2.72188 -6.185877,4.03984 -6.416721,3.80899 -0.145436,-0.14543 -0.156829,-0.42294 -0.02684,-0.65377 0.358831,-0.63721 5.863609,-4.73345 7.898772,-5.87767 1.018646,-0.57271 2.05283,-1.16193 2.298188,-1.30938 0.245357,-0.14744 1.138326,-0.68444 1.984375,-1.19332 0.846049,-0.50888 1.840964,-1.04466 2.210922,-1.19063 0.369958,-0.14596 1.084333,-0.58105 1.5875,-0.96687 2.967194,-2.27519 9.450416,-5.49339 14.540891,-7.21793 3.10742,-1.05272 4.128561,-1.44911 3.765449,-1.46168 -0.410892,-0.0142 -3.776083,0.8787 -5.525722,1.46619 -1.150353,0.38626 -7.733798,3.42784 -9.749103,4.50413 -0.436562,0.23315 -1.686719,0.89721 -2.778125,1.47568 -1.091406,0.57848 -2.162969,1.20441 -2.38125,1.39095 -0.218281,0.18655 -1.468437,0.95359 -2.778125,1.70455 -1.309688,0.75095 -2.559844,1.47965 -2.778125,1.61933 -0.218281,0.13968 -1.503367,0.9406 -2.855746,1.77982 -5.258551,3.26322 -5.196471,3.23103 -5.431286,2.81582 -0.395841,-0.69993 0.100014,-1.94186 1.072291,-2.68568 0.518304,-0.39652 1.847639,-1.49978 2.954077,-2.4517 2.190693,-1.88475 5.701783,-4.38971 7.171081,-5.11615 0.509323,-0.25181 1.521354,-0.79425 2.248958,-1.20541 1.806026,-1.02057 5.425729,-2.80882 6.152203,-3.03939 0.503131,-0.15969 0.861298,-0.68225 0.46762,-0.68225 -0.365199,0 -4.080832,1.64841 -6.877519,3.05116 -3.842565,1.92734 -10.909519,6.63675 -11.891961,7.9248 -0.824278,1.08069 -1.211802,1.1814 -1.211802,0.31495 0,-0.75562 0.561536,-1.28508 3.439584,-3.2431 1.236927,-0.84152 2.789748,-1.95649 3.450715,-2.4777 0.660966,-0.52121 3.310106,-1.99835 5.886979,-3.28252 2.576873,-1.28417 4.685223,-2.44328 4.685223,-2.57581 0,-0.32655 -0.03922,-0.31855 -1.499419,0.30582 -3.315815,1.41782 -9.814962,4.95778 -10.402991,5.66631 -0.18327,0.22083 -0.467467,0.40172 -0.63155,0.40198 -0.164083,2.6e-4 -1.250832,0.71442 -2.414999,1.58703 -1.164167,0.8726 -2.205964,1.58676 -2.315104,1.58702 -0.109141,2.6e-4 -0.198438,-0.47577 -0.198438,-1.05786 0,-0.88393 0.1635,-1.20909 0.992188,-1.97319 1.950883,-1.79882 4.45882,-4.02723 6.095018,-5.41566 1.712154,-1.45289 1.999586,-1.9706 0.676445,-1.21837 -1.394784,0.79296 -5.65682,4.13336 -6.547887,5.13196 -0.664921,0.74515 -1.215764,0.71851 -1.215764,-0.0588 0,-0.45528 0.642883,-1.18373 2.38125,-2.6982 1.309688,-1.141 2.38125,-2.17004 2.38125,-2.28676 0,-0.45008 -0.786103,-0.18005 -1.501001,0.5156 -1.218567,1.18576 -2.717602,2.22293 -2.979179,2.06127 -0.134053,-0.0829 -0.199437,-0.69424 -0.145297,-1.35865 0.05414,-0.6644 -0.0091,-1.49084 -0.140524,-1.83652 -0.25843,-0.67972 -0.06813,-3.01954 0.292912,-3.60144 0.17109,-0.27575 1.243405,-0.36584 4.662743,-0.39174 2.442305,-0.0185 5.693821,-0.0507 7.22559,-0.0716 7.083251,-0.0966 26.04681,0.9883 29.626425,1.69489 0.363802,0.0718 1.137708,0.1882 1.719791,0.25864 4.021683,0.4867 7.421119,2.13325 10.254978,4.96711 2.093571,2.09357 2.841898,3.29252 2.841898,4.55319 0,0.36848 0.119062,0.66996 0.264583,0.66996 0.145521,0 0.264583,-0.21431 0.264583,-0.47625 0,-0.69083 0.526146,-1.11125 1.39068,-1.11125 0.415623,0 2.02892,-0.54236 3.585104,-1.20523 6.099903,-2.59834 7.166023,-3.03798 10.105467,-4.16727 1.67349,-0.64293 5.185834,-1.84811 7.805209,-2.67817 2.619375,-0.83006 6.369843,-2.02876 8.334373,-2.66378 9.93642,-3.21185 15.69037,-4.88174 18.12396,-5.25986 3.81142,-0.5922 6.78916,-0.9574 9.78959,-1.20062 1.89177,-0.15334 5.10646,-0.42961 7.14375,-0.61392 2.78804,-0.25223 13.3889,-0.33511 42.8625,-0.33511 21.53708,0 40.52754,0.0868 42.20104,0.19289 3.92451,0.2488 13.27748,0.96509 14.81666,1.13472 0.65486,0.0722 2.44078,0.25714 3.96875,0.41105 2.34336,0.23603 7.17332,0.97072 9.3334,1.41971 5.32414,1.10668 7.13837,2.18384 8.555,5.07932 0.90523,1.85023 0.98896,3.49726 0.22096,4.34672 -0.38977,0.43111 -0.50111,0.89914 -0.45907,1.92986 0.0795,1.94882 -0.32393,2.88246 -1.96415,4.54586 -0.86951,0.88179 -3.94115,2.23883 -5.06756,2.23883 -0.33825,0 -0.93104,0.22369 -1.31731,0.49708 -0.38626,0.27339 -1.23808,0.57021 -1.89292,0.65958 -4.09676,0.55915 -7.69679,0.72124 -12.03856,0.54202 -10.20315,-0.42118 -15.8737,-0.19214 -23.28333,0.94045 -6.13479,0.93771 -12.73588,1.59042 -16.13959,1.59586 -1.30967,0.002 -3.81,0.1403 -5.55625,0.30714 -3.579,0.34194 -3.63701,0.34287 -5.82083,0.093 l -1.5875,-0.18163 2.62053,1.34108 c 1.4413,0.73759 2.81052,1.50713 3.04271,1.71009 0.2322,0.20295 0.8389,0.57588 1.34822,0.82872 1.40537,0.69766 4.68099,4.17539 5.81101,6.16954 0.55257,0.97514 1.24437,2.57194 1.53733,3.54845 0.6742,2.24726 0.45387,4.69705 -0.73687,8.19317 -0.90665,2.66199 -3.62041,7.86185 -4.71715,9.03858 -0.90328,0.96916 -3.04151,2.34507 -5.13897,3.30684 -3.4763,1.59403 -6.28035,3.012 -6.28022,3.17583 8e-5,0.0939 0.25099,0.82549 0.55759,1.62586 0.7651,1.99724 0.86287,7.43621 0.16789,9.33968 -0.92095,2.52237 -2.70065,5.36917 -3.8397,6.14196 -0.6973,0.47309 -5.20763,2.01085 -7.73383,2.63679 -1.23693,0.30649 -2.22369,0.67124 -2.1928,0.81056 0.0309,0.13931 0.35548,0.96768 0.72132,1.8408 0.53985,1.28841 0.66635,2.03314 0.67145,3.95282 0.003,1.30093 -0.11213,3.02734 -0.25686,3.83646 -0.14474,0.80913 -0.32879,1.91797 -0.40901,2.46409 -0.2024,1.37784 -2.12719,4.08348 -3.68408,5.17865 -1.88887,1.32869 -3.35769,1.62831 -7.94689,1.62104 -5.2887,-0.008 -8.1385,-0.74872 -13.2139,-3.43282 -1.31808,-0.69706 -2.81324,-1.34964 -3.32256,-1.45018 -0.50933,-0.10054 -1.30695,-0.4018 -1.77249,-0.66947 -0.46556,-0.26767 -2.96587,-1.43845 -5.55626,-2.60173 -12.36443,-5.55258 -15.09099,-7.07151 -16.61024,-9.25336 -0.7399,-1.06259 -0.7995,-1.31919 -0.79895,-3.43958 5.3e-4,-2.04147 0.0819,-2.42718 0.7463,-3.53712 0.74134,-1.23849 2.34618,-2.85526 2.83418,-2.85526 0.14046,0 0.25538,-0.18661 0.25538,-0.4147 0,-0.82802 -1.75587,0.10891 -3.38693,1.80727 -1.80843,1.88305 -2.02189,5.50108 -0.49999,8.47464 0.8141,1.59062 0.99086,1.74593 4.78077,4.20056 0.59979,0.38847 1.23466,0.83527 1.41083,0.99289 0.17617,0.15761 1.10212,0.66002 2.05768,1.11646 0.95555,0.45644 1.78518,0.90727 1.84363,1.00183 0.10768,0.17423 -7.73105,4.11364 -11.2823,5.67 -2.52713,1.10754 -3.03269,1.40942 -2.78131,1.6608 0.27796,0.27796 3.79658,-0.623 4.89618,-1.2537 0.48126,-0.27603 1.00704,-0.50188 1.1684,-0.50188 0.29949,0 6.4234,-3.50466 8.1964,-4.69073 0.97869,-0.6547 0.97994,-0.65481 1.71979,-0.14508 0.40722,0.28055 1.13397,0.66713 1.61501,0.85906 1.0709,0.42729 0.89249,0.6165 -1.1234,1.19136 -1.774,0.50589 -4.71035,1.91975 -5.70434,2.74667 -0.63953,0.53204 -0.64277,0.55057 -0.0977,0.55909 0.31009,0.005 1.32253,-0.27679 2.24986,-0.62583 1.7179,-0.64662 2.34817,-0.91282 5.08658,-2.14835 1.85193,-0.83557 2.15273,-0.7859 5.05312,0.83431 2.42032,1.35204 3.20279,1.88799 3.02132,2.06946 -0.0694,0.0694 -1.93265,0.24754 -4.14046,0.39577 -2.20781,0.14824 -4.88074,0.44591 -5.93985,0.66149 -2.87717,0.58566 -14.30075,2.17926 -19.12355,2.66774 -2.32834,0.23583 -4.94771,0.56833 -5.82084,0.73889 -1.65384,0.32307 -2.73524,0.26905 -10.318746,-0.5155 -2.182813,-0.22582 -4.980782,-0.51142 -6.217709,-0.63468 -1.236927,-0.12325 -2.903802,-0.41157 -3.704167,-0.6407 -0.800364,-0.22913 -3.062552,-0.82609 -5.027083,-1.32658 -1.964532,-0.50048 -4.067964,-1.0861 -4.674294,-1.30137 -0.606332,-0.21527 -1.632868,-0.47094 -2.281192,-0.56816 l -1.178775,-0.17677 -0.01463,2.73694 c -0.05884,11.00417 -2.994885,15.60638 -11.901126,18.65489 l -2.836436,0.97087 -6.172237,0.0876 c -3.763352,0.0534 -6.912809,-0.0296 -8.069792,-0.21258 -1.04366,-0.16509 -4.874123,-0.31356 -8.512144,-0.32992 -5.984169,-0.0269 -6.860006,0.027 -9.189656,0.56556 -1.416289,0.32742 -2.93816,0.59531 -3.381935,0.59531 -0.443775,0 -1.249524,0.18644 -1.790554,0.41432 -1.401385,0.59024 -3.10329,0.86974 -3.600761,0.59134 z m 1.724779,-5.96659 c 0.329108,-0.41965 0.319749,-0.42901 -0.0999,-0.0999 -0.254661,0.19972 -0.463021,0.40808 -0.463021,0.46302 0,0.21776 0.217273,0.0776 0.562916,-0.36312 z m 4.918001,-0.86453 c 1.695741,-1.06942 11.747226,-11.33093 14.892001,-15.20318 1.382448,-1.70224 3.079089,-3.75788 3.770313,-4.56809 0.691224,-0.81021 1.256771,-1.59445 1.256771,-1.74277 0,-0.35444 -2.251586,1.99475 -4.894792,5.10699 -3.670675,4.32202 -11.141744,12.16557 -14.939265,15.68408 -0.903098,0.83674 -1.576519,1.52135 -1.496492,1.52135 0.08003,0 0.715186,-0.35927 1.411464,-0.79838 z m 16.611793,0.26921 c 0.08994,-0.14552 0.03743,-0.26458 -0.116676,-0.26458 -0.154109,0 -0.280199,0.11906 -0.280199,0.26458 0,0.14552 0.0525,0.26459 0.116676,0.26459 0.06417,0 0.190262,-0.11907 0.280199,-0.26459 z m 25.810356,-3.72401 c 1.460739,-2.15104 2.215224,-3.92541 2.731818,-6.4246 0.477023,-2.30775 0.575924,-6.13396 0.165119,-6.38785 -0.145521,-0.0899 -0.272839,-0.0672 -0.28293,0.0505 -0.01008,0.11773 -0.0724,1.22609 -0.13847,2.46302 -0.20412,3.8214 -1.499018,8.00191 -3.150645,10.17168 -1.200616,1.57727 -1.274892,1.73457 -0.819055,1.73457 0.221449,0 0.893821,-0.72331 1.494163,-1.60735 z m -4.095223,-0.64699 c 0.440322,-1.05384 0.82341,-3.79357 0.406204,-2.90504 -0.13666,0.29104 -0.420068,1.06495 -0.629801,1.71979 -0.209733,0.65485 -0.470662,1.39899 -0.579845,1.65365 -0.123775,0.2887 -0.08316,0.46302 0.107879,0.46302 0.168515,0 0.481517,-0.41914 0.695563,-0.93142 z m -6.766174,-6.34422 c 5.040373,-0.74366 5.166275,-0.80576 7.242347,-3.57228 l 1.092028,-1.45521 -0.01011,-2.64583 c -0.0081,-2.11158 -0.133413,-2.96638 -0.620757,-4.23333 -0.335857,-0.87313 -0.673833,-2.06123 -0.75106,-2.64023 -0.07723,-0.57899 -0.320458,-1.3275 -0.540517,-1.66335 -0.22006,-0.33586 -0.607584,-1.58854 -0.861169,-2.78374 -0.253584,-1.19521 -0.653746,-2.88272 -0.889249,-3.75004 -0.2355,-0.86732 -0.428183,-1.86554 -0.428183,-2.21827 0,-0.35272 -0.116287,-1.07185 -0.258418,-1.59805 -0.991746,-3.67175 -1.556232,-6.90483 -2.386836,-13.67056 -0.323784,-2.63742 -0.322352,-16.11053 0.0019,-17.42034 0.111916,-0.45215 0.347266,-2.07225 0.523,-3.60022 0.468436,-4.073 0.984419,-6.05594 2.650627,-10.18646 2.078334,-5.15217 5.346878,-10.52898 7.769355,-12.78071 0.673981,-0.62648 1.225421,-1.23752 1.225421,-1.35787 0,-0.82246 -6.194275,0.51815 -8.041082,1.74031 -3.372348,2.23171 -9.435529,10.34737 -10.74523,14.38265 -0.165306,0.50932 -0.402823,1.16416 -0.527815,1.45521 -0.864028,2.01189 -2.527461,8.8236 -2.916494,11.94296 -0.965435,7.74115 -1.195311,16.60737 -0.638225,24.61607 0.231037,3.32139 0.451194,6.75326 0.489238,7.62639 0.104518,2.39867 0.593109,5.94889 1.040344,7.55939 0.219393,0.79004 0.539552,2.508 0.71146,3.81769 0.17191,1.30969 0.489799,3.03609 0.706421,3.83646 0.216623,0.80036 0.510689,2.05052 0.653482,2.77812 0.214873,1.09489 0.634198,2.56045 1.684382,5.88698 0.129559,0.4104 0.659826,0.40128 3.825185,-0.0657 z m -1.190625,-3.72601 c -1.132142,-0.4028 -2.770344,-2.41553 -2.786539,-3.42361 -0.0046,-0.28803 -0.183224,-0.75482 -0.396875,-1.03729 -0.747887,-0.98879 -0.483008,-1.89085 1.000601,-3.40759 2.208385,-2.25771 4.275365,-3.17385 5.828504,-2.58335 0.401373,0.15261 1.441932,0.97002 2.312353,1.81648 l 1.582581,1.53901 -0.0016,1.57452 c -0.0031,3.28057 -0.645235,4.14934 -3.92193,5.30594 -2.026629,0.71534 -2.186578,0.72489 -3.617219,0.21589 z m 4.626456,-1.65057 c 0.365866,-0.27034 0.93911,-0.98172 1.273879,-1.58085 0.544799,-0.97501 0.576903,-1.20728 0.305954,-2.2135 -0.593061,-2.20247 -3.352488,-3.87674 -5.346383,-3.2439 -1.918248,0.60883 -3.373448,2.35677 -3.373448,4.05208 0,0.94378 1.426295,2.62212 2.759408,3.24702 1.302187,0.61041 3.367966,0.4874 4.38059,-0.26085 z m -3.964998,-0.23869 c -0.900663,-0.33843 -1.852083,-1.20104 -1.852083,-1.67919 0,-0.47675 0.213693,-0.51115 3.175,-0.51115 2.520405,0 3.175,0.0751 3.175,0.36448 0,0.51007 -0.646211,0.99013 -1.655276,1.22969 -0.654312,0.15533 -0.713089,0.21018 -0.247338,0.23083 0.336011,0.0149 0.537343,0.14614 0.447406,0.29166 -0.171419,0.27737 -2.359634,0.33035 -3.042709,0.0737 z m -2.116667,-2.98482 c 0,-1.87945 2.256208,-3.36245 4.29948,-2.82604 1.532152,0.40223 0.614217,1.13167 -1.620573,1.28779 -0.381993,0.0267 0.25682,0.11598 1.419582,0.19843 1.681737,0.11926 2.131142,0.23949 2.197388,0.58789 0.09601,0.50495 -1.234313,0.85865 -4.377647,1.16391 -1.870618,0.18167 -1.91823,0.17144 -1.91823,-0.41198 z m 110.523412,2.91833 c 0.54916,-1.16022 1.1042,-2.11272 1.23344,-2.11667 0.13105,-0.004 0.15705,0.75346 0.0588,1.71261 -0.0969,0.94589 -0.11536,1.71979 -0.041,1.71979 0.26299,0 1.42633,-2.55668 1.61083,-3.5401 0.2351,-1.25323 0.59065,-0.93311 0.6994,0.62968 l 0.0829,1.19063 0.78921,-1.66318 0.7892,-1.66317 0.27996,0.83147 0.27996,0.83148 0.31198,-0.68474 c 0.54993,-1.20696 1.38616,-4.96094 1.38579,-6.22102 -5.3e-4,-1.9489 -0.74653,-5.65898 -1.28274,-6.3798 -0.48743,-0.65527 -0.54003,-0.66294 -5.62374,-0.81964 -5.25865,-0.16209 -6.25057,-0.25787 -9.23275,-0.89157 -0.94588,-0.20099 -2.85088,-0.56079 -4.23333,-0.79954 -6.89887,-1.19145 -12.38071,-2.51394 -14.55208,-3.51068 -0.94589,-0.43419 -2.61276,-1.18139 -3.70417,-1.66042 -7.28865,-3.19913 -9.11673,-4.34656 -10.68203,-6.70478 -1.34078,-2.01998 -1.71969,-3.97289 -1.13234,-5.83618 0.55625,-1.76464 2.96603,-4.3296 4.76148,-5.06811 1.27639,-0.52501 1.6466,-1.16742 0.67277,-1.16742 -1.25739,0 -4.96204,2.69362 -5.77017,4.19543 -2.41055,4.47972 0.11677,10.09633 5.81361,12.91995 2.81605,1.39577 5.47923,2.59644 6.33668,2.85684 0.3638,0.11049 0.78052,0.28962 0.92604,0.39808 0.14552,0.10845 0.91943,0.40729 1.71979,0.66408 0.80037,0.25679 1.57427,0.55779 1.7198,0.66887 0.37783,0.28843 4.02708,1.21738 7.27604,1.85219 7.33889,1.43392 10.58333,2.27091 10.58333,2.73023 0,0.46571 -1.42415,4.28942 -2.37502,6.37672 -0.29447,0.64639 -0.5354,1.28627 -0.5354,1.42195 0,0.13569 -0.17859,0.39493 -0.39687,0.57608 -0.21828,0.18116 -0.39688,0.66783 -0.39688,1.08149 0,0.41366 -0.16773,1.26228 -0.37275,1.88583 -0.65489,1.99186 -0.77364,2.8707 -0.3668,2.71459 0.39537,-0.15172 1.12639,-1.47845 2.21954,-4.02826 0.38992,-0.90951 0.82478,-1.65365 0.96634,-1.65365 0.28308,0 0.21475,0.58804 -0.46984,4.04332 -0.25319,1.27793 -0.37502,2.40884 -0.27074,2.51312 0.24148,0.24149 0.8048,-0.52808 1.54731,-2.11382 0.32088,-0.68526 0.67988,-1.25081 0.79781,-1.25677 0.11791,-0.006 0.13137,1.12025 0.0299,2.5027 -0.12108,1.64955 -0.0919,2.51354 0.0848,2.51354 0.22931,0 0.88721,-1.22686 2.41197,-4.49792 0.2906,-0.62344 0.30095,-0.60823 0.18008,0.26458 -0.0705,0.50933 -0.20973,1.74585 -0.30931,2.74782 -0.24629,2.47816 0.26785,2.27606 1.48354,-0.58316 0.98151,-2.30846 1.49627,-2.79562 1.23888,-1.17247 -0.0865,0.54571 -0.24024,1.70656 -0.34157,2.57969 -0.16457,1.41807 -0.14026,1.55123 0.22773,1.24768 0.22658,-0.1869 0.81156,-1.22857 1.29994,-2.31482 0.48839,-1.08624 0.99261,-1.97512 1.1205,-1.97528 0.21243,-2.6e-4 0.12839,1.13517 -0.27903,3.77002 -0.25331,1.63819 0.34728,1.16871 1.42929,-1.11729 z m -7.69098,-14.47337 c -0.39286,-0.39286 -0.1597,-1.14423 0.35507,-1.14423 0.29104,0 0.52917,0.16401 0.52917,0.36448 0,0.44874 -0.64578,1.01821 -0.88424,0.77975 z m -46.06385,14.61699 c 4.77349,-1.47517 14.9335,-6.45666 14.9335,-7.32194 0,-0.47121 -0.88582,-0.21961 -2.34664,0.66652 -2.78185,1.68747 -7.88952,3.81363 -12.47002,5.19087 -4.47319,1.34498 -6.87917,2.20123 -6.87917,2.44819 0,0.48474 3.79892,-0.0678 6.76233,-0.98364 z m -10.860736,-0.53576 c 6.137876,-1.17877 12.523366,-2.84242 14.020286,-3.65278 0.29104,-0.15756 2.03528,-1.03199 3.87608,-1.94319 3.18236,-1.57525 4.14917,-2.22116 3.3247,-2.22116 -0.52234,0 -3.37386,1.00145 -3.75705,1.31948 -0.33286,0.27624 -4.25532,1.80547 -6.75103,2.63198 -3.09706,1.02567 -5.56176,1.61768 -8.867557,2.12998 -1.889559,0.29283 -4.090408,0.65279 -4.890773,0.79991 -4.742376,0.87172 -8.299109,0.94873 -10.942598,0.23691 -0.689399,-0.18564 -1.118889,-0.18969 -1.296355,-0.0122 -0.177464,0.17747 0.07475,0.32389 0.761261,0.44197 0.564658,0.0971 1.919619,0.38985 3.011025,0.65052 3.183353,0.76029 6.064216,0.66484 11.512011,-0.3814 z M 89.240178,112.207 c 3.430225,-0.24048 6.598989,-0.89034 10.847912,-2.22471 1.45521,-0.457 3.00303,-0.93324 3.43959,-1.05831 2.123,-0.60819 4.10379,-1.49234 7.4535,-3.32699 3.84633,-2.10663 4.26212,-2.38592 3.97684,-2.6712 -0.0968,-0.0968 -1.77727,0.6087 -3.73432,1.56784 -4.68563,2.2964 -5.48917,2.60936 -9.54811,3.71882 -5.34158,1.46004 -7.92824,1.98387 -11.50937,2.33077 -5.797889,0.56163 -9.098736,0.3123 -14.911891,-1.12637 -2.087264,-0.51657 -6.146176,-2.0705 -7.233166,-2.76918 -0.39171,-0.25177 -0.637847,-0.28262 -0.7541,-0.0945 -0.09492,0.15358 -0.130365,0.32146 -0.07877,0.37306 0.53545,0.53545 8.375346,3.95123 10.060602,4.38332 2.405033,0.61664 7.553447,1.2888 8.816279,1.15102 0.436563,-0.0476 1.865313,-0.16173 3.175,-0.25355 z m 55.354582,-3.18261 c 1.25756,-2.36276 2.30649,-5.38774 2.58426,-7.45273 0.20139,-1.49707 -0.11567,-1.85542 -0.70228,-0.79375 -0.59081,1.06929 -2.07094,4.55096 -2.07094,4.87143 0,0.17204 -0.35718,1.36296 -0.79375,2.64649 -0.43656,1.28353 -0.79375,2.49337 -0.79375,2.68853 0,0.81117 0.73053,0.005 1.77646,-1.95997 z m 2.27583,0.48477 c 1.13453,-1.79121 1.40047,-2.52169 2.21737,-6.09066 0.32062,-1.40072 0.36105,-2.0027 0.14877,-2.21497 -0.49115,-0.49116 -2.30678,3.56233 -3.47299,7.75363 -0.65151,2.34154 -0.65106,2.33794 -0.29427,2.33794 0.14846,0 0.77896,-0.80367 1.40112,-1.78594 z m -4.91313,-0.26458 c 1.51577,-2.21416 3.41101,-8.46973 2.76252,-9.11822 -0.39241,-0.39241 -1.3432,1.61435 -2.79788,5.90523 -0.67125,1.98002 -1.22046,3.67666 -1.22046,3.77032 0,0.45017 0.81314,0.0893 1.25582,-0.55733 z m -49.981014,-0.32334 c 3.388387,-0.49851 6.010355,-1.19919 7.478935,-1.99864 0.379611,-0.20665 1.629769,-0.72297 2.778129,-1.14739 3.30026,-1.21972 4.08225,-1.64833 6.0958,-3.34117 1.04017,-0.87449 2.61437,-2.12038 3.49821,-2.76864 1.66008,-1.21759 2.43443,-2.16489 1.28535,-1.57242 -0.51192,0.26394 -3.26241,2.24659 -3.63207,2.61812 -0.36209,0.36392 -2.6287,1.85282 -2.82138,1.85332 -0.12173,2.6e-4 -0.88501,0.35042 -1.69618,0.77801 -3.21826,1.69645 -6.32122,2.66812 -14.431009,4.51895 -2.44435,0.55785 -13.067813,-0.75731 -15.796461,-1.95557 -0.462786,-0.20323 -1.258145,-0.523 -1.767467,-0.71062 -0.509323,-0.18761 -1.978285,-0.86286 -3.264356,-1.50054 -1.286073,-0.63768 -2.457955,-1.11954 -2.60418,-1.0708 -0.263993,0.088 2.020687,1.76559 4.810202,3.53203 0.800365,0.50683 2.050521,1.10034 2.778125,1.31892 2.112587,0.63463 9.953001,1.8029 12.964584,1.93181 0.436563,0.0187 2.382258,-0.19973 4.323768,-0.48537 z m 47.080844,0.19105 c 0.42441,-0.51504 2.03014,-3.84342 2.81549,-5.83599 0.47154,-1.19636 0.68274,-2.17356 0.62905,-2.91042 l -0.0808,-1.10932 -0.66124,1.058 c -0.60915,0.97466 -3.04582,7.15621 -3.36364,8.53315 -0.14916,0.64621 0.22374,0.79543 0.66118,0.26458 z m -2.16001,-1.45926 c 0.16318,-0.10691 0.63,-0.84923 1.03739,-1.6496 0.40738,-0.80036 0.86273,-1.61455 1.01189,-1.80931 0.41989,-0.5483 1.17893,-2.85611 1.37969,-4.1949 0.28321,-1.88856 -0.38418,-1.33528 -1.5236,1.26312 -1.12056,2.55537 -2.59893,6.22011 -2.59893,6.44249 0,0.20723 0.33659,0.18209 0.69356,-0.0518 z m -0.58561,-3.08169 c 1.2861,-2.68796 1.92541,-5.44707 1.26213,-5.44707 -0.3977,0 -3.55037,7.62051 -3.31214,8.00597 0.26489,0.42859 1.14806,-0.67383 2.05001,-2.5589 z m -3.46475,1.35432 c 0.23886,-0.46655 0.72623,-1.34246 1.08305,-1.94647 0.75616,-1.28002 1.74833,-4.33497 1.73617,-5.34582 -0.008,-0.68438 -0.0175,-0.68812 -0.42377,-0.17056 -0.74164,0.94486 -3.53657,7.51816 -3.53657,8.31754 0,0.51567 0.71291,-0.0183 1.14112,-0.85469 z m -37.621843,-0.65021 c 1.545445,-0.43256 3.152789,-0.96294 3.571875,-1.17863 4.036568,-2.0775 6.032338,-3.17072 7.011708,-3.84082 0.63723,-0.43601 1.54044,-0.98848 2.00714,-1.22774 1.3496,-0.69187 4.35343,-2.86001 4.1895,-3.02394 -0.15231,-0.15231 -2.07197,0.8177 -2.78908,1.40933 -0.21828,0.18009 -1.67901,1.06229 -3.24606,1.96046 -4.21485,2.41575 -9.186716,4.32265 -13.554982,5.19886 -2.174205,0.43612 -7.941646,0.48991 -10.42937,0.0973 -1.724358,-0.27215 -2.266108,-0.41262 -6.636255,-1.72064 -2.48008,-0.7423 -5.788147,-2.34421 -9.007386,-4.36175 -2.214986,-1.38816 -2.634281,-1.54011 -2.634281,-0.95465 0,0.32568 2.217433,1.96985 5.622459,4.1689 2.260145,1.45966 6.838868,3.00857 12.369208,4.18432 0.654844,0.13923 3.33375,0.21316 5.953125,0.16431 4.320075,-0.0806 5.023533,-0.16189 7.572399,-0.87529 z m 36.871193,-2.65403 c 1.03234,-1.79448 1.59909,-4.2909 0.97415,-4.2909 -0.46787,0 -3.10132,5.84801 -2.77872,6.17062 0.32899,0.32898 0.84042,-0.20374 1.80457,-1.87972 z m -44.195878,0.99486 c 2.764562,-0.19933 3.807124,-0.37429 4.166132,-0.69919 0.457541,-0.41407 1.200922,-0.7541 5.375738,-2.45893 2.039689,-0.83293 6.127978,-3.02197 6.737428,-3.60751 0.78565,-0.75481 -0.32992,-0.37923 -3.14366,1.0584 -6.021939,3.0768 -9.787267,4.36101 -13.409117,4.57334 -3.040309,0.17823 -5.08263,-0.12197 -8.724358,-1.28242 -4.306665,-1.37232 -10.461816,-4.9803 -16.040442,-9.40244 -0.974497,-0.77248 -1.897232,-1.40451 -2.050521,-1.40451 -1.324679,0 2.715588,3.78817 7.257937,6.80507 5.609577,3.72572 11.155879,6.04858 15.878982,6.65032 0.145521,0.0186 1.923868,-0.0859 3.951881,-0.23213 z m 41.394468,-1.25481 c 0.59841,-0.61663 1.08803,-1.3521 1.08803,-1.63439 0,-0.28229 0.12847,-0.59265 0.28549,-0.68969 0.60231,-0.37225 -0.0225,-2.82551 -1.07963,-4.23902 -0.93114,-1.24504 -1.16223,-1.39062 -3.21343,-2.02437 -1.89705,-0.58613 -2.45376,-0.6533 -3.92993,-0.47422 -0.94589,0.11475 -1.90469,0.28531 -2.13067,0.37902 -0.61136,0.25354 -1.28803,1.54395 -1.5528,2.96122 -0.33262,1.7804 0.60641,3.72903 2.47789,5.14201 2.06525,1.55927 2.91918,1.85754 5.07848,1.77381 1.83618,-0.0712 1.9187,-0.10431 2.97657,-1.19437 z m -5.85729,-0.10798 c -1.46015,-0.79221 -1.9072,-1.27714 -1.17739,-1.27714 0.18918,0 0.45707,0.1059 0.59531,0.23533 0.13825,0.12943 0.99915,0.50391 1.91313,0.83216 0.91397,0.32826 1.72467,0.69861 1.80155,0.82301 0.33782,0.54661 -1.74701,0.13841 -3.1326,-0.61336 z m 2.71198,-0.78182 c -0.65484,-0.30327 -1.77901,-0.75615 -2.49816,-1.0064 -0.71915,-0.25025 -1.35415,-0.59483 -1.41111,-0.76571 -0.14483,-0.43449 0.72001,-0.39116 0.88717,0.0445 0.084,0.2188 0.58477,0.36193 1.30442,0.37281 1.23714,0.0187 4.09893,1.16277 4.09893,1.63864 0,0.44437 -1.08923,0.31456 -2.38125,-0.28379 z m -0.26458,-2.10483 c -1.38245,-0.56968 -3.22792,-1.28728 -4.10104,-1.59467 -0.87313,-0.30739 -1.76609,-0.73619 -1.98438,-0.95289 -0.35186,-0.34931 -0.29184,-0.37371 0.52917,-0.2151 0.50932,0.0984 1.40229,0.39145 1.98438,0.65123 0.58208,0.25978 1.71317,0.67574 2.51354,0.92436 1.6308,0.50657 4.16952,1.68554 4.38688,2.03723 0.28326,0.45833 -0.86482,0.16509 -3.32855,-0.85016 z m -5.35781,-0.12932 c -1.32363,-0.71808 -0.6973,-1.24351 0.71515,-0.59995 0.69219,0.31538 0.93417,1.0242 0.34318,1.00527 -0.1819,-0.006 -0.65815,-0.18822 -1.05833,-0.40532 z m 7.87135,-0.81802 c -0.58208,-0.2271 -2.42755,-0.93984 -4.10104,-1.58386 -4.41625,-1.69955 -4.35147,-1.66782 -4.04019,-1.9791 0.1833,-0.1833 0.43679,-0.18695 0.76785,-0.0111 0.27182,0.14442 1.56578,0.57977 2.87547,0.96747 2.82485,0.8362 5.26674,1.90532 5.86716,2.56877 0.55066,0.60847 0.12366,0.62026 -1.36925,0.0378 z m -1.5875,-2.83654 c -0.7276,-0.33022 -2.14136,-0.82129 -3.14169,-1.09125 -1.44814,-0.39082 -1.706,-0.53256 -1.26537,-0.69556 0.91059,-0.33685 5.46481,1.29595 5.99145,2.14808 0.24175,0.39115 -0.0964,0.31404 -1.58439,-0.36127 z m -36.247915,4.87567 c 2.779509,-0.8945 4.422243,-1.56623 5.399492,-2.20791 0.52278,-0.34327 1.75418,-1.01787 2.736446,-1.49911 1.664407,-0.81545 2.233337,-1.33501 1.455207,-1.32892 -0.315634,0.002 -1.907076,0.7558 -3.902603,1.84735 -3.478377,1.90268 -8.037127,2.91262 -11.618151,2.57386 -3.242453,-0.30673 -7.547515,-2.21032 -11.797475,-5.21654 -5.730476,-4.05346 -7.223954,-5.18093 -10.302225,-7.77745 -0.671324,-0.56626 -1.289658,-0.9605 -1.374076,-0.87608 -0.279961,0.27996 2.212536,3.24089 4.314179,5.12497 4.610733,4.13343 9.099313,6.97399 13.450005,8.51172 3.121062,1.10313 4.229632,1.30272 7.405867,1.33343 1.946135,0.0188 3.065654,-0.10953 4.233334,-0.48532 z M 89.70576,97.80135 c 0.828064,-0.29104 1.739646,-0.52917 2.025735,-0.52917 0.286089,0 0.604946,-0.13718 0.708573,-0.30485 0.13731,-0.22218 -0.12754,-0.25569 -0.976575,-0.12357 -5.029655,0.78268 -8.668761,0.32261 -11.748315,-1.48527 C 73.27719,91.57902 71.216957,89.94368 62.571466,81.75042 61.291594,80.53749 60.130735,79.5451 59.991778,79.5451 c -0.416875,0 -0.288163,0.41322 0.34267,1.10011 0.327422,0.35652 0.919102,1.11805 1.314844,1.69228 0.804371,1.16717 5.701864,6.03499 8.540885,8.48914 1.018646,0.88055 2.62599,2.05798 3.571876,2.61651 0.945885,0.55853 2.439363,1.45628 3.318838,1.99501 1.515258,0.92818 4.926796,2.45088 6.07387,2.71099 1.531755,0.34734 5.114375,0.15714 6.550999,-0.34779 z m 80.4442,-2.17769 c 0.37172,-0.7668 0.75608,-1.83444 0.85415,-2.37252 0.18136,-0.99509 0.76672,-2.03963 1.00787,-1.79848 0.073,0.073 0.0415,0.90628 -0.07,1.85167 -0.11152,0.94539 -0.12497,2.00994 -0.0299,2.36566 l 0.17287,0.64676 0.44415,-0.6341 c 0.24428,-0.34876 0.69809,-1.41371 1.00847,-2.36656 0.31039,-0.95285 0.7288,-1.90679 0.92982,-2.11988 0.3127,-0.33147 0.36548,-0.0736 0.36548,1.78594 0,2.0432 0.21815,2.60913 0.71029,1.84264 0.40382,-0.62896 1.66902,-4.0366 1.66999,-4.49792 5.3e-4,-0.25466 0.17956,-0.46302 0.39784,-0.46302 0.31208,0 0.39688,0.36748 0.39688,1.71979 0,0.94589 0.10523,1.71979 0.23385,1.71979 0.24968,0 1.21223,-2.25809 1.52059,-3.5672 l 0.18587,-0.78908 0.31031,0.92137 0.31032,0.92137 0.28475,-0.92604 c 0.99156,-3.2247 0.81748,-7.08126 -0.47316,-10.48221 -0.12094,-0.31869 -0.53575,-0.62712 -0.96186,-0.71518 -0.7243,-0.14969 -5.97607,0.64882 -7.66124,1.16486 -1.12404,0.34421 -11.73836,0.33284 -15.46834,-0.0166 -5.55647,-0.52051 -7.02615,-0.78774 -14.13213,-2.56966 -2.61938,-0.65684 -5.73745,-1.41329 -6.92905,-1.681 -4.76197,-1.06983 -6.81535,-1.98947 -8.79663,-3.93972 -1.8055,-1.77722 -2.53309,-3.42468 -2.5197,-5.70531 0.009,-1.4781 0.15383,-2.12729 0.71884,-3.21504 0.38938,-0.74963 1.01355,-1.60334 1.38705,-1.89713 0.40591,-0.3193 0.56715,-0.60336 0.40082,-0.70616 -0.41476,-0.25633 -1.89897,0.75783 -2.86094,1.95486 -0.78352,0.97499 -0.84639,1.19983 -0.83559,2.98806 0.016,2.65501 0.44793,4.05742 1.82517,5.92647 1.75183,2.37741 3.84161,3.69045 7.32492,4.60237 1.14566,0.29993 2.32115,0.65464 2.61219,0.78823 0.64369,0.29547 4.9555,1.3323 5.54057,1.3323 0.23086,0 0.62648,0.10931 0.87917,0.24291 0.25268,0.1336 1.41193,0.44288 2.57609,0.6873 1.16417,0.24442 2.95011,0.66095 3.96875,0.92562 2.49303,0.64776 4.63344,0.97489 8.73125,1.33442 1.89177,0.16598 3.49374,0.35405 3.55993,0.41795 0.0662,0.0639 -0.0395,0.49858 -0.23493,0.96597 -0.1954,0.46738 -0.43469,1.7446 -0.53175,2.83827 -0.0971,1.09366 -0.37519,2.34381 -0.61805,2.77812 -0.37746,0.67499 -1.77832,6.81762 -1.77832,7.79772 0,0.7973 0.78047,-0.40245 1.72127,-2.64598 0.54839,-1.30774 1.04509,-2.37771 1.10377,-2.37771 0.12855,0 -0.20197,4.55358 -0.34916,4.81036 -0.0568,0.0991 0.0213,0.25712 0.17346,0.35118 0.16108,0.0995 0.71952,-0.74974 1.33627,-2.03224 l 1.05954,-2.20326 -0.12845,2.3151 c -0.0942,1.69868 -0.0437,2.31511 0.18986,2.31511 0.33226,0 1.25472,-1.67667 1.67401,-3.04271 0.134,-0.43656 0.41936,-0.79375 0.63413,-0.79375 0.30917,0 0.39051,0.40857 0.39051,1.96164 0,1.20277 0.11371,1.99982 0.29394,2.06031 0.26927,0.0904 1.42585,-2.1797 1.42585,-2.79861 0,-0.14634 0.12556,-0.34367 0.27902,-0.43851 0.18805,-0.11622 0.25275,0.41786 0.19844,1.63803 -0.0465,1.04436 0.0314,1.84923 0.184,1.90206 0.34654,0.11995 1.06513,-1.18809 1.66111,-3.02367 0.26241,-0.80822 0.59132,-1.4495 0.73092,-1.42506 0.13959,0.0245 0.20518,0.18136 0.14575,0.34871 -0.0594,0.16734 -0.20085,1.19082 -0.31427,2.27439 -0.30288,2.89352 0.0217,3.10196 1.16335,0.74698 z m -81.15027,0.19618 c 0.714352,-0.21671 1.596478,-0.39712 1.96028,-0.40093 0.363802,-0.004 0.839287,-0.11934 1.056632,-0.25674 0.256355,-0.16207 -0.951926,-0.23073 -3.439583,-0.19544 -3.481761,0.0494 -3.953542,-2.6e-4 -5.125162,-0.53987 -0.709721,-0.32684 -1.434124,-0.59426 -1.609784,-0.59426 -0.516659,0 -3.241929,-2.0132 -6.090597,-4.49922 -3.600659,-3.14228 -4.72757,-4.26912 -7.029252,-7.02887 -1.083723,-1.2994 -2.506459,-2.96625 -3.161641,-3.70412 -1.524447,-1.71685 -3.879964,-4.44273 -4.500841,-5.20852 -0.264718,-0.32651 -0.56194,-0.51334 -0.660492,-0.41519 -0.211691,0.21084 1.386631,3.05909 2.593951,4.6225 5.875859,7.60889 8.940575,10.8892 13.122323,14.04543 1.597221,1.20553 7.409929,4.20794 8.494446,4.3876 1.465831,0.24283 3.159254,0.1609 4.38972,-0.21237 z m 66.45489,-1.7888 c 0.66866,-1.34448 2.17972,-5.23384 2.18202,-5.61636 8e-4,-0.14885 0.18784,-0.62774 0.41542,-1.06422 0.27294,-0.52346 0.4193,-1.53984 0.42998,-2.98593 0.0152,-2.058 -0.11648,-2.72776 -0.46729,-2.37695 -0.40205,0.40205 -1.6495,4.52005 -3.02712,9.99294 -0.31135,1.23692 -0.625,2.45731 -0.69698,2.71198 -0.26599,0.941 0.61639,0.43956 1.16397,-0.66146 z m -2.79344,0.52916 c 0.86078,-0.67949 2.75568,-6.73033 3.01953,-9.64206 0.35799,-3.95055 -0.67949,-1.85989 -2.91384,5.87175 -1.16513,4.03173 -1.1816,4.61962 -0.10569,3.77031 z m -56.93867,-0.33073 0.661458,-0.37812 -0.809326,-0.009 c -0.445129,-0.005 -1.040442,0.16544 -1.322916,0.37909 -0.495673,0.37491 -0.490514,0.38843 0.147867,0.3875 0.363802,-5.3e-4 0.959115,-0.17112 1.322917,-0.37909 z m 9.72344,-0.65855 c 1.08624,-0.6623 1.09521,-0.90986 0.0252,-0.69586 -0.96257,0.19251 -1.60582,0.64762 -1.39575,0.98752 0.20883,0.3379 0.40722,0.29568 1.37053,-0.29166 z M 89.705509,93.39838 c 1.028644,-0.19449 0.629571,-0.62411 -0.579734,-0.62411 -1.526686,0 -4.903306,-0.92317 -5.889959,-1.61033 -0.982993,-0.6846 -6.713455,-5.51043 -8.177683,-6.88673 C 72.82139,82.1748 65.645562,73.09563 62.74427,68.69718 c -0.527936,-0.80036 -1.166929,-1.69333 -1.419987,-1.98437 -0.25306,-0.29105 -0.772639,-1.0987 -1.15462,-1.79479 -1.059765,-1.93123 -1.521042,-2.57123 -1.85002,-2.56679 -0.193032,0.003 -0.205287,0.0735 -0.03431,0.19844 0.146299,0.10691 0.427249,0.67064 0.624338,1.25272 0.748196,2.20973 2.495356,5.25199 5.121351,8.91761 2.603479,3.63418 3.537549,4.88081 6.373221,8.50581 2.33236,2.98159 8.142586,8.63804 8.872873,8.63804 0.164254,0 1.063673,0.649 1.998713,1.44221 2.707704,2.29702 3.373467,2.57525 5.715387,2.38854 1.091406,-0.087 2.312837,-0.22031 2.714289,-0.29622 z m 61.312831,-1.41381 c 1.54031,-3.05133 2.66932,-7.9724 2.14642,-9.35568 -0.16518,-0.43696 -0.21707,-0.41663 -0.49531,0.19406 -0.41352,0.90755 -2.62815,8.34732 -2.87799,9.66819 -0.0669,0.35361 -0.18195,0.74056 -0.2557,0.8599 -0.0738,0.11934 0.0498,0.21698 0.27458,0.21698 0.23395,0 0.75042,-0.67699 1.208,-1.58345 z m -2.16653,-0.73166 c 1.4556,-2.99008 2.49445,-8.00364 1.65842,-8.00364 -0.29725,0 -1.07244,2.02892 -1.87013,4.89479 -0.32404,1.16416 -0.68111,2.29526 -0.7935,2.51354 -0.11239,0.21828 -0.28817,0.90289 -0.39062,1.52135 -0.29106,1.75706 0.2713,1.38398 1.39583,-0.92604 z m -3.00718,0.5994 c 0.76205,-1.30034 2.11624,-5.44372 2.40201,-7.34937 0.0995,-0.66333 0.0691,-1.40584 -0.0676,-1.65002 -0.20332,-0.36331 -0.35234,-0.20249 -0.82022,0.88513 -0.31447,0.73101 -0.57177,1.46763 -0.57177,1.63694 0,0.16932 -0.16782,0.68303 -0.37295,1.14158 -0.43686,0.97661 -1.74371,5.57623 -1.74371,6.13722 0,0.71558 0.47531,0.39116 1.17424,-0.80148 z m -2.14783,-2.2001 c 1.23064,-2.585 1.70304,-4.15648 1.94467,-6.46909 0.19544,-1.87046 -0.45529,-1.63979 -1.321,0.46826 -0.38963,0.94877 -0.70842,1.88086 -0.70842,2.07132 0,0.19047 -0.41671,1.64572 -0.92604,3.23389 -1.02398,3.19299 -1.09208,3.6002 -0.56853,3.3993 0.19662,-0.0755 0.90732,-1.29211 1.57932,-2.70368 z m -42.29824,2.02125 c 0.66021,-0.30081 0.91597,-0.75128 0.42655,-0.75128 -0.52578,0 -1.60472,0.52928 -1.60472,0.7872 0,0.35337 0.34699,0.34279 1.17817,-0.0359 z m -7.870571,-0.54498 0.739273,-0.31864 -0.980985,-0.0914 c -1.079535,-0.10061 -2.172754,0.33923 -1.907977,0.76764 0.179276,0.29008 0.941075,0.16336 2.149689,-0.35758 z m 47.755921,-1.59536 c 1.31452,-2.59398 1.50395,-3.14528 1.80146,-5.24302 0.24233,-1.70867 0.15998,-2.62833 -0.23535,-2.62833 -0.0969,0 -0.45484,0.8632 -0.79532,1.91822 -0.34049,1.05503 -0.72188,2.15636 -0.84753,2.4474 -0.12566,0.29104 -0.47923,1.42214 -0.78572,2.51354 -0.3065,1.09141 -0.62085,2.19274 -0.69856,2.4474 -0.0872,0.28555 -0.001,0.46302 0.22381,0.46302 0.20082,0 0.80256,-0.8632 1.33721,-1.91823 z m -51.646857,0.892 c 0,-0.12787 -0.386953,-0.38802 -0.859896,-0.5781 -2.278221,-0.91568 -5.445236,-2.4739 -6.211602,-3.05621 -1.124214,-0.85422 -6.03704,-6.45462 -8.538919,-9.73398 -1.091406,-1.43057 -3.419999,-4.40274 -5.174652,-6.60482 -1.754651,-2.20209 -3.862235,-5.01582 -4.683517,-6.25275 -0.821283,-1.23692 -1.719919,-2.54661 -1.996967,-2.91041 -0.27705,-0.3638 -0.688184,-1.01865 -0.913632,-1.45521 -0.523979,-1.01465 -1.518733,-2.1618 -1.518733,-1.7514 0,0.17267 0.698564,1.47081 1.552366,2.88475 0.8538,1.41395 1.636298,2.95381 1.738884,3.42192 0.102585,0.46811 0.475584,1.27707 0.828885,1.79769 0.3533,0.52062 0.642366,0.98508 0.642366,1.03212 0,0.16581 2.810115,4.29948 5.411814,7.96075 3.520363,4.95409 9.750457,11.77396 10.755752,11.77396 0.137147,0 0.85516,0.41672 1.595586,0.92604 0.740425,0.50933 1.481695,0.92784 1.647266,0.93004 0.165574,0.002 1.313072,0.41391 2.549999,0.91491 2.28101,0.9239 3.175,1.12119 3.175,0.7007 z M 139.1288,88.24719 c 0.59339,-1.18021 1.31611,-2.91381 1.60602,-3.85246 0.53364,-1.72771 0.58365,-3.42306 0.0991,-3.35998 -0.34039,0.0443 -1.89239,3.9188 -2.52982,6.31556 -0.27091,1.01864 -0.57056,2.11997 -0.66588,2.44739 -0.10564,0.36287 -0.0591,0.59532 0.11918,0.59532 0.16087,0 0.77799,-0.96563 1.37139,-2.14583 z m -2.09506,-1.08363 c 0.44901,-1.06146 0.93827,-2.08055 1.08724,-2.26465 0.35385,-0.43732 0.41009,-3.19791 0.0671,-3.29474 -0.30376,-0.0858 -2.76284,7.00028 -2.77204,7.98782 l -0.006,0.65419 0.40369,-0.57635 c 0.22203,-0.31699 0.77106,-1.44481 1.22008,-2.50627 z m -38.019554,1.50125 c 0.364487,-0.27568 0.402892,-0.38741 0.132292,-0.38485 -0.749729,0.007 -1.563421,0.32526 -1.421043,0.55564 0.209761,0.33939 0.700146,0.27441 1.288751,-0.17079 z M 87.647013,86.92975 c -1.015531,-0.74063 -2.176391,-1.54171 -2.579687,-1.78018 -0.403299,-0.23848 -2.308299,-2.39118 -4.233334,-4.78378 -1.925037,-2.3926 -4.398891,-5.43129 -5.497457,-6.75263 -1.098566,-1.32134 -2.170128,-2.6534 -2.38125,-2.96014 -0.211122,-0.30674 -1.070525,-1.31877 -1.909784,-2.24896 -2.83193,-3.13875 -4.70232,-5.58058 -6.767428,-8.835 -0.554045,-0.87313 -1.444911,-2.26273 -1.9797,-3.08801 -0.534786,-0.82527 -1.044474,-1.68848 -1.132639,-1.91823 -0.190677,-0.49689 -0.632931,-0.55771 -0.632655,-0.087 1.05e-4,0.1819 0.590658,1.32327 1.312338,2.53638 0.72168,1.21312 1.391714,2.46328 1.488964,2.77813 0.239012,0.77382 2.641293,4.3354 4.865246,7.21313 1.001056,1.29534 2.744962,3.72439 3.875344,5.39788 4.579994,6.78052 7.191291,9.858 10.815207,12.74601 1.018646,0.81179 2.14974,1.56587 2.513542,1.67574 0.363802,0.10987 0.959114,0.40836 1.322916,0.66332 0.688171,0.48228 1.352109,0.70699 2.243294,0.75924 0.32213,0.0189 -0.186748,-0.4873 -1.322917,-1.31591 z m 44.209207,0.95806 c 1.56684,-0.46656 3.02458,-1.7131 3.02458,-2.58634 0,-0.3429 0.13412,-0.75757 0.29805,-0.9215 0.16392,-0.16392 0.33944,-0.81281 0.39005,-1.44198 0.0506,-0.62916 0.15217,-1.39309 0.22571,-1.69762 0.0986,-0.40833 -0.22956,-0.92928 -1.25004,-1.98438 -1.22926,-1.27095 -1.62007,-1.49801 -3.50033,-2.03373 -1.16411,-0.33168 -2.3233,-0.71863 -2.57599,-0.8599 -0.25269,-0.14126 -1.22508,-0.25684 -2.16088,-0.25684 -3.08348,0 -5.17183,1.41174 -5.84103,3.94857 -0.57968,2.19743 0.19444,3.79951 2.90135,6.00455 2.41291,1.96554 5.67206,2.66785 8.48853,1.82917 z m -3.32542,-0.79635 c -2.23856,-0.64645 -5.10731,-1.69993 -5.38484,-1.97745 -0.39887,-0.39888 0.18347,-0.35717 1.2531,0.0897 0.48309,0.20185 1.402,0.44756 2.04202,0.54602 1.52591,0.23475 5.06339,1.22729 5.38379,1.51058 0.38411,0.33962 -1.94701,0.2201 -3.29407,-0.1689 z m 3.70417,-0.98285 c -0.50932,-0.12764 -1.16417,-0.33839 -1.45521,-0.46834 -0.29104,-0.12994 -0.96249,-0.30728 -1.49211,-0.39409 -0.96475,-0.15813 -6.83173,-1.78215 -7.70216,-2.13201 -0.53933,-0.21678 -0.62669,-0.92324 -0.11417,-0.92324 0.19187,0 0.99554,0.19545 1.78594,0.43433 0.7904,0.23889 2.15146,0.5875 3.02459,0.7747 0.87312,0.1872 2.42093,0.60194 3.43958,0.92164 1.01864,0.3197 2.3581,0.71253 2.97656,0.87296 1.08718,0.28201 1.47418,0.78288 0.79375,1.02732 -0.1819,0.0653 -0.74745,0.0144 -1.25677,-0.11327 z m -2.91042,-2.8806 c -1.96453,-0.56885 -4.52437,-1.2945 -5.68854,-1.61256 -2.33917,-0.63909 -3.18365,-1.13759 -2.42214,-1.42981 0.24746,-0.095 0.89367,-0.052 1.43603,0.0954 0.54236,0.14746 2.59346,0.69059 4.55799,1.20694 3.12698,0.8219 5.35761,1.51538 6.94531,2.15925 0.25466,0.10327 0.46302,0.29409 0.46302,0.42404 0,0.45953 -1.76212,0.17871 -5.29167,-0.84331 z m 1.85209,-1.70858 c -1.52797,-0.49594 -4.29617,-1.27995 -6.15157,-1.74224 -1.85539,-0.46229 -3.37343,-0.93949 -3.37343,-1.06044 0,-0.82602 5.25761,0.0514 10.17971,1.69882 2.95501,0.98905 3.39382,1.22814 3.03892,1.65576 -0.41839,0.50413 -0.4586,0.49812 -3.69363,-0.5519 z m 1.5875,-1.99066 c -3.84101,-0.91274 -8.72619,-2.26485 -8.72848,-2.41585 -0.004,-0.28168 2.10561,-0.36989 3.43446,-0.14358 2.30609,0.39273 5.48173,1.53379 6.09989,2.19179 0.6505,0.69242 0.6198,0.70643 -0.80587,0.36764 z m -39.158337,6.93534 c 0,-0.12361 -0.803672,-0.99536 -1.785937,-1.93722 -0.982266,-0.94186 -2.917032,-3.17274 -4.29948,-4.9575 -1.382448,-1.78477 -2.840963,-3.63741 -3.241146,-4.11698 -1.389308,-1.66494 -0.719074,-1.54423 0.793751,0.14296 5.221327,5.82312 11.972396,11.83674 11.972396,10.66461 0,-0.0904 -0.701326,-0.89403 -1.558499,-1.78594 -3.490225,-3.63165 -8.193654,-9.67038 -8.218189,-10.55134 -0.02331,-0.83699 0.460666,-0.48947 2.082506,1.49533 2.30871,2.82539 6.264995,6.44595 7.901525,7.231 0.768882,0.36884 1.450994,0.61759 1.515803,0.55278 0.06481,-0.0648 -0.625398,-0.94385 -1.533797,-1.95342 -1.521299,-1.69073 -3.523771,-4.2344 -4.023614,-5.11105 -0.435613,-0.76401 0.415964,-0.0929 2.842072,2.23975 4.286576,4.12146 7.077606,6.15717 7.077606,5.16223 0,-0.13151 -1.10132,-1.3961 -2.44739,-2.81019 -2.440387,-2.56371 -7.799665,-10.02942 -7.384042,-10.28629 0.116486,-0.072 0.874998,0.72617 1.685584,1.7737 1.657628,2.14217 8.326288,9.18064 8.698278,9.18064 0.48883,0 0.20449,-0.60936 -1.39487,-2.98925 -3.176085,-4.72611 -6.280259,-9.79534 -6.138601,-10.02454 0.130522,-0.21119 2.047155,1.96281 3.775551,4.28254 0.37949,0.50932 1.96891,2.37127 3.53204,4.13766 4.44252,5.02017 4.89378,4.63577 1.07574,-0.91634 -1.61417,-2.3473 -4.1923,-7.13408 -3.96487,-7.36152 0.064,-0.064 0.81552,0.68497 1.67016,1.66427 2.39357,2.74269 6.25896,6.72259 6.39604,6.58551 0.0675,-0.0675 -0.6054,-1.18601 -1.49543,-2.48549 -0.89003,-1.29948 -2.02171,-3.11924 -2.51484,-4.04391 -0.49313,-0.92467 -1.26684,-2.33606 -1.71935,-3.13643 -1.53576,-2.71633 -1.0039,-2.50899 1.69675,0.66146 2.49951,2.93432 5.64744,6.21771 5.96119,6.21771 0.12842,0 -0.83639,-1.61639 -2.14402,-3.59198 -1.30763,-1.97559 -2.44995,-3.88059 -2.53848,-4.23334 -0.0885,-0.35274 -0.24207,-0.64135 -0.34119,-0.64135 -0.0991,0 -0.63038,-0.83344 -1.18058,-1.85208 -0.55019,-1.01865 -0.90267,-1.84449 -0.78328,-1.83522 0.41029,0.0319 2.20145,2.40086 2.20145,2.91162 0,0.28111 0.16694,0.5111 0.37098,0.5111 0.20404,0 1.67367,1.36922 3.26584,3.04271 1.59217,1.67349 2.97304,3.0427 3.0686,3.0427 0.46365,0 0.0627,-1.01487 -0.97971,-2.47994 -2.05482,-2.88791 -4.56159,-6.65231 -4.74071,-7.1191 -0.32062,-0.83552 0.30061,-0.46857 1.31693,0.77788 0.55295,0.67815 1.56109,1.83901 2.24031,2.57969 0.67922,0.74067 1.59453,1.76091 2.03401,2.26719 0.43948,0.50627 0.88604,0.83351 0.99236,0.7272 0.28369,-0.28368 -0.33809,-1.35488 -2.3386,-4.02896 -1.76839,-2.3638 -4.92186,-8.20155 -4.60274,-8.52067 0.0916,-0.0916 0.16648,0.032 0.16648,0.27449 0,0.24254 0.11221,0.44097 0.24937,0.44097 0.13715,0 1.2601,1.27993 2.49545,2.84427 2.20108,2.7873 3.67103,4.29948 4.17938,4.29948 0.44848,0 -0.0617,-1.11331 -1.87943,-4.10104 -2.91069,-4.78426 -3.06112,-5.75971 -0.37844,-2.4539 2.33252,2.87431 2.56548,3.14881 3.13502,3.69398 0.90754,0.86869 0.74331,0.0441 -0.37135,-1.86442 -0.59026,-1.01068 -1.43289,-2.65288 -1.87249,-3.64934 -0.43961,-0.99645 -1.09598,-2.37734 -1.45861,-3.06864 -0.36263,-0.6913 -0.65932,-1.43544 -0.65932,-1.65365 0,-0.2182 -0.11906,-0.39674 -0.26458,-0.39674 -0.14552,0 -0.26459,-0.19833 -0.26459,-0.44073 0,-0.24241 0.45312,0.20407 1.00693,0.99218 2.04522,2.91048 5.0339,6.70862 6.61244,8.40336 0.96825,1.03953 0.30327,-0.90294 -1.02758,-3.00168 -1.06593,-1.68095 -2.93072,-5.67263 -2.83896,-6.07695 0.046,-0.20268 1.08889,1.05195 2.31754,2.78807 3.01781,4.26426 3.64974,4.17643 1.25614,-0.17459 -0.6332,-1.15103 -1.36883,-2.74763 -1.63472,-3.54799 -0.26589,-0.80036 -0.81203,-2.40771 -1.21365,-3.57188 -0.92076,-2.66899 -1.20077,-3.96794 -0.80226,-3.72165 0.16108,0.0996 0.29287,0.32895 0.29287,0.50977 0,0.18082 0.8248,1.95785 1.83288,3.94895 1.78464,3.52492 4.29442,7.33934 4.47421,6.8 0.0492,-0.14747 -0.47129,-1.42738 -1.15655,-2.84426 -0.73714,-1.52415 -1.55915,-3.81865 -2.01296,-5.61885 -0.81958,-3.25117 -0.87224,-4.53272 -0.11414,-2.77812 0.93888,2.17303 3.44133,7.16511 3.88391,7.74793 0.25234,0.33229 0.51854,0.50751 0.59156,0.38936 0.073,-0.11815 -0.33013,-1.99737 -0.8959,-4.17605 -0.56576,-2.17869 -1.03274,-4.07605 -1.03771,-4.21638 -0.0188,-0.53128 0.69388,0.56375 1.02709,1.57805 0.34657,1.05494 0.80156,2.1981 1.4743,3.70417 0.195,0.43656 0.66539,1.49921 1.0453,2.36144 0.48808,1.10774 0.77333,1.48512 0.97219,1.28626 0.29221,-0.29221 -0.19916,-3.317 -0.97644,-6.01082 -0.50096,-1.7362 -0.50289,-2.43679 -0.006,-2.02405 0.204,0.16931 0.44777,0.63037 0.54171,1.02459 0.0939,0.39421 0.52823,1.82937 0.9651,3.18923 2.30138,7.16364 2.79125,7.13707 1.6821,-0.0912 -0.56257,-3.66628 -0.57868,-4.23334 -0.12024,-4.23334 0.2793,0 0.57313,0.70542 0.99188,2.38125 0.72442,2.89918 1.8324,6.47445 2.17055,7.00405 0.5244,0.82127 0.58945,-0.54952 0.22532,-4.74819 -0.20224,-2.33213 -0.2779,-4.24023 -0.16814,-4.24023 0.19977,0 0.3241,0.41424 1.31032,4.36562 0.29056,1.16417 0.65522,2.62053 0.81035,3.23635 0.59527,2.36303 1.00749,0.51171 1.08907,-4.89111 0.0313,-2.07321 0.16111,-3.53344 0.31753,-3.57188 0.14552,-0.0358 0.29543,0.53029 0.33313,1.25789 0.0377,0.72761 0.18653,1.96987 0.33073,2.76058 0.1442,0.79071 0.26401,2.04086 0.26623,2.77812 0.005,1.5634 0.40625,2.50265 0.6237,1.45897 0.26046,-1.25017 0.67484,-4.10292 0.82429,-5.67475 0.24605,-2.58787 0.43262,-3.57187 0.67724,-3.57187 0.12687,0 0.21505,0.32742 0.19596,0.7276 -0.0442,0.92746 0.26646,6.0211 0.50435,8.26823 0.15237,1.43936 0.21184,1.59036 0.36472,0.92604 0.10047,-0.43656 0.20418,-1.50812 0.23046,-2.38125 0.0686,-2.27943 1.1704,-8.49281 1.47787,-8.33437 0.14121,0.0728 0.26956,0.75598 0.28522,1.51827 0.0269,1.30999 0.3535,6.92523 0.47689,8.19977 0.0652,0.67365 0.41605,1.14613 0.42967,0.57866 0.0504,-2.09872 1.39084,-9.94599 1.75785,-10.29073 0.081,-0.0761 0.0544,1.52861 -0.059,3.5659 -0.23241,4.17431 -0.185,7.05848 0.12985,7.89904 0.18815,0.5023 0.24672,0.44583 0.50893,-0.49071 0.16296,-0.58208 0.29697,-1.45977 0.29778,-1.95041 0.002,-1.42537 0.79403,-6.3946 1.2489,-7.83917 0.68233,-2.16694 1.18548,-2.27377 0.6231,-0.13229 -0.13376,0.50932 -0.3117,1.72971 -0.39544,2.71198 -0.12317,1.44471 -0.0798,1.78594 0.22683,1.78594 0.2085,0 0.43895,-0.20836 0.5121,-0.46302 1.02714,-3.57552 1.35358,-4.59378 1.76362,-5.50109 0.26579,-0.58813 0.63963,-1.57039 0.83077,-2.18281 0.19113,-0.61243 0.43759,-1.1135 0.54768,-1.1135 0.25103,0 0.25423,-0.0414 -0.0818,1.06008 -0.1551,0.50836 -0.44616,1.75773 -0.6468,2.77638 -0.20063,1.01864 -0.48755,2.2688 -0.63759,2.77812 -0.79432,2.69646 -2.13712,8.6864 -2.07595,9.26042 0.0717,0.67284 0.39492,-0.0484 2.19359,-4.89479 0.89913,-2.42265 3.0284,-7.03968 3.4703,-7.52488 0.71604,-0.7862 0.58845,-0.004 -0.58368,3.57696 -1.29275,3.94976 -3.07584,10.7325 -2.87439,10.93395 0.22046,0.22046 0.56843,-0.34727 1.11957,-1.82666 0.84179,-2.25955 2.84387,-6.57188 3.2878,-7.08165 0.21984,-0.25243 0.46537,-0.63757 0.54563,-0.85585 0.1135,-0.3087 0.15057,-0.29156 0.16681,0.0771 0.0115,0.26071 -0.3821,1.63176 -0.87464,3.04679 -1.06,3.0453 -2.14052,7.15738 -1.93479,7.36311 0.19067,0.19067 0.77814,-0.9652 1.88121,-3.70135 0.49322,-1.22343 1.32041,-2.86376 1.8382,-3.64516 2.23706,-3.37597 2.31995,-3.47691 2.61381,-3.18304 0.20605,0.20604 -0.0503,1.01621 -0.91036,2.87665 -1.68644,3.64821 -2.37398,5.72786 -2.27661,6.88627 l 0.0837,0.99522 1.12645,-2.24896 c 1.03279,-2.06199 2.97188,-4.89281 2.97188,-4.33859 0,0.12859 -0.54331,1.81142 -1.20734,3.73962 -1.10981,3.22262 -1.24407,4.03855 -0.66455,4.03855 0.11744,0 0.57507,-0.80367 1.01694,-1.78593 0.96313,-2.14101 4.11658,-6.48334 4.2406,-5.83935 0.046,0.23893 -0.21191,1.01057 -0.57316,1.71475 -1.2113,2.36118 -2.04927,4.63665 -1.96752,5.3427 0.077,0.6653 0.12713,0.63365 1.00711,-0.63621 1.27612,-1.84153 3.26919,-4.31957 3.48857,-4.33744 0.0997,-0.008 -0.27822,0.9675 -0.83983,2.16805 -1.09941,2.35023 -1.55391,3.7698 -1.15463,3.60637 0.31268,-0.12799 2.15368,-2.17761 3.12048,-3.47408 1.27783,-1.71357 1.1813,-1.09246 -0.28776,1.85164 -0.93023,1.86424 -1.30955,2.88033 -1.1012,2.94978 0.17482,0.0583 1.36603,-1.00594 2.64715,-2.36492 1.28112,-1.35898 2.32931,-2.3844 2.32931,-2.2787 0,0.10569 -0.60579,1.43242 -1.34619,2.94829 -0.74368,1.5226 -1.25968,2.89609 -1.15292,3.06884 0.13391,0.21666 0.28327,0.14883 0.48629,-0.22084 0.42587,-0.77544 4.9277,-5.44251 5.09166,-5.27854 0.0763,0.0763 -0.52953,1.29609 -1.34625,2.71069 -0.81673,1.41459 -1.4168,2.64014 -1.3335,2.72344 0.26419,0.2642 1.43033,-0.60273 3.32213,-2.46972 1.94655,-1.92102 2.6121,-2.12532 1.51297,-0.46443 -0.68877,1.04081 -1.79461,3.1127 -1.79461,3.36236 0,0.51769 0.98035,-0.15437 3.12054,-2.13926 1.3525,-1.25434 2.5276,-2.21212 2.61133,-2.1284 0.15167,0.15168 -0.0647,0.52986 -1.69698,2.96609 -0.86399,1.28954 -1.07508,1.97357 -0.60905,1.97357 0.27958,0 3.04844,-2.21641 4.57295,-3.66054 1.11002,-1.0515 1.63965,-0.9495 0.8208,0.15807 -0.29454,0.39839 -0.73562,1.1113 -0.98019,1.58424 -0.65969,1.27574 0.0289,1.14062 1.6856,-0.33072 1.37572,-1.22185 1.95168,-1.49345 1.68318,-0.79375 -0.39286,1.02376 1.38592,-0.0203 3.54234,-2.07925 0.61846,-0.5905 1.12448,-1.18538 1.12448,-1.32196 0,-0.14789 -0.81546,-0.17939 -2.0163,-0.0779 -2.16121,0.18269 -6.22787,-0.3854 -7.56171,-1.05633 -0.39295,-0.19766 -0.96395,-0.35938 -1.26889,-0.35938 -0.80987,0 -3.09825,-1.26783 -2.61978,-1.45144 0.21132,-0.0811 0.85722,0.0844 1.43534,0.36779 0.648,0.31763 1.14753,0.42129 1.30248,0.27028 0.45827,-0.4466 1.20386,-0.2737 1.20386,0.27917 0,0.56364 0.16999,0.62461 2.77812,0.99652 1.35477,0.19319 3.51374,0.22966 5.88494,0.0994 0.67726,-0.0372 1.87438,-1.27142 2.36503,-2.43833 0.18272,-0.43456 0.22462,-0.72361 0.0931,-0.64234 -0.13151,0.0813 -1.05047,0.035 -2.04214,-0.10294 -0.99167,-0.1379 -2.93412,-0.38903 -4.31657,-0.55806 -3.08909,-0.37772 -5.51331,-1.0227 -9.72344,-2.58698 -2.95471,-1.09782 -3.69175,-1.59629 -2.99604,-2.02627 0.24309,-0.15024 3.08104,0.79212 3.59388,1.19337 0.14691,0.11495 1.33753,0.46525 2.64583,0.77844 1.3083,0.3132 2.75391,0.7391 3.21246,0.94645 0.45856,0.20735 1.03193,0.377 1.27417,0.377 0.24223,0 0.66335,0.1193 0.93581,0.26511 0.85874,0.45959 7.1253,1.08576 7.71384,0.77078 0.75105,-0.40195 0.45742,-0.89078 -0.59147,-0.98469 -2.16547,-0.19388 -12.98895,-2.55286 -14.79629,-3.22486 -3.21488,-1.19535 -3.96875,-1.57321 -3.96875,-1.98927 0,-0.50345 0.38612,-0.49925 1.16747,0.0127 0.34083,0.22332 0.96172,0.51278 1.37975,0.64326 0.41804,0.13047 1.71257,0.61125 2.87674,1.06839 3.50041,1.37452 9.83874,2.70676 13.09687,2.7528 1.57049,0.0222 1.73575,0.0787 1.90357,0.65035 0.44566,1.51818 -0.90152,5.23062 -2.89323,7.97292 -2.04985,2.82235 -6.15448,5.50444 -9.32909,6.09589 -0.94588,0.17623 -2.01745,0.40774 -2.38125,0.51447 -1.42228,0.41726 -5.46057,0.29832 -8.08759,-0.23821 -4.98125,-1.01734 -9.90423,-2.37724 -14.06263,-3.88461 -1.81758,-0.65885 -3.38064,-1.12196 -3.47347,-1.02913 -0.26458,0.26458 1.50802,1.1447 5.18463,2.5742 1.0661,0.41451 1.38898,0.6698 1.3887,1.098 -5.3e-4,0.90099 -0.69975,4.50726 -1.6727,8.62772 -1.0679,4.5226 -1.39366,6.61458 -1.03,6.61458 0.48025,0 0.79519,-0.65739 1.77456,-3.70416 1.04791,-3.25999 1.35865,-4.99344 1.62446,-9.06198 0.14516,-2.2218 0.23312,-2.57969 0.63403,-2.57969 0.25601,0 0.53455,0.18 0.61897,0.40001 0.23416,0.6102 -0.2603,5.01369 -0.84637,7.53749 -0.28724,1.23693 -0.78301,3.43958 -1.10171,4.89479 -0.3187,1.45521 -0.63589,2.8542 -0.70487,3.10886 -0.0797,0.29408 0.0225,0.46302 0.27998,0.46302 0.52489,0 0.7021,-0.35841 1.86709,-3.77618 0.9248,-2.71309 1.20351,-4.31893 1.68663,-9.71757 0.1565,-1.7488 0.24041,-1.98438 0.70675,-1.98438 0.49873,0 0.52499,0.15219 0.45656,2.64584 -0.051,1.85929 -0.30282,3.55035 -0.84702,5.68854 -0.93697,3.68138 -1.59744,7.63951 -1.30493,7.82029 0.27843,0.17208 0.51694,-0.29862 1.6807,-3.31683 0.78477,-2.0353 1.07132,-3.33187 1.52036,-6.87917 0.59252,-4.68072 0.83654,-5.69891 1.29756,-5.41399 0.41589,0.25704 0.0354,4.54506 -0.59549,6.71073 -0.73569,2.52548 -1.54091,6.60239 -1.54379,7.81639 -0.002,0.91386 0.0462,0.99901 0.37601,0.66146 0.55972,-0.57291 1.93997,-4.2214 2.37271,-6.27188 0.31443,-1.48991 0.61662,-3.76123 1.02259,-7.68592 0.0345,-0.33319 0.18172,-0.63084 0.32724,-0.66146 0.45773,-0.0963 0.44877,3.76278 -0.014,6.01913 -0.23995,1.17001 -0.53529,2.7226 -0.65632,3.45021 -0.12102,0.7276 -0.4086,2.1445 -0.63905,3.14867 -0.23045,1.00417 -0.38387,1.86089 -0.34092,1.90384 0.31775,0.31776 1.22716,-1.30692 1.93954,-3.46501 0.24018,-0.72761 0.60347,-1.56105 0.8073,-1.85209 0.34013,-0.48564 0.35691,-0.453 0.20402,0.39688 -0.0916,0.50932 -0.34911,1.75948 -0.57217,2.77812 -0.55007,2.51194 -0.71086,4.36563 -0.37867,4.36563 0.39155,0 1.37003,-1.68515 1.37003,-2.35947 0,-0.31748 0.16293,-0.89874 0.36207,-1.29169 0.55153,-1.08834 1.95427,-7.02533 2.30642,-9.76179 0.30208,-2.34732 0.58328,-2.90517 1.25513,-2.48995 0.3547,0.21922 0.0288,2.32884 -0.7674,4.96713 -0.54382,1.80206 -1.30413,6.49892 -1.30413,8.05634 0,2.35813 0.89877,1.08628 1.7352,-2.4555 0.25213,-1.06761 0.56513,-2.05918 0.69554,-2.20349 0.4093,-0.45288 0.76086,0.45817 0.58991,1.5287 -0.19447,1.21774 0.12095,4.20951 0.42405,4.02218 0.11981,-0.074 0.55463,-1.11566 0.96626,-2.31469 l 0.74841,-2.18005 0.0761,2.44739 c 0.0418,1.34607 0.18792,2.4474 0.32462,2.4474 0.41062,0 0.98631,-1.09545 1.45997,-2.77813 0.45422,-1.61358 0.89875,-2.42138 0.93912,-1.70656 0.0119,0.21101 0.01,1.03849 -0.005,1.83886 -0.0549,2.97164 0.86005,2.74512 1.83606,-0.45456 0.65037,-2.1321 0.9469,-2.72045 1.37111,-2.72045 0.36901,0 -0.0452,2.4356 -0.50323,2.9593 -0.34549,0.39499 -0.33427,0.5221 0.0985,1.11616 0.53168,0.72983 1.19936,0.87754 1.61057,0.35632 0.1435,-0.1819 0.33608,-0.98558 0.42794,-1.78594 0.24453,-2.13042 0.66681,-3.43959 1.10949,-3.43959 0.32343,0 0.35815,0.42132 0.2149,2.60721 -0.11039,1.68459 -0.0745,2.66673 0.10133,2.77542 0.30767,0.19015 1.08307,-1.641 1.91825,-4.53007 0.30616,-1.05906 0.66984,-1.85562 0.80818,-1.77012 0.14923,0.0922 0.18171,1.06366 0.0799,2.38859 -0.26485,3.4456 0.44576,2.95786 1.75776,-1.20644 0.34385,-1.09141 0.72281,-2.09749 0.84213,-2.23573 0.11931,-0.13825 0.21694,0.78449 0.21694,2.05052 0,1.26603 0.11041,2.30188 0.24535,2.30188 0.23517,0 1.87131,-3.9252 1.87131,-4.48939 0,-0.15021 0.0893,-0.27328 0.19844,-0.27348 0.10914,-1.9e-4 0.15813,0.64639 0.10887,1.43685 -0.0493,0.79047 0.0269,1.64525 0.16915,1.89952 0.21697,0.38769 0.36711,0.22534 0.9303,-1.00591 0.36936,-0.80751 0.99421,-2.50303 1.38855,-3.7678 0.77383,-2.48195 1.15455,-2.64845 1.29492,-0.5663 0.0459,0.68137 0.15475,1.31009 0.2418,1.39714 0.2382,0.2382 1.50965,-2.69213 2.02463,-4.6662 0.43707,-1.67541 0.4641,-1.71203 0.74604,-1.01079 0.1609,0.40018 0.35797,0.7276 0.43793,0.7276 0.33465,0 0.64175,-1.44377 0.93947,-4.41667 0.39995,-3.99381 0.13602,-5.00574 -2.25991,-8.66466 -2.16197,-3.30161 -3.36352,-4.18775 -5.78318,-4.26506 -0.8952,-0.0286 -2.69919,-0.2941 -4.00888,-0.59 -1.30969,-0.2959 -3.21469,-0.72345 -4.23333,-0.95012 -1.01865,-0.22667 -2.86412,-0.70371 -4.10105,-1.06009 -1.23692,-0.35638 -3.12718,-0.90043 -4.20056,-1.20899 -1.07338,-0.30857 -2.36784,-0.73495 -2.87658,-0.94751 -1.37625,-0.57503 -1.99531,-0.51554 -1.77747,0.17081 0.1516,0.47763 0.10866,0.51911 -0.3004,0.29019 -0.2625,-0.1469 -0.60352,-0.72511 -0.75783,-1.28489 -0.28837,-1.04615 -0.94929,-1.50625 -4.0324,-2.80721 -0.55204,-0.23294 -1.30137,-0.59064 -1.66517,-0.79489 -0.36381,-0.20424 -2.32834,-1.17177 -4.36563,-2.15005 -2.03728,-0.97828 -3.89116,-1.87851 -4.11972,-2.00051 -1.36629,-0.72927 -4.13271,-1.64477 -6.07292,-2.00974 -1.23352,-0.23204 -3.0762,-0.70115 -4.09485,-1.04247 -3.03646,-1.01742 -9.73872,-2.95539 -13.75833,-3.97823 -0.72761,-0.18515 -2.01851,-0.52356 -2.86866,-0.75202 -5.12418,-1.37701 -12.79467,-1.75534 -17.37197,-0.85684 -1.23692,0.24281 -3.02286,0.56997 -3.96875,0.72704 -0.94588,0.15707 -2.03582,0.45107 -2.42207,0.65333 -0.38625,0.20226 -1.14303,0.36775 -1.68171,0.36775 -0.729593,0 -1.112157,0.16873 -1.499737,0.66146 -0.286168,0.3638 -0.667123,0.66145 -0.846572,0.66145 -0.179448,0 -0.728668,0.29689 -1.220491,0.65974 -0.822365,0.60672 -0.942684,0.62798 -1.497304,0.26458 -1.003662,-0.65762 -1.506302,-0.51869 -1.329089,0.36737 0.208127,1.04063 -0.02167,1.17166 -0.92578,0.52788 -0.841782,-0.5994 -1.695675,-0.48545 -1.435859,0.19162 0.701371,1.82774 0.217638,2.41243 -1.175295,1.42057 -1.139053,-0.81108 -1.547501,-0.38754 -0.991436,1.02805 0.58702,1.49442 0.269234,1.73153 -1.093788,0.81611 -1.02952,-0.69143 -1.872533,-0.98988 -1.872533,-0.66293 0,0.0633 0.114514,0.41626 0.254474,0.78438 0.332613,0.87484 -0.04846,1.09982 -0.908458,0.53633 -0.639858,-0.41925 -0.668933,-0.41494 -0.668933,0.0994 0,0.29571 0.238125,1.09318 0.529167,1.77215 0.95495,2.22781 0.591738,2.28406 -1.708473,0.26459 -2.551684,-2.24026 -2.75577,-2.02028 -1.332219,1.43598 0.505105,1.22636 0.857909,2.2902 0.784008,2.3641 -0.0739,0.0739 -0.93032,-0.66158 -1.903154,-1.63442 -1.841031,-1.84103 -2.632159,-2.24253 -2.312275,-1.17348 0.212995,0.71183 2.190379,4.69388 2.556256,5.14779 0.141486,0.17553 0.175215,0.45187 0.07495,0.61409 -0.110406,0.17864 -1.119519,-0.70365 -2.558958,-2.23737 -3.489277,-3.7178 -3.625554,-3.52089 -1.126503,1.62773 0.953727,1.9649 1.693407,3.61319 1.643729,3.66286 -0.04968,0.0497 -1.216954,-1.3518 -2.593949,-3.11441 -2.377622,-3.04345 -3.23933,-3.9287 -3.535714,-3.63231 -0.158261,0.15826 2.516944,5.54564 3.889066,7.83187 0.538715,0.89762 0.979482,1.82035 0.979482,2.05052 0,0.89099 -0.762151,0.3473 -1.731457,-1.23514 -1.199809,-1.95875 -4.574522,-6.46795 -5.377115,-7.18476 -0.342452,-0.30585 -0.564345,-0.37767 -0.564345,-0.18266 0,0.4407 3.505216,7.71316 4.485537,9.30639 0.436893,0.71004 0.966502,1.703 1.176906,2.20656 0.558194,1.33595 -0.07383,0.96158 -0.974116,-0.577 -2.690051,-4.59727 -5.987466,-8.99768 -6.219876,-8.30044 -0.09861,0.29582 2.278716,4.94188 4.921526,9.61824 1.045929,1.85074 1.90169,3.54738 1.90169,3.77031 0,0.66184 -0.440196,0.46425 -1.012667,-0.45456 -0.844206,-1.35493 -5.953612,-8.24597 -7.25724,-9.78782 -0.255585,-0.30229 -0.553241,-0.46103 -0.661459,-0.35276 -0.242543,0.24267 1.926389,4.35904 4.877528,9.25696 1.219663,2.02425 2.183114,3.78382 2.140998,3.91016 -0.07591,0.22774 -2.381105,-2.64496 -3.755604,-4.68018 -0.393116,-0.58208 -1.510957,-1.99364 -2.484091,-3.13679 -1.946231,-2.28624 -2.475307,-2.21694 -1.165691,0.1527 1.428943,2.58556 3.557103,6.14411 4.987335,8.33945 1.697699,2.60589 1.862386,3.34628 0.302493,1.35993 -0.614889,-0.78299 -1.191612,-1.48316 -1.281607,-1.55592 -0.09,-0.0728 -0.716304,-0.90619 -1.391796,-1.85208 -2.193915,-3.07211 -3.480546,-4.73024 -3.683096,-4.74654 -0.362241,-0.0291 -0.193844,0.63633 0.33073,1.30696 0.28457,0.3638 0.520046,0.75907 0.523282,0.87837 0.0032,0.1193 0.363072,0.73606 0.799634,1.37059 0.436563,0.63452 0.79375,1.22733 0.79375,1.31736 0,0.09 0.467151,0.84249 1.038112,1.67213 0.570963,0.82963 2.235485,3.35389 3.698941,5.60946 3.431786,5.2893 5.126305,7.68024 6.633268,9.35946 0.669375,0.7459 1.407549,1.6589 1.640383,2.0289 0.677296,1.0763 4.447238,5.10178 5.279266,5.63711 0.418017,0.26895 0.760031,0.6559 0.760031,0.85989 0,0.70273 -1.039029,0.36865 -1.932302,-0.62129 -2.532664,-2.80676 -5.100249,-5.84755 -7.651743,-9.06198 -5.183695,-6.53053 -5.512406,-6.96361 -5.908077,-7.78384 -0.216265,-0.44832 -1.064522,-1.64222 -1.885019,-2.65312 -1.374748,-1.69377 -4.173458,-5.76655 -6.00229,-8.73474 -0.416655,-0.67623 -0.820827,-1.16624 -0.898162,-1.0889 -0.07734,0.0773 0.220786,1.00643 0.662493,2.06466 0.441706,1.05824 0.932307,2.40455 1.090223,2.99181 0.157917,0.58726 0.546026,1.34564 0.862468,1.6853 0.316441,0.33966 1.287333,1.70464 2.157537,3.0333 0.870204,1.32866 2.138995,3.13011 2.819535,4.00324 0.68054,0.87312 2.183066,3.0066 3.338946,4.74107 2.07046,3.10684 3.407979,4.71252 7.621522,9.14955 2.208731,2.32589 6.422808,6.08542 6.821173,6.08542 0.428924,0 0.225779,-0.97708 -0.302554,-1.45521 -0.568439,-0.51443 -0.684093,-1.06365 -0.276968,-1.31526 0.13871,-0.0857 1.359101,0.67979 2.711979,1.70115 2.30886,1.74307 3.121239,2.16949 3.121239,1.63833 z M 164.81857,68.09858 c 0.10561,-1.05322 0.19938,-2.18283 0.20838,-2.51025 0.0295,-1.07425 0.54552,-0.62198 0.54552,0.47815 0,1.11577 -0.47346,3.41225 -0.77351,3.75189 -0.0948,0.10733 -0.086,-0.66658 0.0196,-1.71979 z M 74.885661,59.44297 c -0.454117,-0.72716 -0.413297,-0.92119 0.08828,-0.41962 0.229973,0.22998 0.378409,0.53731 0.329858,0.68297 -0.04855,0.14566 -0.236715,0.0272 -0.418138,-0.26335 z M 182.59207,51.37454 c -1.61152,-0.40277 -1.77165,-0.77374 -0.24777,-0.57401 0.71153,0.0933 1.58176,0.16957 1.93384,0.16957 0.35208,0 0.57544,0.10469 0.49636,0.23264 -0.24556,0.39733 -1.0323,0.45926 -2.18243,0.1718 z m -5.11335,-0.80338 c -2.28436,-0.37451 -3.24981,-0.61243 -6.31861,-1.55713 -2.3133,-0.71213 -2.9418,-1.05768 -2.9418,-1.6174 0,-0.32478 1.81141,0.11331 5.29166,1.2798 1.96973,0.66021 5.10357,1.53706 6.01927,1.68421 0.47295,0.076 0.8599,0.24422 0.8599,0.37382 0,0.28041 -0.31013,0.26301 -2.91042,-0.1633 z m -10.11551,-1.4687 c -1.19352,-0.63017 -1.89183,-1.85672 -1.70567,-2.99596 0.56417,-3.45254 0.6427,-3.61299 1.1854,-2.42189 0.1863,0.40887 0.20213,0.71069 0.0425,0.80936 -0.42474,0.26251 -0.28623,1.65342 0.28292,2.84099 0.75473,1.5748 1.10803,1.97842 1.85409,2.11818 l 0.65109,0.12198 -0.66145,0.0243 c -0.36381,0.0134 -1.10579,-0.21026 -1.64885,-0.49699 z m -0.69063,-6.86361 c 0,-0.36381 0.0601,-0.51263 0.13345,-0.33073 0.0734,0.1819 0.0734,0.47955 0,0.66146 -0.0734,0.1819 -0.13345,0.0331 -0.13345,-0.33073 z m -62.07099,42.98701 c 0.49736,-0.39186 0.49334,-0.40232 -0.12715,-0.33073 -0.3524,0.0407 -0.68974,0.22276 -0.74965,0.40466 -0.14821,0.45005 0.25489,0.41607 0.8768,-0.0739 z m 7.12817,-2.24118 c 0.0899,-0.14552 -0.0221,-0.26458 -0.24897,-0.26458 -0.22687,0 -0.41249,0.11906 -0.41249,0.26458 0,0.14552 0.11204,0.26459 0.24897,0.26459 0.13693,0 0.32255,-0.11907 0.41249,-0.26459 z m 3.30729,-5.29166 c 0.32093,-0.2074 0.28296,-0.25726 -0.19843,-0.26054 -0.32743,-0.002 -0.59532,0.11501 -0.59532,0.26054 0,0.3315 0.28079,0.3315 0.79375,0 z m 31.93453,-2.18282 c 0.13713,-0.1819 0.41128,-0.86651 0.60922,-1.52135 0.19795,-0.65485 0.44144,-1.30969 0.5411,-1.45521 0.0996,-0.14552 0.25128,-0.74083 0.33694,-1.32292 0.0857,-0.58208 0.33298,-2.17233 0.54959,-3.53389 0.45246,-2.84399 0.60524,-7.01385 0.26104,-7.12434 -0.12834,-0.0412 -0.36579,0.9113 -0.52767,2.11666 -0.33708,2.51006 -0.70045,4.42034 -1.4486,7.61553 -0.91466,3.90635 -1.03531,4.49263 -1.03531,5.03088 0,0.5946 0.34189,0.68784 0.71369,0.19464 z m 3.29396,-1.71979 c 0.76206,-1.74367 1.18864,-3.66311 1.63419,-7.35324 0.46594,-3.85903 0.51163,-4.81045 0.2391,-4.97888 -0.37003,-0.22869 -3.28779,12.50864 -3.03706,13.25816 0.21428,0.64058 0.62028,0.31752 1.16377,-0.92604 z m -4.69576,-1.07293 c 0.96669,-1.86938 1.95473,-9.78224 1.27399,-10.20296 -0.34288,-0.21191 -0.4887,0.26593 -0.71598,2.3462 -0.23021,2.10711 -1.31266,6.89011 -1.8439,8.14759 -0.8222,1.94619 0.25507,1.70254 1.28589,-0.29083 z m -6.50865,0.1161 c 0.39296,-0.19883 1.16095,-0.44235 1.70665,-0.54115 0.54571,-0.0988 0.99219,-0.33439 0.99219,-0.52352 0,-0.18914 0.25047,-0.57055 0.55659,-0.84759 0.96874,-0.8767 1.86188,-2.64518 1.68726,-3.34091 -0.12697,-0.50589 -0.0212,-0.69865 0.5181,-0.94438 0.85044,-0.38749 0.85762,-0.68232 0.0258,-1.06129 -0.74965,-0.34157 -1.75267,-1.82434 -2.27278,-3.35985 -0.47459,-1.40115 -0.67354,-1.60804 -1.15895,-1.20518 -0.47722,0.39606 -1.68274,0.27544 -5.04462,-0.50472 -2.7047,-0.62765 -4.66035,-0.53981 -6.27055,0.28165 -0.54142,0.27621 -1.16774,0.50221 -1.39182,0.50221 -0.22408,0 -0.40741,0.16733 -0.40741,0.37184 0,0.20451 -0.41672,0.87062 -0.92604,1.48024 -1.1068,1.32475 -1.18495,2.28103 -0.39533,4.83751 0.38102,1.2336 0.73549,1.85449 1.25677,2.20129 1.32065,0.87864 3.61341,1.85005 5.22397,2.21333 0.87313,0.19693 1.70061,0.45796 1.83886,0.58005 0.40203,0.35506 3.27916,0.25621 4.06126,-0.13953 z m -4.97408,-0.80989 c -1.79013,-0.39788 -3.51136,-0.96167 -3.36939,-1.10365 0.0912,-0.0912 1.71489,0.11538 6.74283,0.85799 0.61847,0.0913 1.12448,0.26896 1.12448,0.3947 0,0.32548 -2.77693,0.23347 -4.49792,-0.14904 z m 3.70417,-1.3439 c -1.23693,-0.17775 -3.81336,-0.53727 -5.7254,-0.79894 -2.36112,-0.32312 -3.67683,-0.62895 -4.10104,-0.95326 -0.62082,-0.47461 -0.61579,-0.47663 0.83061,-0.33442 1.35137,0.13286 9.97502,1.25408 12.24846,1.5925 0.82448,0.12273 0.9486,0.21576 0.69521,0.52108 -0.35258,0.42484 -0.82638,0.4216 -3.94784,-0.027 z m 1.71979,-1.85575 c -1.45521,-0.19128 -3.83646,-0.49038 -5.29166,-0.66466 -5.17483,-0.61979 -6.87938,-0.91861 -6.74688,-1.18279 0.21291,-0.42454 5.41358,-0.0915 10.18646,0.65236 1.01864,0.15875 2.62436,0.37475 3.56827,0.48 1.33064,0.14837 1.7362,0.29537 1.80533,0.65438 0.1039,0.53956 0.11945,0.5393 -3.52152,0.0607 z m 1.19063,-1.73951 c -0.94589,-0.12343 -2.79136,-0.3527 -4.10104,-0.5095 -4.07171,-0.48746 -9.6573,-1.41759 -9.6573,-1.60817 0,-0.41988 0.96793,-0.4754 3.64457,-0.20905 6.06674,0.60371 11.96497,1.4926 12.42224,1.87209 0.37545,0.3116 0.20268,0.76107 -0.27357,0.71171 -0.17331,-0.018 -1.08902,-0.13365 -2.0349,-0.25708 z m -2.91042,-2.53085 c -2.54661,-0.34047 -5.69305,-0.7393 -6.99209,-0.88628 -1.29903,-0.14699 -2.40109,-0.30646 -2.44902,-0.35438 -0.0479,-0.0479 0.14434,-0.29662 0.42726,-0.55266 0.46667,-0.42233 0.76105,-0.43867 3.17368,-0.17621 1.46262,0.15912 4.15852,0.58761 5.9909,0.95221 1.83238,0.3646 3.56384,0.6629 3.8477,0.6629 0.44969,0 1.00349,0.67842 0.73061,0.89503 -0.0544,0.0431 -2.18242,-0.20013 -4.72904,-0.54061 z m -1.85208,-2.66205 c -1.52797,-0.20041 -3.19485,-0.43742 -3.70417,-0.52669 l -0.92604,-0.16231 1.05833,-0.20041 c 1.58972,-0.30105 7.06694,0.68404 6.46465,1.16267 -0.0631,0.0501 -1.3648,-0.0728 -2.89277,-0.27326 z m 8.73125,0.60948 c 0,-0.63187 -0.3068,-1.2174 -0.55689,-1.06284 -0.40515,0.2504 -0.273,1.43808 0.16001,1.43808 0.21828,0 0.39688,-0.16886 0.39688,-0.37524 z M 184.6089,33.11498 c 0.13588,-1.43613 0.22428,-2.73897 0.19645,-2.8952 -0.0278,-0.15623 0.12555,-0.28406 0.34082,-0.28406 0.26965,0 0.41122,0.32924 0.45508,1.05833 0.035,0.58209 0.18592,1.65365 0.33534,2.38125 0.14941,0.72761 0.30181,1.61125 0.33867,1.96365 0.0369,0.35241 0.19616,0.6832 0.35402,0.73509 0.28607,0.094 0.7046,-2.30904 1.06907,-6.13832 0.22237,-2.33625 0.42543,-1.83267 1.00414,2.49025 0.45656,3.41039 0.5952,3.92439 0.9581,3.55207 0.2105,-0.21595 0.9812,-7.23731 1.1134,-10.14336 0.0433,-0.95185 0.22907,0.19595 0.53706,3.31833 0.4491,4.55275 0.85626,6.73584 1.2563,6.73584 0.1931,0 0.34571,-1.05077 0.90304,-6.21771 0.18836,-1.74625 0.35919,-2.63922 0.37962,-1.98438 0.0602,1.92808 0.81929,7.24224 1.07042,7.49338 0.33409,0.33409 1.0054,-2.94827 1.22222,-5.97604 0.19595,-2.73637 0.65066,-3.80036 0.65066,-1.52253 0,1.39747 0.44018,6.03816 0.67182,7.0828 0.0726,0.32742 0.23188,0.59531 0.35394,0.59531 0.23285,0 1.36109,-7.67796 1.35754,-9.23837 -0.001,-0.4972 0.0757,-0.82624 0.17074,-0.73121 0.095,0.095 0.21477,1.5734 0.26609,3.28525 0.10879,3.62899 0.37893,5.65248 0.75174,5.6311 0.36366,-0.0208 0.54941,-0.82408 1.05846,-4.57702 0.24121,-1.77831 0.49509,-3.40855 0.56418,-3.62275 0.27197,-0.84319 0.61825,0.40044 0.62415,2.24154 0.009,2.94611 0.30814,5.45421 0.63659,5.3452 0.40538,-0.13455 1.48225,-5.92792 1.48225,-7.9743 0,-0.49472 0.0734,-1.09087 0.16319,-1.32476 0.26102,-0.68022 0.92482,0.0393 0.73479,0.79647 -0.18955,0.75521 0.3902,7.13263 0.72954,8.02516 0.14477,0.38078 0.3396,0.544 0.47843,0.40084 0.25095,-0.25881 1.058,-3.92062 1.08582,-4.92673 0.0158,-0.57114 0.0293,-0.57565 0.23151,-0.0773 0.11811,0.29104 0.28118,1.24354 0.36236,2.11667 0.0812,0.87313 0.20519,1.76609 0.27555,1.98438 0.0704,0.21828 0.20712,0.75391 0.30389,1.1903 0.16812,0.75809 0.19268,0.77057 0.55127,0.28016 0.20642,-0.2823 0.38414,-1.11559 0.39492,-1.85176 0.0108,-0.73617 0.10973,-1.87428 0.21987,-2.52912 0.22291,-1.32541 0.23688,-1.29374 0.81396,1.84582 0.17323,0.94245 0.44155,1.95007 0.59627,2.23916 0.27874,0.52084 0.28305,0.52089 0.47331,0.006 0.10561,-0.28565 0.27998,-1.98419 0.3875,-3.77453 0.10751,-1.79034 0.23034,-3.21909 0.27295,-3.175 0.0426,0.0441 0.28538,1.50891 0.53949,3.25516 0.44979,3.091 0.69676,3.87369 1.09628,3.47417 0.1071,-0.1071 0.32095,-2.06369 0.47522,-4.34799 l 0.28049,-4.15326 0.1998,2.63381 c 0.24431,3.22063 0.92168,6.38914 1.28765,6.02317 0.14203,-0.14203 0.36708,-1.12511 0.50012,-2.18464 0.26556,-2.11489 0.41692,-2.49454 0.61505,-1.54262 0.82479,3.96287 1.02093,4.72757 1.21256,4.72757 0.25405,0 0.52002,-3.09722 0.60755,-7.07474 0.0365,-1.65936 0.16214,-2.67666 0.3242,-2.62538 0.14552,0.0461 0.29163,0.55078 0.32469,1.12162 0.1003,1.73188 0.91684,6.90985 1.14885,7.28524 0.11961,0.19354 0.28681,0.28256 0.37156,0.19782 0.22122,-0.22123 0.66407,-4.31355 0.66643,-6.15855 0.001,-0.861 0.0794,-1.48811 0.17388,-1.39358 0.0945,0.0945 0.38672,1.56146 0.6493,3.25986 0.72779,4.70723 1.03139,4.54313 1.55479,-0.84042 0.14092,-1.44947 0.25929,-2.96283 0.26305,-3.36301 0.0142,-1.51008 0.47453,-0.64922 0.63671,1.19062 0.42975,4.87532 0.90091,7.2225 1.35805,6.76536 0.19421,-0.19421 1.18706,-6.91076 1.18706,-8.03034 0,-0.48763 0.10301,-0.95026 0.22891,-1.02807 0.1259,-0.0778 0.31129,1.13555 0.41198,2.69636 0.21099,3.27047 0.60785,5.15357 0.95528,4.53275 0.19332,-0.34544 1.04967,-6.09029 1.04967,-7.04174 0,-0.18794 0.16471,-0.34172 0.36601,-0.34172 0.436,0 0.68223,0.79929 0.69284,2.24896 0.004,0.58209 0.18024,1.77271 0.39106,2.64584 0.21083,0.87312 0.38756,1.90034 0.39275,2.2827 0.01,0.73631 0.6482,1.48939 0.90714,1.07041 0.0831,-0.13445 0.28955,-1.71781 0.45879,-3.51858 0.46448,-4.94222 0.78291,-4.91604 1.38535,0.1139 0.20576,1.71788 0.43899,3.18832 0.51831,3.26764 0.35725,0.35725 0.68338,-0.31149 0.95591,-1.96016 0.1623,-0.98179 0.39785,-2.38039 0.52345,-3.108 l 0.22837,-1.32291 0.03,1.4552 c 0.0312,1.51658 0.70666,5.79272 0.95408,6.04014 0.0783,0.0783 0.241,0.0312 0.36164,-0.10465 0.20937,-0.2357 0.89645,-3.48057 1.24281,-5.86934 0.0993,-0.6846 0.30222,-1.12448 0.51883,-1.12448 0.41139,0 0.77145,0.92212 0.51934,1.33004 -0.094,0.15205 -0.0267,1.58186 0.14949,3.17737 0.39516,3.57838 0.81544,3.82673 1.43913,0.8504 0.74648,-3.56227 0.72948,-3.54867 1.10445,-0.8838 0.47509,3.37636 0.67355,3.5182 1.27428,0.91071 0.19619,-0.85154 0.44049,-2.23444 0.5429,-3.07311 0.16114,-1.31957 0.48763,-2.0552 0.7735,-1.74279 0.0466,0.051 0.2191,1.48657 0.38327,3.19026 0.41564,4.31338 0.62732,4.73676 1.39411,2.78837 0.24318,-0.61792 0.52055,-1.92716 0.61637,-2.90943 0.0958,-0.98226 0.26515,-1.78594 0.37629,-1.78594 0.11113,0 0.32282,1.13398 0.47041,2.51994 0.27649,2.59644 0.3849,2.94104 0.8373,2.66145 0.24369,-0.15061 1.12209,-3.71143 1.49029,-6.04128 0.27566,-1.74435 0.58097,-1.07013 0.77211,1.70512 0.23745,3.44759 0.50533,3.9836 1.02738,2.05577 0.21534,-0.79518 0.63228,-2.33876 0.92654,-3.43016 l 0.53502,-1.98438 0.0637,1.45521 c 0.035,0.80037 0.0914,1.57427 0.12516,1.71979 0.0338,0.14552 0.0752,0.7706 0.092,1.38907 0.0367,1.35354 0.41726,1.44836 0.92602,0.23073 0.45731,-1.0945 0.95659,-1.46475 0.95659,-0.70937 0,0.29963 0.11906,0.54478 0.26458,0.54478 0.24573,0 0.441,-2.36786 0.29456,-3.57187 -0.0354,-0.29105 -0.10409,-0.97814 -0.15264,-1.52688 -0.12418,-1.40321 -0.71727,-2.17025 -2.04172,-2.64057 -0.6286,-0.22322 -1.85728,-0.71349 -2.73041,-1.08949 -0.87312,-0.37599 -1.88594,-0.68646 -2.2507,-0.68991 -0.36477,-0.003 -1.07914,-0.13145 -1.5875,-0.28444 -1.41419,-0.42559 -10.24799,-1.53609 -14.55034,-1.82912 -2.11005,-0.14371 -4.96755,-0.37544 -6.35,-0.51495 -1.38245,-0.13951 -4.95433,-0.32315 -7.9375,-0.4081 -2.98318,-0.0849 -7.38849,-0.21896 -9.78959,-0.29781 -2.40109,-0.0788 -10.97359,-0.12276 -19.05,-0.0976 -8.0764,0.0252 -16.35125,0.0236 -18.38854,-0.004 -12.33514,-0.16451 -18.12953,-0.12865 -28.17813,0.1744 -6.18463,0.18652 -12.73307,0.5119 -14.55208,0.72308 -1.81901,0.21118 -5.09323,0.52198 -7.27604,0.69067 -3.82143,0.29532 -7.74152,1.09251 -9.15774,1.86233 -0.63167,0.34336 -0.63159,0.3435 0.2942,0.52865 0.50932,0.10187 3.00963,0.26528 5.55625,0.36313 4.14949,0.15946 4.68966,0.23376 5.2029,0.71571 l 0.57269,0.53777 0.29651,-0.55404 c 0.45041,-0.84159 1.00301,-0.6675 1.60081,0.5043 0.66546,1.3044 1.05834,1.35351 1.05834,0.13229 0,-1.3353 0.55649,-1.1616 1.27145,0.39687 0.83355,1.81696 1.10952,1.74059 1.43414,-0.39687 0.055,-0.36198 0.28811,-0.0482 0.73791,0.99323 0.80859,1.87212 1.41187,1.94885 1.53414,0.19511 0.0456,-0.65359 0.17123,-1.27829 0.27926,-1.38822 0.10802,-0.10994 0.54795,0.66397 0.97762,1.71979 0.42966,1.05582 0.89931,1.89498 1.04366,1.86481 0.14434,-0.0302 0.3815,-0.85302 0.52703,-1.82854 l 0.26458,-1.77368 0.63344,1.56396 c 1.07272,2.64854 1.31972,2.62598 1.57487,-0.1439 0.17965,-1.95021 0.51515,-2.47333 0.8561,-1.33485 1.18643,3.96174 1.67826,5.29166 1.95694,5.29166 0.36005,0 0.66112,-1.88694 0.66489,-4.16718 0.001,-0.76399 0.11334,-1.38907 0.24905,-1.38907 0.27213,0 0.35646,0.24779 0.81047,2.38125 0.69642,3.2726 1.35052,4.6325 1.73999,3.61754 0.15412,-0.40162 0.29725,-2.25899 0.34503,-4.47743 0.0325,-1.50749 0.44163,-2.07221 0.67095,-0.92604 1.10371,5.51631 1.73649,7.0954 2.12051,5.29166 0.19447,-0.91343 0.42216,-3.28665 0.45693,-4.7625 0.0387,-1.6414 0.39006,-1.37418 0.69586,0.52917 0.48006,2.988 1.13866,5.61613 1.499,5.98173 0.2969,0.30123 0.38477,0.17819 0.54344,-0.76096 0.1041,-0.61616 0.19074,-2.35736 0.19254,-3.86933 0.004,-3.03749 0.33534,-3.86372 0.59714,-1.4873 0.0924,0.83871 0.39211,2.52032 0.66603,3.73691 0.7542,3.34982 0.88674,3.31455 1.37416,-0.36569 l 0.34966,-2.64005 0.5692,3.2618 c 0.31306,1.79399 0.64127,3.33386 0.72935,3.42195 0.43984,0.43984 0.73753,-0.70594 0.98791,-3.80238 0.15168,-1.87579 0.35332,-3.62256 0.44809,-3.8817 0.0948,-0.25914 0.39265,1.34821 0.66197,3.57188 0.26932,2.22367 0.63823,4.40022 0.81979,4.83679 l 0.33011,0.79375 0.29219,-1.45521 c 0.1607,-0.80037 0.37248,-3.03753 0.47063,-4.97148 0.20179,-3.97598 0.64296,-4.59467 0.96793,-1.35743 0.24157,2.40644 0.98458,6.77148 1.29393,7.6016 0.12528,0.33618 0.33149,0.54714 0.45824,0.46881 0.18968,-0.11723 0.56724,-3.74038 0.89833,-8.62067 0.0396,-0.58399 0.18948,-0.0465 0.4057,1.45521 0.46,3.19475 1.13309,7.29429 1.29675,7.89799 0.45033,1.66119 0.87764,-1.71291 1.15104,-9.08862 l 0.0441,-1.19062 0.2077,1.05833 c 0.11424,0.58209 0.34946,2.48709 0.52273,4.23334 0.42655,4.29904 0.91095,6.05077 1.43755,5.19871 0.0766,-0.12389 0.26823,-1.88006 0.42591,-3.90261 0.15769,-2.02254 0.33336,-4.1536 0.39038,-4.73569 0.057,-0.58208 0.11053,-1.20716 0.11888,-1.38906 0.008,-0.1819 0.12038,-0.33073 0.24894,-0.33073 0.12857,0 0.29777,0.74414 0.37599,1.65365 0.1958,2.27663 0.93879,8.02086 1.14238,8.83201 0.33654,1.34089 0.66632,0.11535 0.90732,-3.37184 0.13463,-1.94807 0.27595,-4.37538 0.31403,-5.39403 0.0538,-1.43913 0.15772,-1.85208 0.46611,-1.85208 0.31816,0 0.45718,0.70841 0.70096,3.57187 0.58995,6.92969 1.0689,9.46827 1.51506,8.03028 0.0836,-0.26931 0.33084,-2.79878 0.54952,-5.62105 0.40754,-5.25964 0.67329,-6.72028 0.67502,-3.71009 5.3e-4,0.93376 0.24058,3.5352 0.53342,5.78099 0.73826,5.66167 0.86203,5.69604 1.44144,0.4003 0.70636,-6.45596 0.72338,-6.50477 1.10212,-3.16063 0.65161,5.7534 0.87138,6.85448 1.2855,6.44036 0.0716,-0.0716 0.18028,-1.01414 0.24159,-2.09461 0.0613,-1.08048 0.19995,-3.54723 0.30809,-5.48167 0.16835,-3.01165 0.25722,-3.50553 0.6183,-3.43616 0.34532,0.0663 0.43256,0.53559 0.48174,2.59113 0.0589,2.4629 0.77137,8.62525 1.04916,9.07473 0.33824,0.54729 0.6316,-0.42519 0.86159,-2.85619 z m 0.43926,-5.36207 c 0.2345,-2.38186 0.36806,-2.42186 0.36806,-0.11025 0,1.12199 -0.11103,1.89618 -0.27195,1.89618 -0.17672,0 -0.21038,-0.62539 -0.0961,-1.78593 z m 64.41812,-0.74966 c 0.0127,-0.30822 0.0754,-0.37091 0.15985,-0.15985 0.0764,0.191 0.067,0.4192 -0.0209,0.50712 -0.0879,0.0879 -0.15046,-0.0683 -0.13897,-0.34727 z M 29.080299,27.35162 c -0.261307,-0.25936 -0.291698,-0.22897 -0.148112,0.14811 0.09936,0.26094 0.247304,0.40779 0.328765,0.32632 0.08146,-0.0815 1.68e-4,-0.29495 -0.180653,-0.47443 z m -15.907832,99.81144 c 0,-0.66623 0.513856,-1.32197 3.058163,-3.9026 6.921586,-7.02039 13.138413,-13.55231 14.057502,-14.76999 0.538181,-0.71303 1.047641,-1.35594 1.132134,-1.4287 0.08449,-0.0728 1.341349,-1.61152 2.793016,-3.41947 1.451666,-1.80794 3.499189,-4.18919 4.550048,-5.29166 1.56269,-1.63944 1.959481,-1.93222 2.178762,-1.60762 0.613206,0.90772 0.313807,1.98667 -0.849461,3.06122 -1.321683,1.22088 -3.279788,3.4452 -7.204133,8.18357 -2.71901,3.28301 -6.147984,6.82758 -12.836864,13.26962 -1.67349,1.61173 -3.80111,3.78002 -4.728044,4.81842 -0.926934,1.0384 -1.790138,1.888 -1.918229,1.888 -0.128092,0 -0.232894,-0.36035 -0.232894,-0.80079 z m 0.04274,-5.51972 0.08956,-2.88093 1.058333,-0.97979 c 0.582083,-0.53889 1.884819,-1.71301 2.894969,-2.60918 3.573252,-3.17003 5.078612,-4.53764 8.349823,-7.58574 1.81901,-1.69495 3.886569,-3.60606 4.594575,-4.2469 0.708007,-0.64085 2.469454,-2.65541 3.914328,-4.47679 5.239218,-6.60449 5.916387,-7.40848 6.241618,-7.41055 0.233334,-0.002 0.33073,0.54414 0.33073,1.8528 v 1.85491 l -2.473458,2.58477 c -1.360403,1.42162 -2.780728,3.05746 -3.156278,3.63519 -0.375552,0.57774 -1.164402,1.64574 -1.753004,2.37335 -0.588601,0.7276 -1.532246,1.91952 -2.09699,2.6487 -1.58155,2.04206 -8.898748,9.62536 -11.496863,11.91497 -1.277906,1.12617 -3.103883,2.98325 -4.057726,4.12685 -2.378344,2.85148 -2.551405,2.79462 -2.439613,-0.80166 z m 0.142962,-4.95907 c -0.316778,-0.31678 0.359077,-1.14447 2.266667,-2.77588 4.032866,-3.44901 15.079532,-14.23804 16.465344,-16.08134 0.582083,-0.77424 1.177396,-1.54324 1.322917,-1.70889 0.14552,-0.16565 1.266322,-1.55134 2.490671,-3.07931 2.469875,-3.08237 3.990337,-4.7625 4.309901,-4.7625 0.509556,0 0.134512,1.09968 -0.72653,2.13028 -0.51558,0.61711 -1.06449,1.35945 -1.219801,1.64965 -0.15531,0.29021 -1.301575,1.89818 -2.547252,3.57328 -2.581832,3.47186 -8.0252,9.08112 -12.493448,12.87419 -1.67349,1.42062 -4.431298,3.87999 -6.128462,5.46527 -2.982111,2.78552 -3.380504,3.07476 -3.740007,2.71525 z m -0.09256,-3.33865 c 0.09177,-0.76398 0.16788,-1.87444 0.169145,-2.46767 0.0025,-1.17046 0.256529,-1.43441 5.964593,-6.19743 3.395442,-2.83329 8.337307,-7.88695 10.650119,-10.89105 1.194623,-1.55169 2.405413,-3.0995 2.690643,-3.43958 0.285231,-0.34008 1.231843,-1.5113 2.103582,-2.60271 2.449917,-3.06726 4.970902,-5.71146 5.2173,-5.4723 0.122534,0.11894 0.267415,1.09997 0.321956,2.18008 0.08151,1.61422 0.02405,1.99265 -0.322723,2.12572 -0.23204,0.089 -1.282777,1.31067 -2.334967,2.71472 -1.052192,1.40405 -2.750526,3.67365 -3.774077,5.04355 -2.013201,2.69442 -7.18784,8.29483 -9.961149,10.78074 -0.948111,0.84986 -3.020573,2.6763 -4.605472,4.05874 -1.584898,1.38245 -3.574301,3.19816 -4.420895,4.0349 -0.846594,0.83675 -1.612531,1.52135 -1.702081,1.52135 -0.08955,0 -0.08774,-0.62507 0.004,-1.38906 z m 0.170778,-5.82083 c -4.5e-4,-0.4012 0.614003,-1.15609 1.884396,-2.31511 1.036784,-0.94588 3.150444,-2.89262 4.697021,-4.32608 1.546578,-1.43347 2.897596,-2.68362 3.002264,-2.77813 0.104667,-0.0945 0.741829,-0.82667 1.415915,-1.62704 0.674086,-0.80036 1.886369,-2.20617 2.693962,-3.12401 0.807592,-0.91785 1.714138,-1.98941 2.014546,-2.38125 0.300408,-0.39185 0.614465,-0.77198 0.697904,-0.84474 0.08344,-0.0728 0.742388,-0.9062 1.46433,-1.85208 0.721942,-0.94589 1.379078,-1.77932 1.460303,-1.85208 0.08122,-0.0728 0.847054,-0.96573 1.701843,-1.98438 2.712448,-3.2324 5.282976,-5.95284 5.624955,-5.95298 1.039238,-5.3e-4 -0.183793,1.96071 -3.480628,5.58128 -0.74141,0.81421 -2.419581,2.9401 -3.729268,4.72419 -1.309688,1.78409 -2.619375,3.51928 -2.910417,3.85599 -0.291042,0.3367 -1.18401,1.46715 -1.984375,2.51212 -1.854508,2.42127 -5.092535,5.53229 -7.912475,7.60212 -1.212459,0.88993 -3.069085,2.45944 -4.125835,3.48778 -1.05675,1.02834 -2.054656,1.86971 -2.217569,1.86971 -0.162912,0 -0.296505,-0.26789 -0.296872,-0.59531 z m 0.05308,-3.91892 0.116009,-1.60382 4.24988,-4.28316 c 5.969007,-6.01575 7.488433,-7.83262 11.34035,-13.5603 1.703374,-2.53286 3.568543,-5.02083 5.263007,-7.02037 0.443561,-0.52342 1.22319,-1.45839 1.732513,-2.07771 1.131305,-1.37563 3.979357,-3.74217 4.279979,-3.55637 0.198959,0.12296 0.07161,3.17202 -0.187153,4.48107 -0.05884,0.29764 -1.493731,2.02405 -3.18866,3.83646 -1.694929,1.81242 -3.356244,3.71202 -3.691812,4.22135 -0.335569,0.50932 -0.887424,1.25242 -1.226344,1.65134 -0.33892,0.39891 -1.211531,1.51539 -1.939136,2.48107 -3.588829,4.7631 -5.598014,7.08805 -8.378416,9.69519 -1.67014,1.56607 -3.387283,3.11388 -3.815872,3.43958 -0.428589,0.32571 -1.115213,0.90906 -1.52583,1.29634 -0.410617,0.38729 -0.857115,0.80401 -0.992218,0.92605 -0.135102,0.12203 -0.490378,0.54931 -0.789502,0.94949 -0.299123,0.40018 -0.728123,0.7276 -0.953333,0.7276 -0.337298,0 -0.389024,-0.28268 -0.293462,-1.60381 z m 0.212175,-4.18904 c 0,-0.85394 0.589827,-1.52557 3.161398,-3.59985 2.156878,-1.73979 2.835808,-2.47315 4.77646,-5.15938 1.684887,-2.33221 4.438288,-6.33253 4.887181,-7.10043 2.354125,-4.02704 7.177903,-9.89044 9.929128,-12.06905 2.21941,-1.75748 4.260816,-3.11623 4.429075,-2.94798 0.379058,0.37906 -0.341553,1.47822 -1.652077,2.51993 -0.81112,0.64475 -2.273782,2.06951 -3.250359,3.16615 -0.976579,1.09663 -1.954191,2.1765 -2.172472,2.39973 -0.656894,0.67175 -2.730381,3.44337 -4.310715,5.7621 -0.817739,1.19983 -1.617315,2.33092 -1.776835,2.51355 -0.159519,0.18262 -0.730314,0.94129 -1.268431,1.68593 -2.065529,2.85826 -4.080992,5.14498 -6.415339,7.27878 -1.332905,1.21839 -2.528375,2.48634 -2.656599,2.81766 -0.128225,0.33133 -0.465888,0.68852 -0.750363,0.79375 -0.284476,0.10524 -0.494567,0.26302 -0.46687,0.35064 0.07662,0.24237 -1.89501,2.35424 -2.19791,2.35424 -0.1459,0 -0.265272,-0.3446 -0.265272,-0.76577 z m -0.07661,-3.36778 c -0.409293,-0.4093 -0.142563,-1.18087 0.804215,-2.32637 2.038873,-2.46681 2.33347,-2.89974 1.766821,-2.59648 -0.283784,0.15187 -0.751432,0.53632 -1.039217,0.85432 -0.287785,0.318 -0.732937,0.6904 -0.989227,0.82756 -0.418503,0.22398 -0.465981,0.10203 -0.465981,-1.19687 v -1.44625 l 2.894913,-2.9195 c 1.592203,-1.60572 3.407906,-3.60824 4.034896,-4.45003 0.908452,-1.21969 3.724365,-4.81846 4.927013,-6.29678 2.757051,-3.38904 8.992924,-9.69056 11.852864,-11.97764 2.118421,-1.6941 4.101984,-3.02535 4.264943,-2.8624 0.07152,0.0715 -0.015,1.17844 -0.192235,2.45982 -0.38299,2.7688 -0.777378,3.2949 -4.131863,5.51179 -1.180489,0.78015 -2.490177,1.79228 -2.910417,2.24916 -0.420239,0.45689 -1.537978,1.63063 -2.483864,2.60832 -1.729902,1.78806 -4.149534,5.02283 -7.039055,9.4104 -1.903147,2.88981 -10.888086,12.55667 -11.293806,12.15095 z m 0.341194,-8.68757 c 0,-0.44036 0.619256,-1.31912 1.918229,-2.72206 1.9129,-2.06602 2.766462,-3.1284 6.539177,-8.13894 2.686669,-3.56817 3.043002,-3.97168 7.013816,-7.94249 3.4254,-3.4254 4.158045,-4.09368 6.00695,-5.4792 0.531085,-0.39798 1.124741,-0.87596 1.319239,-1.06218 0.194498,-0.18622 1.187069,-0.90809 2.205715,-1.60416 2.941862,-2.01025 3.476604,-2.49971 3.120266,-2.85605 -0.234882,-0.23488 -0.539779,-0.17196 -1.278298,0.26378 -0.815115,0.48092 -3.383296,2.46334 -3.826343,2.9536 -0.07276,0.0805 -1.615694,1.3902 -3.42874,2.91041 -5.350971,4.48672 -9.051114,8.42422 -16.520925,17.5807 -1.424582,1.74625 -2.757441,3.27021 -2.961909,3.38659 -0.30857,0.17562 -0.37176,-0.23634 -0.37176,-2.42364 v -2.63522 l 1.019955,-1.28053 c 0.560975,-0.70429 1.288293,-1.51866 1.616261,-1.8097 0.327968,-0.29104 1.497763,-1.71979 2.599544,-3.175 2.31293,-3.05487 4.121432,-5.16611 6.346023,-7.40833 4.320687,-4.35494 11.195556,-9.95727 14.673176,-11.95718 0.91222,-0.5246 2.170798,-1.24741 2.796839,-1.60625 0.626042,-0.35883 1.190186,-0.60049 1.253654,-0.53703 0.06347,0.0635 -0.229671,1.11891 -0.651425,2.34543 -0.421754,1.22651 -0.847312,2.96169 -0.945684,3.85594 -0.17829,1.6207 -0.184515,1.63046 -1.94137,3.04271 -2.105554,1.69255 -2.350111,1.90343 -6.923223,5.96988 -1.964531,1.74687 -3.918419,3.58018 -4.341974,4.07402 -0.423554,0.49384 -1.376054,1.55285 -2.116666,2.35335 -0.740613,0.80051 -1.88235,2.1059 -2.537193,2.90089 -0.654844,0.79499 -1.558768,1.86644 -2.008719,2.381 -0.449951,0.51457 -1.045264,1.22326 -1.322917,1.57488 -0.461299,0.58419 -2.889373,3.22475 -5.095887,5.54184 -0.487794,0.51224 -1.067034,1.20627 -1.287201,1.54229 -0.519525,0.79289 -0.86861,0.77708 -0.86861,-0.0393 z m -0.08819,-10.37402 c -0.354959,-0.35496 -0.626626,0.0404 5.241585,-7.62882 0.779427,-1.01865 2.290255,-2.76461 3.357396,-3.87991 2.297842,-2.40155 8.107544,-7.61356 9.611792,-8.62294 0.582842,-0.3911 1.455356,-1.04593 1.938918,-1.45518 0.483564,-0.40925 1.317001,-1.03232 1.852084,-1.38461 0.535083,-0.35228 1.865847,-1.25081 2.957253,-1.99671 2.182897,-1.49187 6.100022,-3.69503 6.569605,-3.69503 0.735978,0 -0.424612,1.40914 -1.897515,2.30388 -1.509615,0.91704 -6.269856,4.18357 -8.982139,6.16363 -0.697037,0.50886 -2.162158,1.66934 -3.255825,2.57885 -1.093667,0.9095 -2.071176,1.65399 -2.172243,1.65442 -0.440211,0.002 -7.038386,7.02441 -9.570152,10.18568 -2.271054,2.83573 -5.034741,5.95313 -5.27767,5.95313 -0.108185,0 -0.276076,-0.0794 -0.373089,-0.17639 z m 0.04011,-4.62952 c 0.112181,-1.55088 0.219592,-1.76777 2.189078,-4.42034 1.13911,-1.53419 2.008472,-2.85207 1.931917,-2.92862 -0.07655,-0.0766 -0.977592,0.72106 -2.002305,1.77247 -1.843096,1.89113 -2.335184,2.12061 -2.335184,1.08897 0,-0.87077 0.479634,-1.54978 3.146979,-4.45512 4.84876,-5.28139 6.723336,-6.99988 11.122376,-10.19624 1.148657,-0.83463 6.431992,-4.36563 6.532153,-4.36563 0.04966,0 0.71769,-0.40092 1.4845,-0.89093 2.449473,-1.56528 6.856442,-3.77114 10.050198,-5.03051 1.704862,-0.67227 3.163377,-1.22231 3.241146,-1.22231 0.07777,0 0.141399,0.17859 0.141399,0.39687 0,0.21829 -0.09149,0.39688 -0.203319,0.39688 -0.111826,0 -0.724477,0.83056 -1.361448,1.84569 -1.060717,1.69045 -1.382983,1.9806 -3.831574,3.44971 -3.604147,2.16243 -6.33711,3.92491 -8.812824,5.68336 -1.134491,0.80581 -2.282549,1.61203 -2.55124,1.79161 -0.913561,0.61057 -3.231331,2.44057 -4.015931,3.17078 -0.42999,0.40018 -0.865072,0.7276 -0.966849,0.7276 -0.367471,0 -2.52278,2.03894 -4.982934,4.7139 -2.326485,2.52963 -3.081734,3.41558 -4.975017,5.83603 -1.486055,1.89983 -3.55785,4.26674 -3.73475,4.26674 -0.101387,0 -0.131254,-0.73391 -0.06637,-1.63091 z m -0.04736,-8.36365 c -0.195582,-0.31646 0.182263,-1.72251 0.624618,-2.32436 0.218281,-0.29698 0.670859,-0.72805 1.005729,-0.95794 0.33487,-0.22989 2.498846,-2.26718 4.808835,-4.52731 6.118367,-5.98632 9.803283,-8.27582 23.81877,-14.79901 2.97919,-1.3866 7.244125,-2.53699 7.552963,-2.03728 0.166568,0.26951 -0.19327,0.46101 -3.184853,1.69489 -1.308323,0.53962 -3.451448,1.49253 -4.7625,2.11758 -5.123001,2.44241 -6.381314,3.06047 -7.146235,3.51012 -2.211679,1.30009 -4.303302,2.5951 -4.894792,3.03056 -0.363802,0.26784 -2.030677,1.39588 -3.704167,2.50677 -2.766088,1.83616 -8.953007,7.20251 -12.42436,10.77651 -1.187564,1.22268 -1.461391,1.38585 -1.694008,1.00947 z"
       id="path1327" />
  </g>
</svg>
