<?xml version="1.0" encoding="UTF-8" standalone="no"?>
<svg
   enable-background="new 0 0 128 128"
   viewBox="0 0 128 128"
   version="1.1"
   id="svg20"
   sodipodi:docname="glasses-seethrough.svg"
   inkscape:version="1.3 (0e150ed6c4, 2023-07-21)"
   xmlns:inkscape="http://www.inkscape.org/namespaces/inkscape"
   xmlns:sodipodi="http://sodipodi.sourceforge.net/DTD/sodipodi-0.dtd"
   xmlns:xlink="http://www.w3.org/1999/xlink"
   xmlns="http://www.w3.org/2000/svg"
   xmlns:svg="http://www.w3.org/2000/svg">
  <sodipodi:namedview
     id="namedview20"
     pagecolor="#ffffff"
     bordercolor="#000000"
     borderopacity="0.25"
     inkscape:showpageshadow="2"
     inkscape:pageopacity="0.0"
     inkscape:pagecheckerboard="0"
     inkscape:deskcolor="#d1d1d1"
     inkscape:zoom="9.1640625"
     inkscape:cx="64"
     inkscape:cy="64"
     inkscape:window-width="2560"
     inkscape:window-height="1369"
     inkscape:window-x="2552"
     inkscape:window-y="-8"
     inkscape:window-maximized="1"
     inkscape:current-layer="svg20" />
  <linearGradient
     id="h"
     x1="63.76"
     x2="63.76"
     y1="37.69"
     y2="73.273"
     gradientUnits="userSpaceOnUse">
    <stop
       stop-color="#616161"
       offset="0"
       id="stop1" />
    <stop
       stop-color="#212121"
       offset="1"
       id="stop2" />
  </linearGradient>
  <path
     id="path2"
     style="fill:#393939;fill-opacity:1"
     d="M 32.509766 44.125 C 29.715786 44.126094 26.639758 44.265078 23.259766 44.580078 C 5.2098014 46.260074 4.2304687 47.939453 4.2304688 47.939453 L 4.1191406 54.75 C 4.1191406 54.75 6.8107848 55.519692 8.5507812 57.679688 C 10.290778 59.809682 11.099928 71.750871 13.919922 77.380859 C 18.289914 86.100843 40.009766 83.890625 40.009766 83.890625 C 40.009766 83.890625 48.869461 84.590845 53.189453 77.130859 C 57.17018 70.275162 58.543547 60.971434 58.744141 59.494141 C 59.671828 58.585133 61.32667 57.453693 63.859375 57.429688 C 66.7037 57.463791 68.449827 58.879572 69.294922 59.814453 C 69.602225 61.950364 71.012583 70.60674 74.800781 77.130859 C 79.120773 84.590845 87.980469 83.890625 87.980469 83.890625 C 87.980469 83.890625 109.70033 86.100843 114.07031 77.380859 C 116.89031 71.750871 117.69945 59.809682 119.43945 57.679688 C 121.17945 55.519692 123.86914 54.75 123.86914 54.75 L 123.75977 47.939453 C 123.75977 47.939453 122.79021 46.260074 104.74023 44.580078 C 85.851638 42.81975 76.497269 46.569095 72.5625 48.992188 C 71.849316 49.252376 70.630625 49.585072 69.220703 49.490234 L 68.949219 49.470703 C 67.089223 49.350703 65.330855 49.240469 63.380859 49.230469 L 63.300781 49.230469 C 62.180783 49.240469 59.790779 49.370469 58.050781 49.480469 C 57.237033 49.532969 56.514745 49.440819 55.929688 49.306641 C 55.928192 49.306298 55.927275 49.30503 55.925781 49.304688 C 52.933444 47.321734 46.028378 44.119708 32.509766 44.125 z M 31.427734 48.501953 C 32.252831 48.50844 33.121564 48.528047 34.039062 48.560547 C 48.699034 49.070545 50.809924 52.369377 51.669922 53.859375 C 52.53992 55.339373 53.239762 58.780485 51.509766 66.730469 C 49.789768 74.690453 47.630361 80.109295 32.900391 79.279297 C 23.420409 78.739297 16.820543 78.75966 15.310547 64.929688 C 14.380549 56.339704 15.420861 53.090779 16.130859 52.050781 C 16.787109 51.085158 19.051295 48.404651 31.427734 48.501953 z M 96.572266 48.501953 C 108.94871 48.404651 111.21289 51.085158 111.86914 52.050781 C 112.57914 53.090779 113.61945 56.339704 112.68945 64.929688 C 111.17945 78.75966 104.57959 78.739297 95.099609 79.279297 C 80.369639 80.109295 78.210232 74.690453 76.490234 66.730469 C 74.760238 58.780485 75.46008 55.339373 76.330078 53.859375 C 77.190076 52.369377 79.300966 49.070545 93.960938 48.560547 C 94.878436 48.528047 95.747169 48.50844 96.572266 48.501953 z " />
  <linearGradient
     id="g"
     x1="31.48"
     x2="31.48"
     y1="37.69"
     y2="73.273"
     gradientUnits="userSpaceOnUse">
    <stop
       stop-color="#616161"
       offset="0"
       id="stop3" />
    <stop
       stop-color="#212121"
       offset="1"
       id="stop4" />
  </linearGradient>
  <linearGradient
     id="f"
     x1="33.753"
     x2="33.753"
     y1="35.771"
     y2="83.24"
     gradientUnits="userSpaceOnUse">
    <stop
       stop-color="#ECEFF1"
       offset="0"
       id="stop5" />
    <stop
       stop-color="#B0BEC5"
       offset="1"
       id="stop6" />
  </linearGradient>
  <path
     id="path6"
     d="M 31.427734 48.501953 C 19.051282 48.404651 16.787109 51.085157 16.130859 52.050781 C 15.42086 53.09078 14.380548 56.339696 15.310547 64.929688 C 16.820545 78.759674 23.4204 78.739297 32.900391 79.279297 C 47.630376 80.109296 49.789767 74.690461 51.509766 66.730469 C 53.239764 58.780477 52.539921 55.339374 51.669922 53.859375 C 50.809923 52.369376 48.699048 49.070546 34.039062 48.560547 C 33.121563 48.528047 32.252831 48.50844 31.427734 48.501953 z M 96.572266 48.501953 C 95.747169 48.50844 94.878437 48.528047 93.960938 48.560547 C 79.300952 49.070546 77.190077 52.369376 76.330078 53.859375 C 75.460079 55.339374 74.760236 58.780477 76.490234 66.730469 C 78.210233 74.690461 80.369624 80.109296 95.099609 79.279297 C 104.5796 78.739297 111.17945 78.759674 112.68945 64.929688 C 113.61945 56.339696 112.57914 53.09078 111.86914 52.050781 C 111.21289 51.085157 108.94872 48.404651 96.572266 48.501953 z "
     style="fill:#2c3d3f;fill-opacity:0.30705395" />
  <path
     d="m51.67 53.86c0.87 1.48 1.57 4.92-0.16 12.87-1.72 7.96-3.88 13.38-18.61 12.55-9.48-0.54-16.08-0.52-17.59-14.35-0.93-8.59 0.11-11.84 0.82-12.88 0.7-1.03 3.23-4.01 17.91-3.49 14.66 0.51 16.77 3.81 17.63 5.3z"
     fill="none"
     id="path7" />
  <defs
     id="defs7">
    <inkscape:path-effect
       effect="fillet_chamfer"
       id="path-effect21"
       is_visible="true"
       lpeversion="1"
       nodesatellites_param="F,0,0,1,0,0,0,1 @ F,0,0,1,0,0,0,1 @ F,0,0,1,0,0,0,1 @ F,0,0,1,0,1.1538748,0,1 @ F,0,0,1,0,0,0,1 @ F,0,0,1,0,0,0,1 @ F,0,0,1,0,0,0,1"
       radius="0"
       unit="px"
       method="auto"
       mode="F"
       chamfer_steps="1"
       flexible="false"
       use_knot_distance="true"
       apply_no_radius="true"
       apply_with_radius="true"
       only_selected="false"
       hide_knots="false" />
    <path
       id="e"
       d="m51.67 53.86c0.87 1.48 1.57 4.92-0.16 12.87-1.72 7.96-3.88 13.38-18.61 12.55-9.48-0.54-16.08-0.52-17.59-14.35-0.93-8.59 0.11-11.84 0.82-12.88 0.7-1.03 3.23-4.01 17.91-3.49 14.66 0.51 16.77 3.81 17.63 5.3z" />
  </defs>
  <clipPath
     id="d">
    <use
       xlink:href="#e"
       id="use7" />
  </clipPath>
  <g
     clip-path="url(#d)"
     id="g10">
    <linearGradient
       id="c"
       x1="12.116"
       x2="12.116"
       y1="47.138"
       y2="47.057"
       gradientUnits="userSpaceOnUse">
      <stop
         stop-color="#9E9E9E"
         offset="0"
         id="stop7" />
      <stop
         stop-color="#616161"
         offset="1"
         id="stop8" />
    </linearGradient>
    <path
       d="m12.27 47.06c-0.11 0-0.21 0.03-0.31 0.06 0.1-0.03 0.21-0.06 0.31-0.06z"
       fill="url(#c)"
       id="path8" />
    <linearGradient
       id="b"
       x1="11.751"
       x2="11.751"
       y1="47.386"
       y2="47.146"
       gradientUnits="userSpaceOnUse">
      <stop
         stop-color="#9E9E9E"
         offset="0"
         id="stop9" />
      <stop
         stop-color="#616161"
         offset="1"
         id="stop10" />
    </linearGradient>
    <path
       d="m11.61 47.35c0.08-0.08 0.18-0.14 0.28-0.19-0.1 0.04-0.2 0.1-0.28 0.19z"
       fill="url(#b)"
       id="path10" />
  </g>
  <g
     opacity=".2"
     id="g11">
    <path
       d="m30.79 49.5c1.02 0 2.1 0.02 3.21 0.06 14.32 0.5 16.12 3.63 16.81 4.81 0.64 1.1 1.47 4.14-0.28 12.15-1.59 7.37-3.38 11.84-14.79 11.84-0.88 0-1.81-0.03-2.79-0.08l-0.77-0.04c-9.04-0.5-14.5-0.8-15.88-13.42-1-9.24 0.36-11.79 0.65-12.21 1.36-2.01 6.27-3.11 13.84-3.11m0-1c-11.82 0-14.02 2.6-14.67 3.55-0.71 1.04-1.75 4.29-0.82 12.88 1.51 13.84 8.11 13.81 17.59 14.35 1.01 0.06 1.95 0.09 2.85 0.09 12.18 0 14.16-5.22 15.77-12.63 1.73-7.95 1.03-11.39 0.16-12.87-0.86-1.49-2.97-4.79-17.63-5.31-1.16-0.04-2.24-0.06-3.25-0.06z"
       fill="#424242"
       id="path11" />
  </g>
  <linearGradient
     id="a"
     x1="96.52"
     x2="96.52"
     y1="37.69"
     y2="73.273"
     gradientUnits="userSpaceOnUse">
    <stop
       stop-color="#616161"
       offset="0"
       id="stop11" />
    <stop
       stop-color="#212121"
       offset="1"
       id="stop12" />
  </linearGradient>
  <linearGradient
     id="m"
     x1="94.247"
     x2="94.247"
     y1="35.771"
     y2="83.24"
     gradientUnits="userSpaceOnUse">
    <stop
       stop-color="#ECEFF1"
       offset="0"
       id="stop13" />
    <stop
       stop-color="#B0BEC5"
       offset="1"
       id="stop14" />
  </linearGradient>
  <defs
     id="defs14">
    <path
       id="l"
       d="m76.33 53.86c-0.87 1.48-1.57 4.92 0.16 12.87 1.72 7.96 3.88 13.38 18.61 12.55 9.48-0.54 16.08-0.52 17.59-14.35 0.93-8.59-0.11-11.84-0.82-12.88-0.7-1.03-3.23-4.01-17.91-3.49-14.66 0.51-16.77 3.81-17.63 5.3z" />
  </defs>
  <clipPath
     id="k">
    <use
       xlink:href="#l"
       id="use14" />
  </clipPath>
  <g
     clip-path="url(#k)"
     id="g18">
    <linearGradient
       id="j"
       x1="-67.089"
       x2="-67.089"
       y1="47.138"
       y2="47.057"
       gradientTransform="matrix(-1 0 0 1 49.124 0)"
       gradientUnits="userSpaceOnUse">
      <stop
         stop-color="#9E9E9E"
         offset="0"
         id="stop15" />
      <stop
         stop-color="#616161"
         offset="1"
         id="stop16" />
    </linearGradient>
    <path
       d="m116.06 47.06c0.11 0 0.21 0.03 0.31 0.06-0.1-0.03-0.21-0.06-0.31-0.06z"
       fill="url(#j)"
       id="path16" />
    <linearGradient
       id="i"
       x1="-67.454"
       x2="-67.454"
       y1="47.386"
       y2="47.146"
       gradientTransform="matrix(-1 0 0 1 49.124 0)"
       gradientUnits="userSpaceOnUse">
      <stop
         stop-color="#9E9E9E"
         offset="0"
         id="stop17" />
      <stop
         stop-color="#616161"
         offset="1"
         id="stop18" />
    </linearGradient>
    <path
       d="m116.72 47.35c-0.08-0.08-0.18-0.14-0.28-0.19 0.1 0.04 0.19 0.1 0.28 0.19z"
       fill="url(#i)"
       id="path18" />
  </g>
  <g
     opacity=".2"
     id="g19">
    <path
       d="m97.21 49.5c7.57 0 12.48 1.11 13.84 3.11 0.28 0.42 1.65 2.97 0.65 12.21-1.38 12.61-6.84 12.92-15.88 13.42l-0.77 0.04c-0.98 0.06-1.91 0.08-2.79 0.08-11.41 0-13.2-4.47-14.79-11.84-1.74-8.01-0.92-11.05-0.27-12.16 0.68-1.18 2.48-4.3 16.8-4.81 1.12-0.03 2.19-0.05 3.21-0.05m0-1c-1.01 0-2.09 0.02-3.24 0.06-14.67 0.52-16.77 3.81-17.63 5.31-0.87 1.48-1.57 4.92 0.16 12.87 1.6 7.42 3.59 12.63 15.77 12.63 0.89 0 1.84-0.03 2.85-0.09 9.48-0.54 16.08-0.52 17.59-14.35 0.93-8.59-0.11-11.84-0.82-12.88-0.65-0.95-2.86-3.55-14.68-3.55z"
       fill="#424242"
       id="path19" />
  </g>
  <g
     opacity=".2"
     id="g20">
    <path
       d="m95.46 46.12c2.86 0 5.92 0.15 9.1 0.45 11.42 1.06 15.73 2.12 17.23 2.61l0.07 4.21c-1.14 0.53-2.72 1.48-3.96 3.02-1.08 1.32-1.64 4.01-2.54 8.64-0.79 4.06-1.69 8.67-3.07 11.42-1.8 3.59-8.52 5.66-18.43 5.66-3.27 0-5.65-0.24-5.68-0.24-0.07-0.01-0.13-0.01-0.2-0.01-0.05 0-0.1 0-0.15 0.01-0.03 0-0.19 0.01-0.46 0.01-1.76 0-7.74-0.42-10.85-5.78-3.42-5.89-4.89-14.17-5.26-16.57-0.06-0.38-0.23-0.74-0.49-1.03-1.01-1.13-3.26-3.03-6.96-3.07-3.16 0.03-5.26 1.44-6.46 2.61-0.32 0.31-0.52 0.71-0.59 1.15-0.25 1.73-1.7 10.69-5.31 16.91-3.11 5.36-9.09 5.78-10.84 5.78-0.26 0-0.42-0.01-0.45-0.01-0.05 0-0.1-0.01-0.16-0.01-0.07 0-0.13 0-0.2 0.01-0.02 0-2.41 0.24-5.68 0.24-9.91 0-16.62-2.06-18.43-5.66-1.38-2.75-2.28-7.36-3.07-11.42-0.9-4.64-1.46-7.32-2.53-8.64-1.24-1.54-2.82-2.49-3.96-3.02l0.07-4.21c1.5-0.5 5.8-1.55 17.23-2.61 3.18-0.3 6.24-0.45 9.1-0.45 13.06 0 19.6 3.05 22.33 4.87 0.2 0.14 0.43 0.23 0.67 0.29 0.68 0.15 1.37 0.23 2.05 0.23 0.19 0 0.39-0.01 0.59-0.02 1.7-0.11 4.07-0.36 5.14-0.37 0.03 0 0.02-0.12 0.05-0.12h0.03c1.88 0 3.6 0.24 5.42 0.35l0.27 0.08c0.21 0.01 0.41 0.05 0.61 0.05 1.47 0 2.73-0.33 3.52-0.61 0.13-0.05 0.25-0.1 0.37-0.17 2.78-1.71 9.31-4.58 21.88-4.58m-62.92-2c-2.8 0-5.89 0.14-9.28 0.45-18.05 1.69-19.03 3.37-19.03 3.37l-0.11 6.81s2.69 0.77 4.43 2.93c1.74 2.13 2.55 14.07 5.37 19.7 2.9 5.79 13.45 6.76 20.21 6.76 3.42 0 5.88-0.25 5.88-0.25s0.22 0.02 0.6 0.02c2.07 0 8.93-0.49 12.58-6.78 3.73-6.43 5.22-15.32 5.56-17.62 0.93-0.91 2.58-2.02 5.09-2.05 2.86 0.03 4.61 1.47 5.45 2.4 0.42 2.75 1.94 11.13 5.51 17.27 3.64 6.28 10.51 6.78 12.58 6.78 0.39 0 0.6-0.02 0.6-0.02s2.45 0.25 5.88 0.25c6.76 0 17.31-0.97 20.21-6.76 2.82-5.62 3.63-17.56 5.37-19.7 1.74-2.16 4.43-2.93 4.43-2.93l-0.11-6.81s-0.97-1.68-19.02-3.36c-3.39-0.32-6.48-0.45-9.28-0.45-12.82 0-19.7 2.89-22.92 4.88-0.63 0.23-1.65 0.51-2.85 0.51-0.16 0-0.32 0-0.48-0.02l-0.27-0.02c-1.86-0.12-3.62-0.23-5.57-0.24h-0.08c-1.12 0.01-3.51 0.14-5.25 0.25-0.16 0.01-0.31 0.01-0.46 0.01-0.61 0-1.15-0.08-1.61-0.18-2.97-1.97-9.89-5.2-23.43-5.2z"
       fill="#eee"
       id="path20" />
  </g>
  <path
     style="fill:#ffffff;fill-opacity:0.3361"
     d="m 19.751066,61.872122 c -1.328094,0.193118 -2.400682,-0.872975 -2.29156,-3.601022 0.109121,-2.728048 0.730607,-5.2724 3.164535,-6.547315 2.29156,-1.200341 10.660889,-1.379862 11.4578,-0.763854 0.796911,0.616008 1.309463,0.763854 0.327366,2.073317 -0.667698,0.890264 -8.402387,-0.54561 -9.930094,1.200341 -1.527706,1.74595 -0.327365,3.055414 -0.982097,5.019608 -0.371656,1.114967 -0.417857,2.425808 -1.74595,2.618925 z"
     id="path21"
     sodipodi:nodetypes="zsszsssz" />
  <path
     style="fill:#ffffff;fill-opacity:0.3361"
     d="m 80.313726,63.181585 c -1.328094,0.193118 -2.400682,-0.872975 -2.29156,-3.601022 0.109121,-2.728048 0.730607,-5.2724 3.164535,-6.547315 2.29156,-1.200341 6.841623,-2.580203 7.638534,-1.964195 0.796911,0.616008 1.309463,0.763854 0.327366,2.073317 -0.667698,0.890264 -4.583121,0.654731 -6.110828,2.400682 -1.527706,1.74595 -0.327365,3.055414 -0.982097,5.019608 -0.371656,1.114967 -0.417857,2.425808 -1.74595,2.618925 z"
     id="path22"
     sodipodi:nodetypes="zsszsssz" />
</svg>
