<?xml version="1.0" encoding="utf-8"?>
<!-- Generator: Adobe Illustrator 21.1.0, SVG Export Plug-In . SVG Version: 6.00 Build 0)  -->
<svg version="1.1" id="Icons" xmlns="http://www.w3.org/2000/svg" xmlns:xlink="http://www.w3.org/1999/xlink" x="0px" y="0px"
	 viewBox="0 0 48 48" style="enable-background:new 0 0 48 48;" xml:space="preserve">
<style type="text/css">
	.st0{fill:#FFE500;}
	.st1{fill:#EBCB00;}
	.st2{fill:#FFF48C;}
	.st3{opacity:0.15;fill:#45413C;}
	.st4{fill:none;stroke:#45413C;stroke-linecap:round;stroke-linejoin:round;stroke-miterlimit:10;}
	.st5{fill:#FFAA54;}
	.st6{fill:#FFB0CA;stroke:#45413C;stroke-linecap:round;stroke-linejoin:round;stroke-miterlimit:10;}
	.st7{fill:#FF87AF;stroke:#45413C;stroke-linecap:round;stroke-linejoin:round;stroke-miterlimit:10;}
	.st8{fill:#00B8F0;}
	.st9{fill:#4ACFFF;}
	.st10{fill:#FFFFFF;stroke:#45413C;stroke-linecap:round;stroke-linejoin:round;stroke-miterlimit:10;}
	.st11{fill:#45413C;stroke:#45413C;stroke-linecap:round;stroke-linejoin:round;stroke-miterlimit:10;}
	.st12{fill:#009FD9;}
	.st13{fill:none;stroke:#45413C;stroke-linecap:round;stroke-miterlimit:10;}
	.st14{fill:#FFFFFF;stroke:#45413C;stroke-linejoin:round;stroke-miterlimit:10;}
	.st15{fill:#FF6242;}
	.st16{fill:#FF866E;}
	.st17{fill:#656769;}
	.st18{fill:#87898C;}
	.st19{fill:#4AEFF7;stroke:#45413C;stroke-linecap:round;stroke-linejoin:round;stroke-miterlimit:10;}
	.st20{fill:none;stroke:#48CF3E;stroke-linecap:round;stroke-linejoin:round;stroke-miterlimit:10;}
	.st21{fill:none;stroke:#FF4064;stroke-linecap:round;stroke-linejoin:round;stroke-miterlimit:10;}
	.st22{fill:none;stroke:#FFB700;stroke-linecap:round;stroke-linejoin:round;stroke-miterlimit:10;}
	.st23{fill:none;stroke:#00AED9;stroke-linecap:round;stroke-linejoin:round;stroke-miterlimit:10;}
	.st24{fill:#FFFACF;}
	.st25{fill:#45413C;}
	.st26{fill:#FF866E;stroke:#45413C;stroke-linecap:round;stroke-linejoin:round;stroke-miterlimit:10;}
	.st27{fill:#DABFF5;stroke:#45413C;stroke-linejoin:round;stroke-miterlimit:10;}
	.st28{fill:#EDDBFF;}
	.st29{fill:none;stroke:#45413C;stroke-linejoin:round;stroke-miterlimit:10;}
	.st30{fill:#6DD627;}
	.st31{fill:#46B000;}
	.st32{fill:#C8FFA1;}
	.st33{fill:url(#XMLID_91_);}
	.st34{fill:url(#XMLID_92_);}
	.st35{fill:#F0F0F0;stroke:#45413C;stroke-linecap:round;stroke-linejoin:round;stroke-miterlimit:10;}
	.st36{fill:#EBCB00;stroke:#45413C;stroke-linecap:round;stroke-linejoin:round;stroke-miterlimit:10;}
	.st37{fill:#BDBEC0;stroke:#45413C;stroke-linecap:round;stroke-linejoin:round;stroke-miterlimit:10;}
	.st38{fill:#F0F0F0;}
	.st39{fill:#FFFFFF;}
	.st40{fill:url(#XMLID_93_);}
	.st41{fill:url(#XMLID_94_);}
	.st42{fill:#FFE500;stroke:#45413C;stroke-linecap:round;stroke-linejoin:round;stroke-miterlimit:10;}
	.st43{fill:#E04122;}
	.st44{fill:#8CFFE4;stroke:#45413C;stroke-linecap:round;stroke-linejoin:round;stroke-miterlimit:10;}
	.st45{fill:#E5FFF9;}
	.st46{fill:#E0E0E0;}
	.st47{fill:#9CEB60;}
	.st48{fill:#6DD627;stroke:#45413C;stroke-linecap:round;stroke-linejoin:round;stroke-miterlimit:10;}
	.st49{fill:#E8F4FA;}
	.st50{fill:#F0D5A8;}
	.st51{fill:#DEBB7E;}
	.st52{fill:#B89558;}
	.st53{fill:#00B8F0;stroke:#45413C;stroke-linecap:round;stroke-linejoin:round;stroke-miterlimit:10;}
	.st54{fill:#FFFCE5;}
	.st55{fill:#FF87AF;}
	.st56{fill:#4ACFFF;stroke:#45413C;stroke-linecap:round;stroke-linejoin:round;stroke-miterlimit:10;}
	.st57{fill:#E5F8FF;}
	.st58{fill:none;stroke:#45413C;stroke-miterlimit:10;}
	.st59{fill:none;stroke:#FF6242;stroke-linecap:round;stroke-linejoin:round;stroke-miterlimit:10;}
	.st60{fill:#BDBEC0;}
	.st61{fill:#B89558;stroke:#45413C;stroke-linecap:round;stroke-linejoin:round;stroke-miterlimit:10;}
	.st62{fill:#FF6242;stroke:#45413C;stroke-linecap:round;stroke-linejoin:round;stroke-miterlimit:10;}
	.st63{fill:#525252;stroke:#45413C;stroke-linecap:round;stroke-linejoin:round;stroke-miterlimit:10;}
	.st64{fill:#525252;}
	.st65{fill:#00DBA8;}
	.st66{fill:#00AD85;}
	.st67{fill:#BF8DF2;}
	.st68{fill:#DABFF5;}
	.st69{fill:#00F5BC;}
	.st70{fill:#DAEDF7;}
	.st71{fill:#C0DCEB;}
	.st72{fill:#ADC4D9;}
	.st73{fill:#ADC4D9;stroke:#45413C;stroke-linecap:round;stroke-linejoin:round;stroke-miterlimit:10;}
	.st74{fill:#00DFEB;stroke:#45413C;stroke-linecap:round;stroke-linejoin:round;stroke-miterlimit:10;}
	.st75{fill:#627B8C;stroke:#45413C;stroke-linecap:round;stroke-linejoin:round;stroke-miterlimit:10;}
	.st76{fill:#8CA4B8;}
	.st77{fill:#00DBA8;stroke:#45413C;stroke-linecap:round;stroke-linejoin:round;stroke-miterlimit:10;}
	.st78{fill:#FF8A14;}
	.st79{fill:#BF8256;}
	.st80{fill:#DEA47A;}
	.st81{fill:#915E3A;}
	.st82{fill:#FFA694;}
	.st83{fill:#E5FEFF;stroke:#45413C;stroke-linecap:round;stroke-linejoin:round;stroke-miterlimit:10;}
	.st84{fill:#803EC2;stroke:#45413C;stroke-linecap:round;stroke-linejoin:round;stroke-miterlimit:10;}
	.st85{fill:#9F5AE5;}
	.st86{fill:#803EC2;}
</style>
<g id="XMLID_735_">
	<ellipse id="XMLID_89_" class="st3" cx="24" cy="45" rx="9.5" ry="1.5"/>
	<path class="st0" d="M32.7,22.4c0,0.1,0.1,0.2,0.1,0.3c0,1.4-3.9,2.5-8.8,2.5c-4.9,0-8.8-1.1-8.8-2.5c0-0.1,0-0.2,0.1-0.3
		c-1.9,2.1-3,4.8-3,7.8C12.3,36.7,17.5,42,24,42s11.7-5.3,11.7-11.7C35.7,27.3,34.6,24.5,32.7,22.4z"/>
	<path class="st1" d="M32.7,22.4c0,0.1,0.1,0.2,0.1,0.3c0,0.2-0.1,0.3-0.2,0.5c1.3,1.8,2.1,4,2.1,6.3c0,5.9-4.8,10.7-10.7,10.7
		s-10.7-4.8-10.7-10.7c0-2.4,0.8-4.6,2.1-6.3c-0.1-0.2-0.2-0.3-0.2-0.5c0-0.1,0-0.2,0.1-0.3c-1.9,2.1-3,4.8-3,7.8
		C12.3,36.7,17.5,42,24,42s11.7-5.3,11.7-11.7C35.7,27.3,34.6,24.5,32.7,22.4z"/>
	<path class="st4" d="M32.7,22.4c0,0.1,0.1,0.2,0.1,0.3c0,1.4-3.9,2.5-8.8,2.5c-4.9,0-8.8-1.1-8.8-2.5c0-0.1,0-0.2,0.1-0.3
		c-1.9,2.1-3,4.8-3,7.8C12.3,36.7,17.5,42,24,42s11.7-5.3,11.7-11.7C35.7,27.3,34.6,24.5,32.7,22.4z"/>
	<ellipse id="XMLID_2308_" class="st5" cx="31" cy="33.2" rx="1.5" ry="0.9"/>
	<ellipse id="XMLID_2307_" class="st5" cx="17" cy="33.2" rx="1.5" ry="0.9"/>
	<ellipse id="XMLID_2306_" class="st11" cx="18.9" cy="28.2" rx="0.9" ry="1.3"/>
	<ellipse id="XMLID_88_" class="st11" cx="29.1" cy="28.2" rx="0.9" ry="1.3"/>
	<circle id="XMLID_87_" class="st7" cx="24" cy="35.9" r="2.6"/>
	<circle id="XMLID_86_" class="st35" cx="38.6" cy="19.1" r="1.8"/>
	<path id="XMLID_85_" class="st35" d="M10.5,17.7c-0.5,0.1-0.8,0.4-0.9,0.9c-0.3-0.2-0.7-0.3-1.1-0.3c-1.2,0-2.2,1-2.2,2.2
		s1,2.2,2.2,2.2s2.2-1,2.2-2.2c0-0.2,0-0.4-0.1-0.6c0.1,0,0.2,0,0.3,0c0.6-0.1,1-0.7,0.9-1.3C11.7,18,11.1,17.6,10.5,17.7z"/>
	<ellipse id="XMLID_80_" class="st36" cx="24" cy="22.7" rx="8.8" ry="2.5"/>
	<path class="st37" d="M18.5,24.7c1.5,0.3,3.4,0.5,5.5,0.5s4-0.2,5.5-0.5c-0.6-1.4-1-2.9-1-4.4c0-1.8,0.4-3,0.9-4.1H18.7
		c0.5,1.1,0.9,2.2,0.9,4.1C19.6,21.8,19.1,23.3,18.5,24.7z"/>
	<path class="st38" d="M34,6.2c0-0.1,0-0.2,0-0.3c0-1.6-1.3-2.9-2.9-2.9c-0.4,0-0.8,0.1-1.2,0.3C28.7,1.3,26.5,0,24,0
		s-4.7,1.3-5.9,3.2c-0.4-0.2-0.8-0.3-1.2-0.3c-1.6,0-2.9,1.3-2.9,2.9c0,0.1,0,0.2,0,0.3c-2.3,1.1-3.8,2.6-3.8,4.3
		c0,1.6,1.3,3.1,3.5,4.2c0.6,2.2,2.5,3.8,4.9,3.8c1.5,0,2.9-0.7,3.8-1.7c0.4,0.4,1.1,0.8,1.7,0.8s1.3-0.3,1.7-0.8
		c0.9,1.1,2.3,1.7,3.8,1.7c2.3,0,4.3-1.6,4.9-3.8c2.2-1.1,3.5-2.6,3.5-4.2C37.8,8.8,36.4,7.3,34,6.2z"/>
	<path id="XMLID_79_" class="st39" d="M14,9.5c0-0.1,0-0.2,0-0.3c0-1.6,1.3-2.9,2.9-2.9c0.4,0,0.8,0.1,1.2,0.3
		c1.3-1.9,3.5-3.2,5.9-3.2s4.7,1.3,5.9,3.2c0.4-0.2,0.8-0.3,1.2-0.3c1.6,0,2.9,1.3,2.9,2.9c0,0.1,0,0.2,0,0.3
		c1.5,0.7,2.7,1.6,3.3,2.6c0.3-0.5,0.5-1.1,0.5-1.7c0-1.7-1.5-3.2-3.8-4.3c0-0.1,0-0.2,0-0.3c0-1.6-1.3-2.9-2.9-2.9
		c-0.4,0-0.8,0.1-1.2,0.3C28.7,1.3,26.5,0,24,0s-4.7,1.3-5.9,3.2c-0.4-0.2-0.8-0.3-1.2-0.3c-1.6,0-2.9,1.3-2.9,2.9
		c0,0.1,0,0.2,0,0.3c-2.3,1.1-3.8,2.6-3.8,4.3c0,0.6,0.2,1.1,0.5,1.7C11.3,11.2,12.4,10.2,14,9.5z"/>
	<path class="st4" d="M34,6.2c0-0.1,0-0.2,0-0.3c0-1.6-1.3-2.9-2.9-2.9c-0.4,0-0.8,0.1-1.2,0.3C28.7,1.3,26.5,0,24,0
		s-4.7,1.3-5.9,3.2c-0.4-0.2-0.8-0.3-1.2-0.3c-1.6,0-2.9,1.3-2.9,2.9c0,0.1,0,0.2,0,0.3c-2.3,1.1-3.8,2.6-3.8,4.3
		c0,1.6,1.3,3.1,3.5,4.2c0.6,2.2,2.5,3.8,4.9,3.8c1.5,0,2.9-0.7,3.8-1.7c0.4,0.4,1.1,0.8,1.7,0.8s1.3-0.3,1.7-0.8
		c0.9,1.1,2.3,1.7,3.8,1.7c2.3,0,4.3-1.6,4.9-3.8c2.2-1.1,3.5-2.6,3.5-4.2C37.8,8.8,36.4,7.3,34,6.2z"/>
	<path id="XMLID_78_" class="st35" d="M21.4,25.1c0.6-1.4,0.8-3,1-4.5"/>
	<path id="XMLID_77_" class="st35" d="M26.1,25.2c0,0-0.4-0.6-0.4-2.9"/>
	<line id="XMLID_76_" class="st4" x1="25.7" y1="16.7" x2="25.7" y2="19.4"/>
</g>
</svg>
