<?xml version="1.0" encoding="utf-8"?>
<!-- Generator: Adobe Illustrator 21.1.0, SVG Export Plug-In . SVG Version: 6.00 Build 0)  -->
<svg version="1.1" id="Icons" xmlns="http://www.w3.org/2000/svg" xmlns:xlink="http://www.w3.org/1999/xlink" x="0px" y="0px"
	 viewBox="0 0 48 48" style="enable-background:new 0 0 48 48;" xml:space="preserve">
<style type="text/css">
	.st0{fill:#FFE500;}
	.st1{fill:#EBCB00;}
	.st2{fill:#FFF48C;}
	.st3{opacity:0.15;fill:#45413C;}
	.st4{fill:none;stroke:#45413C;stroke-linecap:round;stroke-linejoin:round;stroke-miterlimit:10;}
	.st5{fill:#FFAA54;}
	.st6{fill:#FFB0CA;stroke:#45413C;stroke-linecap:round;stroke-linejoin:round;stroke-miterlimit:10;}
	.st7{fill:#FF87AF;stroke:#45413C;stroke-linecap:round;stroke-linejoin:round;stroke-miterlimit:10;}
	.st8{fill:#00B8F0;}
	.st9{fill:#4ACFFF;}
	.st10{fill:#FFFFFF;stroke:#45413C;stroke-linecap:round;stroke-linejoin:round;stroke-miterlimit:10;}
	.st11{fill:#45413C;stroke:#45413C;stroke-linecap:round;stroke-linejoin:round;stroke-miterlimit:10;}
	.st12{fill:#009FD9;}
	.st13{fill:none;stroke:#45413C;stroke-linecap:round;stroke-miterlimit:10;}
	.st14{fill:#FFFFFF;stroke:#45413C;stroke-linejoin:round;stroke-miterlimit:10;}
	.st15{fill:#FF6242;}
	.st16{fill:#FF866E;}
	.st17{fill:#656769;}
	.st18{fill:#87898C;}
	.st19{fill:#4AEFF7;stroke:#45413C;stroke-linecap:round;stroke-linejoin:round;stroke-miterlimit:10;}
	.st20{fill:none;stroke:#48CF3E;stroke-linecap:round;stroke-linejoin:round;stroke-miterlimit:10;}
	.st21{fill:none;stroke:#FF4064;stroke-linecap:round;stroke-linejoin:round;stroke-miterlimit:10;}
	.st22{fill:none;stroke:#FFB700;stroke-linecap:round;stroke-linejoin:round;stroke-miterlimit:10;}
	.st23{fill:none;stroke:#00AED9;stroke-linecap:round;stroke-linejoin:round;stroke-miterlimit:10;}
	.st24{fill:#FFFACF;}
	.st25{fill:#45413C;}
	.st26{fill:#FF866E;stroke:#45413C;stroke-linecap:round;stroke-linejoin:round;stroke-miterlimit:10;}
	.st27{fill:#DABFF5;stroke:#45413C;stroke-linejoin:round;stroke-miterlimit:10;}
	.st28{fill:#EDDBFF;}
	.st29{fill:none;stroke:#45413C;stroke-linejoin:round;stroke-miterlimit:10;}
	.st30{fill:#6DD627;}
	.st31{fill:#46B000;}
	.st32{fill:#C8FFA1;}
	.st33{fill:url(#XMLID_91_);}
	.st34{fill:url(#XMLID_92_);}
	.st35{fill:#F0F0F0;stroke:#45413C;stroke-linecap:round;stroke-linejoin:round;stroke-miterlimit:10;}
	.st36{fill:#EBCB00;stroke:#45413C;stroke-linecap:round;stroke-linejoin:round;stroke-miterlimit:10;}
	.st37{fill:#BDBEC0;stroke:#45413C;stroke-linecap:round;stroke-linejoin:round;stroke-miterlimit:10;}
	.st38{fill:#F0F0F0;}
	.st39{fill:#FFFFFF;}
	.st40{fill:url(#XMLID_93_);}
	.st41{fill:url(#XMLID_94_);}
	.st42{fill:#FFE500;stroke:#45413C;stroke-linecap:round;stroke-linejoin:round;stroke-miterlimit:10;}
	.st43{fill:#E04122;}
	.st44{fill:#8CFFE4;stroke:#45413C;stroke-linecap:round;stroke-linejoin:round;stroke-miterlimit:10;}
	.st45{fill:#E5FFF9;}
	.st46{fill:#E0E0E0;}
	.st47{fill:#9CEB60;}
	.st48{fill:#6DD627;stroke:#45413C;stroke-linecap:round;stroke-linejoin:round;stroke-miterlimit:10;}
	.st49{fill:#E8F4FA;}
	.st50{fill:#F0D5A8;}
	.st51{fill:#DEBB7E;}
	.st52{fill:#B89558;}
	.st53{fill:#00B8F0;stroke:#45413C;stroke-linecap:round;stroke-linejoin:round;stroke-miterlimit:10;}
	.st54{fill:#FFFCE5;}
	.st55{fill:#FF87AF;}
	.st56{fill:#4ACFFF;stroke:#45413C;stroke-linecap:round;stroke-linejoin:round;stroke-miterlimit:10;}
	.st57{fill:#E5F8FF;}
	.st58{fill:none;stroke:#45413C;stroke-miterlimit:10;}
	.st59{fill:none;stroke:#FF6242;stroke-linecap:round;stroke-linejoin:round;stroke-miterlimit:10;}
	.st60{fill:#BDBEC0;}
	.st61{fill:#B89558;stroke:#45413C;stroke-linecap:round;stroke-linejoin:round;stroke-miterlimit:10;}
	.st62{fill:#FF6242;stroke:#45413C;stroke-linecap:round;stroke-linejoin:round;stroke-miterlimit:10;}
	.st63{fill:#525252;stroke:#45413C;stroke-linecap:round;stroke-linejoin:round;stroke-miterlimit:10;}
	.st64{fill:#525252;}
	.st65{fill:#00DBA8;}
	.st66{fill:#00AD85;}
	.st67{fill:#BF8DF2;}
	.st68{fill:#DABFF5;}
	.st69{fill:#00F5BC;}
	.st70{fill:#DAEDF7;}
	.st71{fill:#C0DCEB;}
	.st72{fill:#ADC4D9;}
	.st73{fill:#ADC4D9;stroke:#45413C;stroke-linecap:round;stroke-linejoin:round;stroke-miterlimit:10;}
	.st74{fill:#00DFEB;stroke:#45413C;stroke-linecap:round;stroke-linejoin:round;stroke-miterlimit:10;}
	.st75{fill:#627B8C;stroke:#45413C;stroke-linecap:round;stroke-linejoin:round;stroke-miterlimit:10;}
	.st76{fill:#8CA4B8;}
	.st77{fill:#00DBA8;stroke:#45413C;stroke-linecap:round;stroke-linejoin:round;stroke-miterlimit:10;}
	.st78{fill:#FF8A14;}
	.st79{fill:#BF8256;}
	.st80{fill:#DEA47A;}
	.st81{fill:#915E3A;}
	.st82{fill:#FFA694;}
	.st83{fill:#E5FEFF;stroke:#45413C;stroke-linecap:round;stroke-linejoin:round;stroke-miterlimit:10;}
	.st84{fill:#803EC2;stroke:#45413C;stroke-linecap:round;stroke-linejoin:round;stroke-miterlimit:10;}
	.st85{fill:#9F5AE5;}
	.st86{fill:#803EC2;}
</style>
<g id="XMLID_4852_">
	<circle id="XMLID_4867_" class="st0" cx="21.5" cy="21.5" r="20"/>
	<path id="XMLID_4864_" class="st1" d="M21.5,1.5c-11,0-20,9-20,20s9,20,20,20s20-9,20-20S32.5,1.5,21.5,1.5z M21.5,38.5
		c-10.1,0-18.2-8.2-18.2-18.2C3.3,10.2,11.4,2,21.5,2s18.2,8.2,18.2,18.2C39.8,30.3,31.6,38.5,21.5,38.5z"/>
	<ellipse id="XMLID_4863_" class="st2" cx="21.5" cy="5.5" rx="6" ry="1.5"/>
	<path id="XMLID_4862_" class="st1" d="M39.4,30.4C39.4,30.5,39.4,30.5,39.4,30.4c-1.8,3.6-4.7,6.6-8.2,8.5l-1.1-2.6l-0.5-1.3
		c-0.8-1.8-0.7-3.9,0.2-5.9c0.8-1.7,2.2-2.9,3.9-3.3c1.8-0.4,3.6,0.3,4.6,1.7c0.3,0.4,0.6,0.9,0.8,1.5L39.4,30.4z"/>
	<ellipse id="XMLID_4861_" class="st3" cx="21.5" cy="45.5" rx="16" ry="1.5"/>
	<circle id="XMLID_4860_" class="st4" cx="21.5" cy="21.5" r="20"/>
	<g id="XMLID_4856_">
		<path id="XMLID_4859_" class="st15" d="M46,29.9c0.7,1.2,0.7,2.8,0.1,4.1c-0.7,1.5-2,2.7-3.4,3.2L34.4,40l-3.4-8
			c-0.6-1.4-0.6-3.2,0.1-4.7c0.6-1.4,1.8-2.4,3.1-2.7c1.9-0.4,3.7,0.6,4.3,2.6l0.6,2.1l2-0.9C43,27.5,45,28.2,46,29.9z"/>
		<path id="XMLID_4858_" class="st16" d="M32.5,28.4c1.9-0.4,3.7,0.6,4.3,2.6l0.6,2.1l2-0.9c1.8-0.8,3.8-0.2,4.8,1.5
			c0.4,0.6,0.5,1.4,0.5,2.2c0.5-0.5,1-1.1,1.3-1.8c0.6-1.4,0.6-2.9-0.1-4.1c-1-1.7-3-2.4-4.8-1.5l-2,0.9l-0.6-2.1
			c-0.6-1.9-2.4-3-4.3-2.6c-1.4,0.3-2.5,1.3-3.1,2.7c-0.3,0.7-0.5,1.4-0.5,2.2C31.1,28.9,31.8,28.6,32.5,28.4z"/>
		<path id="XMLID_4857_" class="st4" d="M46,29.9c0.7,1.2,0.7,2.8,0.1,4.1c-0.7,1.5-2,2.7-3.4,3.2L34.4,40l-3.4-8
			c-0.6-1.4-0.6-3.2,0.1-4.7c0.6-1.4,1.8-2.4,3.1-2.7c1.9-0.4,3.7,0.6,4.3,2.6l0.6,2.1l2-0.9C43,27.5,45,28.2,46,29.9z"/>
	</g>
	<g id="XMLID_4853_">
		<g id="XMLID_4854_">
			<path id="XMLID_4855_" class="st4" d="M21.5,28.3c0.3-0.2,0.6-0.3,1-0.3c1.1,0,2,0.9,2,2s-0.9,2-2,2c1.1,0,2,0.9,2,2s-0.9,2-2,2
				c-0.4,0-0.7-0.1-1-0.3"/>
		</g>
	</g>
	<ellipse id="XMLID_7240_" class="st5" cx="9.5" cy="26.5" rx="2.5" ry="1.5"/>
	<path id="XMLID_7239_" class="st4" d="M35.5,20.5c0,1-0.8,1.8-1.8,1.8S32,21.5,32,20.5"/>
	<path id="XMLID_7238_" class="st4" d="M11,20.5c0,1-0.8,1.8-1.8,1.8s-1.8-0.8-1.8-1.8"/>
</g>
</svg>
