<?xml version="1.0" encoding="utf-8"?>
<!-- Generator: Adobe Illustrator 21.1.0, SVG Export Plug-In . SVG Version: 6.00 Build 0)  -->
<svg version="1.1" id="Icons" xmlns="http://www.w3.org/2000/svg" xmlns:xlink="http://www.w3.org/1999/xlink" x="0px" y="0px"
	 viewBox="0 0 48 48" style="enable-background:new 0 0 48 48;" xml:space="preserve">
<style type="text/css">
	.st0{fill:#FFE500;}
	.st1{fill:#EBCB00;}
	.st2{fill:#FFF48C;}
	.st3{opacity:0.15;fill:#45413C;}
	.st4{fill:none;stroke:#45413C;stroke-linecap:round;stroke-linejoin:round;stroke-miterlimit:10;}
	.st5{fill:#FFAA54;}
	.st6{fill:#FFB0CA;stroke:#45413C;stroke-linecap:round;stroke-linejoin:round;stroke-miterlimit:10;}
	.st7{fill:#FF87AF;stroke:#45413C;stroke-linecap:round;stroke-linejoin:round;stroke-miterlimit:10;}
	.st8{fill:#00B8F0;}
	.st9{fill:#4ACFFF;}
	.st10{fill:#FFFFFF;stroke:#45413C;stroke-linecap:round;stroke-linejoin:round;stroke-miterlimit:10;}
	.st11{fill:#45413C;stroke:#45413C;stroke-linecap:round;stroke-linejoin:round;stroke-miterlimit:10;}
	.st12{fill:#009FD9;}
	.st13{fill:none;stroke:#45413C;stroke-linecap:round;stroke-miterlimit:10;}
	.st14{fill:#FFFFFF;stroke:#45413C;stroke-linejoin:round;stroke-miterlimit:10;}
	.st15{fill:#FF6242;}
	.st16{fill:#FF866E;}
	.st17{fill:#656769;}
	.st18{fill:#87898C;}
	.st19{fill:#4AEFF7;stroke:#45413C;stroke-linecap:round;stroke-linejoin:round;stroke-miterlimit:10;}
	.st20{fill:none;stroke:#48CF3E;stroke-linecap:round;stroke-linejoin:round;stroke-miterlimit:10;}
	.st21{fill:none;stroke:#FF4064;stroke-linecap:round;stroke-linejoin:round;stroke-miterlimit:10;}
	.st22{fill:none;stroke:#FFB700;stroke-linecap:round;stroke-linejoin:round;stroke-miterlimit:10;}
	.st23{fill:none;stroke:#00AED9;stroke-linecap:round;stroke-linejoin:round;stroke-miterlimit:10;}
	.st24{fill:#FFFACF;}
	.st25{fill:#45413C;}
	.st26{fill:#FF866E;stroke:#45413C;stroke-linecap:round;stroke-linejoin:round;stroke-miterlimit:10;}
	.st27{fill:#DABFF5;stroke:#45413C;stroke-linejoin:round;stroke-miterlimit:10;}
	.st28{fill:#EDDBFF;}
	.st29{fill:none;stroke:#45413C;stroke-linejoin:round;stroke-miterlimit:10;}
	.st30{fill:#6DD627;}
	.st31{fill:#46B000;}
	.st32{fill:#C8FFA1;}
	.st33{fill:url(#XMLID_91_);}
	.st34{fill:url(#XMLID_92_);}
	.st35{fill:#F0F0F0;stroke:#45413C;stroke-linecap:round;stroke-linejoin:round;stroke-miterlimit:10;}
	.st36{fill:#EBCB00;stroke:#45413C;stroke-linecap:round;stroke-linejoin:round;stroke-miterlimit:10;}
	.st37{fill:#BDBEC0;stroke:#45413C;stroke-linecap:round;stroke-linejoin:round;stroke-miterlimit:10;}
	.st38{fill:#F0F0F0;}
	.st39{fill:#FFFFFF;}
	.st40{fill:url(#XMLID_93_);}
	.st41{fill:url(#XMLID_94_);}
	.st42{fill:#FFE500;stroke:#45413C;stroke-linecap:round;stroke-linejoin:round;stroke-miterlimit:10;}
	.st43{fill:#E04122;}
	.st44{fill:#8CFFE4;stroke:#45413C;stroke-linecap:round;stroke-linejoin:round;stroke-miterlimit:10;}
	.st45{fill:#E5FFF9;}
	.st46{fill:#E0E0E0;}
	.st47{fill:#9CEB60;}
	.st48{fill:#6DD627;stroke:#45413C;stroke-linecap:round;stroke-linejoin:round;stroke-miterlimit:10;}
	.st49{fill:#E8F4FA;}
	.st50{fill:#F0D5A8;}
	.st51{fill:#DEBB7E;}
	.st52{fill:#B89558;}
	.st53{fill:#00B8F0;stroke:#45413C;stroke-linecap:round;stroke-linejoin:round;stroke-miterlimit:10;}
	.st54{fill:#FFFCE5;}
	.st55{fill:#FF87AF;}
	.st56{fill:#4ACFFF;stroke:#45413C;stroke-linecap:round;stroke-linejoin:round;stroke-miterlimit:10;}
	.st57{fill:#E5F8FF;}
	.st58{fill:none;stroke:#45413C;stroke-miterlimit:10;}
	.st59{fill:none;stroke:#FF6242;stroke-linecap:round;stroke-linejoin:round;stroke-miterlimit:10;}
	.st60{fill:#BDBEC0;}
	.st61{fill:#B89558;stroke:#45413C;stroke-linecap:round;stroke-linejoin:round;stroke-miterlimit:10;}
	.st62{fill:#FF6242;stroke:#45413C;stroke-linecap:round;stroke-linejoin:round;stroke-miterlimit:10;}
	.st63{fill:#525252;stroke:#45413C;stroke-linecap:round;stroke-linejoin:round;stroke-miterlimit:10;}
	.st64{fill:#525252;}
	.st65{fill:#00DBA8;}
	.st66{fill:#00AD85;}
	.st67{fill:#BF8DF2;}
	.st68{fill:#DABFF5;}
	.st69{fill:#00F5BC;}
	.st70{fill:#DAEDF7;}
	.st71{fill:#C0DCEB;}
	.st72{fill:#ADC4D9;}
	.st73{fill:#ADC4D9;stroke:#45413C;stroke-linecap:round;stroke-linejoin:round;stroke-miterlimit:10;}
	.st74{fill:#00DFEB;stroke:#45413C;stroke-linecap:round;stroke-linejoin:round;stroke-miterlimit:10;}
	.st75{fill:#627B8C;stroke:#45413C;stroke-linecap:round;stroke-linejoin:round;stroke-miterlimit:10;}
	.st76{fill:#8CA4B8;}
	.st77{fill:#00DBA8;stroke:#45413C;stroke-linecap:round;stroke-linejoin:round;stroke-miterlimit:10;}
	.st78{fill:#FF8A14;}
	.st79{fill:#BF8256;}
	.st80{fill:#DEA47A;}
	.st81{fill:#915E3A;}
	.st82{fill:#FFA694;}
	.st83{fill:#E5FEFF;stroke:#45413C;stroke-linecap:round;stroke-linejoin:round;stroke-miterlimit:10;}
	.st84{fill:#803EC2;stroke:#45413C;stroke-linecap:round;stroke-linejoin:round;stroke-miterlimit:10;}
	.st85{fill:#9F5AE5;}
	.st86{fill:#803EC2;}
</style>
<g id="XMLID_730_">
	<ellipse id="XMLID_1823_" class="st3" cx="24" cy="45.5" rx="16" ry="1.5"/>
	<circle id="XMLID_1821_" class="st0" cx="24" cy="21.5" r="20"/>
	<path id="XMLID_1818_" class="st1" d="M24,1.5c-11,0-20,9-20,20s9,20,20,20s20-9,20-20S35,1.5,24,1.5z M24,38.5
		c-10.1,0-18.2-8.2-18.2-18.2C5.8,10.2,13.9,2,24,2s18.2,8.2,18.2,18.2C42.2,30.3,34.1,38.5,24,38.5z"/>
	<ellipse id="XMLID_1779_" class="st2" cx="24" cy="5.5" rx="6" ry="1.5"/>
	<circle id="XMLID_1778_" class="st4" cx="24" cy="21.5" r="20"/>
	<ellipse id="XMLID_1777_" class="st5" cx="36" cy="26.5" rx="2.5" ry="1.5"/>
	<ellipse id="XMLID_1776_" class="st5" cx="12" cy="26.5" rx="2.5" ry="1.5"/>
	<path id="XMLID_1767_" class="st1" d="M32.1,21.8l-3,1.6c-0.7,0.4-1.6-0.2-1.5-1.1l0.6-3.4c0.1-0.3-0.1-0.7-0.3-0.9l-2.4-2.4
		c-0.6-0.6-0.3-1.6,0.6-1.7l3.4-0.5c0.3,0,0.6-0.3,0.8-0.5l1.5-3.1c0.4-0.7,1.4-0.7,1.8,0l1.5,3.1c0.1,0.3,0.4,0.5,0.8,0.5l3.4,0.5
		c0.8,0.1,1.1,1.1,0.6,1.7l-2.4,2.4C37,18.3,36.9,18.6,37,19l0.6,3.4c0.1,0.8-0.7,1.4-1.5,1.1l-3-1.6C32.8,21.6,32.4,21.6,32.1,21.8
		z"/>
	<path id="XMLID_1765_" class="st24" d="M33.7,19.4l-3,1.6c-0.7,0.4-1.6-0.2-1.5-1.1l0.6-3.4c0.1-0.3-0.1-0.7-0.3-0.9l-2.4-2.4
		c-0.6-0.6-0.3-1.6,0.6-1.7L31,11c0.3,0,0.6-0.3,0.8-0.5l1.5-3.1c0.4-0.7,1.4-0.7,1.8,0l1.5,3.1c0.1,0.3,0.4,0.5,0.8,0.5l3.4,0.5
		c0.8,0.1,1.1,1.1,0.6,1.7l-2.4,2.4c-0.2,0.2-0.3,0.6-0.3,0.9l0.6,3.4c0.1,0.8-0.7,1.4-1.5,1.1l-3-1.6C34.3,19.2,34,19.2,33.7,19.4z
		"/>
	<g id="XMLID_1763_">
		<path id="XMLID_1764_" class="st2" d="M38.8,18.2l-3.1-1.6c-0.4-0.2-0.9-0.2-1.3,0l-4.3,2.2C29.9,19,29.6,19,29.4,19l-0.2,0.9
			c-0.1,0.8,0.7,1.4,1.5,1.1l3-1.6c0.3-0.2,0.6-0.2,0.9,0l3,1.6c0.7,0.4,1.6-0.2,1.5-1.1L38.8,18.2z"/>
	</g>
	<path id="XMLID_1762_" class="st4" d="M33.7,19.4l-3,1.6c-0.7,0.4-1.6-0.2-1.5-1.1l0.6-3.4c0.1-0.3-0.1-0.7-0.3-0.9l-2.4-2.4
		c-0.6-0.6-0.3-1.6,0.6-1.7L31,11c0.3,0,0.6-0.3,0.8-0.5l1.5-3.1c0.4-0.7,1.4-0.7,1.8,0l1.5,3.1c0.1,0.3,0.4,0.5,0.8,0.5l3.4,0.5
		c0.8,0.1,1.1,1.1,0.6,1.7l-2.4,2.4c-0.2,0.2-0.3,0.6-0.3,0.9l0.6,3.4c0.1,0.8-0.7,1.4-1.5,1.1l-3-1.6C34.3,19.2,34,19.2,33.7,19.4z
		"/>
	<path id="XMLID_25_" class="st1" d="M15.9,21.8l3,1.6c0.7,0.4,1.6-0.2,1.5-1.1L19.8,19c-0.1-0.3,0.1-0.7,0.3-0.9l2.4-2.4
		c0.6-0.6,0.3-1.6-0.6-1.7l-3.4-0.5c-0.3,0-0.6-0.3-0.8-0.5l-1.5-3.1c-0.4-0.7-1.4-0.7-1.8,0L13,12.9c-0.1,0.3-0.4,0.5-0.8,0.5
		L8.9,14c-0.8,0.1-1.1,1.1-0.6,1.7l2.4,2.4c0.2,0.2,0.3,0.6,0.3,0.9l-0.6,3.4c-0.1,0.8,0.7,1.4,1.5,1.1l3-1.6
		C15.2,21.6,15.6,21.6,15.9,21.8z"/>
	<path id="XMLID_24_" class="st24" d="M14.3,19.4l3,1.6c0.7,0.4,1.6-0.2,1.5-1.1l-0.6-3.4c-0.1-0.3,0.1-0.7,0.3-0.9l2.4-2.4
		c0.6-0.6,0.3-1.6-0.6-1.7L17,11c-0.3,0-0.6-0.3-0.8-0.5l-1.5-3.1c-0.4-0.7-1.4-0.7-1.8,0l-1.5,3.1C11.3,10.8,11,11,10.7,11
		l-3.4,0.5c-0.8,0.1-1.1,1.1-0.6,1.7l2.4,2.4c0.2,0.2,0.3,0.6,0.3,0.9l-0.6,3.4c-0.1,0.8,0.7,1.4,1.5,1.1l3-1.6
		C13.7,19.2,14,19.2,14.3,19.4z"/>
	<g id="XMLID_22_">
		<path id="XMLID_23_" class="st2" d="M9.2,18.2l3.1-1.6c0.4-0.2,0.9-0.2,1.3,0l4.3,2.2c0.3,0.1,0.6,0.2,0.8,0.2l0.2,0.9
			c0.1,0.8-0.7,1.4-1.5,1.1l-3-1.6c-0.3-0.2-0.6-0.2-0.9,0l-3,1.6c-0.7,0.4-1.6-0.2-1.5-1.1L9.2,18.2z"/>
	</g>
	<path id="XMLID_21_" class="st4" d="M14.3,19.4l3,1.6c0.7,0.4,1.6-0.2,1.5-1.1l-0.6-3.4c-0.1-0.3,0.1-0.7,0.3-0.9l2.4-2.4
		c0.6-0.6,0.3-1.6-0.6-1.7L17,11c-0.3,0-0.6-0.3-0.8-0.5l-1.5-3.1c-0.4-0.7-1.4-0.7-1.8,0l-1.5,3.1C11.3,10.8,11,11,10.7,11
		l-3.4,0.5c-0.8,0.1-1.1,1.1-0.6,1.7l2.4,2.4c0.2,0.2,0.3,0.6,0.3,0.9l-0.6,3.4c-0.1,0.8,0.7,1.4,1.5,1.1l3-1.6
		C13.7,19.2,14,19.2,14.3,19.4z"/>
	<g>
		<path id="XMLID_20_" class="st10" d="M24,38.5c5.6,0,10.3-4,11-9.2c0-0.3-0.1-0.6-0.3-0.8c-0.2-0.2-0.6-0.3-0.9-0.3
			c-6.5,1-13,1-19.5,0c-0.3-0.1-0.7,0-0.9,0.3C13.1,28.7,13,29,13,29.3C13.7,34.5,18.4,38.5,24,38.5z"/>
		<path id="XMLID_19_" class="st10" d="M34,32.5c0,0-3.9,1.5-10,1.5s-10-1.5-10-1.5"/>
		<line id="XMLID_18_" class="st4" x1="24" y1="29" x2="24" y2="38.5"/>
		<path id="XMLID_17_" class="st4" d="M17.5,28.7c0,0.6,0,5.8,1.1,8.5"/>
		<path id="XMLID_16_" class="st4" d="M30.5,28.7c0,0.6,0,5.8-1.1,8.5"/>
	</g>
</g>
</svg>
