<?xml version="1.0" encoding="utf-8"?>
<!-- Generator: Adobe Illustrator 21.1.0, SVG Export Plug-In . SVG Version: 6.00 Build 0)  -->
<svg version="1.1" id="Icons" xmlns="http://www.w3.org/2000/svg" xmlns:xlink="http://www.w3.org/1999/xlink" x="0px" y="0px"
	 viewBox="0 0 48 48" style="enable-background:new 0 0 48 48;" xml:space="preserve">
<style type="text/css">
	.st0{fill:#FFE500;}
	.st1{fill:#EBCB00;}
	.st2{fill:#FFF48C;}
	.st3{opacity:0.15;fill:#45413C;}
	.st4{fill:none;stroke:#45413C;stroke-linecap:round;stroke-linejoin:round;stroke-miterlimit:10;}
	.st5{fill:#FFAA54;}
	.st6{fill:#FFB0CA;stroke:#45413C;stroke-linecap:round;stroke-linejoin:round;stroke-miterlimit:10;}
	.st7{fill:#FF87AF;stroke:#45413C;stroke-linecap:round;stroke-linejoin:round;stroke-miterlimit:10;}
	.st8{fill:#00B8F0;}
	.st9{fill:#4ACFFF;}
	.st10{fill:#FFFFFF;stroke:#45413C;stroke-linecap:round;stroke-linejoin:round;stroke-miterlimit:10;}
	.st11{fill:#45413C;stroke:#45413C;stroke-linecap:round;stroke-linejoin:round;stroke-miterlimit:10;}
	.st12{fill:#009FD9;}
	.st13{fill:none;stroke:#45413C;stroke-linecap:round;stroke-miterlimit:10;}
	.st14{fill:#FFFFFF;stroke:#45413C;stroke-linejoin:round;stroke-miterlimit:10;}
	.st15{fill:#FF6242;}
	.st16{fill:#FF866E;}
	.st17{fill:#656769;}
	.st18{fill:#87898C;}
	.st19{fill:#4AEFF7;stroke:#45413C;stroke-linecap:round;stroke-linejoin:round;stroke-miterlimit:10;}
	.st20{fill:none;stroke:#48CF3E;stroke-linecap:round;stroke-linejoin:round;stroke-miterlimit:10;}
	.st21{fill:none;stroke:#FF4064;stroke-linecap:round;stroke-linejoin:round;stroke-miterlimit:10;}
	.st22{fill:none;stroke:#FFB700;stroke-linecap:round;stroke-linejoin:round;stroke-miterlimit:10;}
	.st23{fill:none;stroke:#00AED9;stroke-linecap:round;stroke-linejoin:round;stroke-miterlimit:10;}
	.st24{fill:#FFFACF;}
	.st25{fill:#45413C;}
	.st26{fill:#FF866E;stroke:#45413C;stroke-linecap:round;stroke-linejoin:round;stroke-miterlimit:10;}
	.st27{fill:#DABFF5;stroke:#45413C;stroke-linejoin:round;stroke-miterlimit:10;}
	.st28{fill:#EDDBFF;}
	.st29{fill:none;stroke:#45413C;stroke-linejoin:round;stroke-miterlimit:10;}
	.st30{fill:#6DD627;}
	.st31{fill:#46B000;}
	.st32{fill:#C8FFA1;}
	.st33{fill:url(#XMLID_91_);}
	.st34{fill:url(#XMLID_92_);}
	.st35{fill:#F0F0F0;stroke:#45413C;stroke-linecap:round;stroke-linejoin:round;stroke-miterlimit:10;}
	.st36{fill:#EBCB00;stroke:#45413C;stroke-linecap:round;stroke-linejoin:round;stroke-miterlimit:10;}
	.st37{fill:#BDBEC0;stroke:#45413C;stroke-linecap:round;stroke-linejoin:round;stroke-miterlimit:10;}
	.st38{fill:#F0F0F0;}
	.st39{fill:#FFFFFF;}
	.st40{fill:url(#XMLID_93_);}
	.st41{fill:url(#XMLID_94_);}
	.st42{fill:#FFE500;stroke:#45413C;stroke-linecap:round;stroke-linejoin:round;stroke-miterlimit:10;}
	.st43{fill:#E04122;}
	.st44{fill:#8CFFE4;stroke:#45413C;stroke-linecap:round;stroke-linejoin:round;stroke-miterlimit:10;}
	.st45{fill:#E5FFF9;}
	.st46{fill:#E0E0E0;}
	.st47{fill:#9CEB60;}
	.st48{fill:#6DD627;stroke:#45413C;stroke-linecap:round;stroke-linejoin:round;stroke-miterlimit:10;}
	.st49{fill:#E8F4FA;}
	.st50{fill:#F0D5A8;}
	.st51{fill:#DEBB7E;}
	.st52{fill:#B89558;}
	.st53{fill:#00B8F0;stroke:#45413C;stroke-linecap:round;stroke-linejoin:round;stroke-miterlimit:10;}
	.st54{fill:#FFFCE5;}
	.st55{fill:#FF87AF;}
	.st56{fill:#4ACFFF;stroke:#45413C;stroke-linecap:round;stroke-linejoin:round;stroke-miterlimit:10;}
	.st57{fill:#E5F8FF;}
	.st58{fill:none;stroke:#45413C;stroke-miterlimit:10;}
	.st59{fill:none;stroke:#FF6242;stroke-linecap:round;stroke-linejoin:round;stroke-miterlimit:10;}
	.st60{fill:#BDBEC0;}
	.st61{fill:#B89558;stroke:#45413C;stroke-linecap:round;stroke-linejoin:round;stroke-miterlimit:10;}
	.st62{fill:#FF6242;stroke:#45413C;stroke-linecap:round;stroke-linejoin:round;stroke-miterlimit:10;}
	.st63{fill:#525252;stroke:#45413C;stroke-linecap:round;stroke-linejoin:round;stroke-miterlimit:10;}
	.st64{fill:#525252;}
	.st65{fill:#00DBA8;}
	.st66{fill:#00AD85;}
	.st67{fill:#BF8DF2;}
	.st68{fill:#DABFF5;}
	.st69{fill:#00F5BC;}
	.st70{fill:#DAEDF7;}
	.st71{fill:#C0DCEB;}
	.st72{fill:#ADC4D9;}
	.st73{fill:#ADC4D9;stroke:#45413C;stroke-linecap:round;stroke-linejoin:round;stroke-miterlimit:10;}
	.st74{fill:#00DFEB;stroke:#45413C;stroke-linecap:round;stroke-linejoin:round;stroke-miterlimit:10;}
	.st75{fill:#627B8C;stroke:#45413C;stroke-linecap:round;stroke-linejoin:round;stroke-miterlimit:10;}
	.st76{fill:#8CA4B8;}
	.st77{fill:#00DBA8;stroke:#45413C;stroke-linecap:round;stroke-linejoin:round;stroke-miterlimit:10;}
	.st78{fill:#FF8A14;}
	.st79{fill:#BF8256;}
	.st80{fill:#DEA47A;}
	.st81{fill:#915E3A;}
	.st82{fill:#FFA694;}
	.st83{fill:#E5FEFF;stroke:#45413C;stroke-linecap:round;stroke-linejoin:round;stroke-miterlimit:10;}
	.st84{fill:#803EC2;stroke:#45413C;stroke-linecap:round;stroke-linejoin:round;stroke-miterlimit:10;}
	.st85{fill:#9F5AE5;}
	.st86{fill:#803EC2;}
</style>
<g id="XMLID_722_">
	
		<ellipse id="XMLID_1050_" transform="matrix(0.9655 -0.2603 0.2603 0.9655 -4.6396 6.9725)" class="st0" cx="24" cy="21" rx="16.1" ry="16.1"/>
	<path id="XMLID_1047_" class="st1" d="M19.8,5.5C11.3,7.8,6.2,16.6,8.5,25.2s11.1,13.6,19.7,11.3c8.6-2.3,13.6-11.1,11.3-19.7
		S28.4,3.2,19.8,5.5z M27.6,34.2c-7.8,2.1-15.8-2.5-18-10.3C7.5,16,12.1,8,19.9,5.9c7.8-2.1,15.8,2.5,18,10.3
		C40,24,35.4,32.1,27.6,34.2z"/>
	
		<ellipse id="XMLID_1046_" transform="matrix(0.9655 -0.2603 0.2603 0.9655 -1.527 5.6744)" class="st2" cx="20.7" cy="8.6" rx="4.8" ry="1.2"/>
	<ellipse id="XMLID_1045_" class="st3" cx="24" cy="43.5" rx="12.8" ry="1.5"/>
	
		<ellipse id="XMLID_1044_" transform="matrix(0.9655 -0.2603 0.2603 0.9655 -4.6396 6.9725)" class="st4" cx="24" cy="21" rx="16.1" ry="16.1"/>
	
		<ellipse id="XMLID_1043_" transform="matrix(0.9655 -0.2603 0.2603 0.9655 -4.6388 9.7123)" class="st5" cx="34.3" cy="22.4" rx="2" ry="1.2"/>
	
		<ellipse id="XMLID_1042_" transform="matrix(0.9655 -0.2604 0.2604 0.9655 -6.5861 5.0439)" class="st5" cx="15.7" cy="27.4" rx="2" ry="1.2"/>
	<g id="XMLID_1039_">
		<path id="XMLID_1041_" class="st6" d="M21,28.5c-0.2,0.1-0.4,0.2-0.5,0.4c-0.1,0.2-0.1,0.4,0,0.6c1.1,2.5,3.9,3.9,6.7,3.1
			c2.7-0.7,4.5-3.3,4.2-6c0-0.2-0.1-0.4-0.3-0.5c-0.2-0.1-0.4-0.2-0.6-0.1L21,28.5z"/>
		<path id="XMLID_1040_" class="st7" d="M30.9,29.4c-1.2-0.3-2.9-0.3-4.6,0.1c-1.7,0.5-3.1,1.3-4,2.2c1.3,1,3.1,1.4,4.9,0.9
			C28.9,32.2,30.2,31,30.9,29.4z"/>
	</g>
	<g id="XMLID_1026_">
		<g id="XMLID_1035_">
			<path id="XMLID_1038_" class="st8" d="M46.9,23c-2.4,4.2-6.7-1.8-10.1-1.6C40.5,16.7,49.3,18.8,46.9,23z"/>
			<path id="XMLID_1037_" class="st9" d="M36.8,21.4c0.1,0,0.2,0,0.2,0c4.1-2.9,10.7-0.9,8.7,2.8c0.4-0.2,0.8-0.6,1.1-1.2
				C49.3,18.8,40.5,16.7,36.8,21.4z"/>
			<path id="XMLID_1036_" class="st4" d="M46.9,23c-2.4,4.2-6.7-1.8-10.1-1.6C40.5,16.7,49.3,18.8,46.9,23z"/>
		</g>
		<g id="XMLID_1031_">
			<path id="XMLID_1034_" class="st8" d="M40.5,12c1.8,2.6-2.9,3.5-3.7,5.6C35,14.1,38.6,9.4,40.5,12z"/>
			<path id="XMLID_1033_" class="st9" d="M36.8,17.6c0-0.1,0-0.1,0.1-0.1c-0.6-3.2,2.4-6.6,4.1-4.4c0-0.3-0.2-0.6-0.4-1
				C38.6,9.4,35,14.1,36.8,17.6z"/>
			<path id="XMLID_1032_" class="st4" d="M40.5,12c1.8,2.6-2.9,3.5-3.7,5.6C35,14.1,38.6,9.4,40.5,12z"/>
		</g>
		<g id="XMLID_1027_">
			<path id="XMLID_1030_" class="st8" d="M47.2,14.9c-0.3,2.2-3.2,0.4-4.6,1.1C43.3,13.3,47.5,12.7,47.2,14.9z"/>
			<path id="XMLID_1029_" class="st9" d="M42.6,16c0,0,0.1,0,0.1,0c1.2-1.9,4.4-2.3,4.2-0.3c0.1-0.2,0.2-0.4,0.3-0.7
				C47.5,12.7,43.3,13.3,42.6,16z"/>
			<path id="XMLID_1028_" class="st4" d="M47.2,14.9c-0.3,2.2-3.2,0.4-4.6,1.1C43.3,13.3,47.5,12.7,47.2,14.9z"/>
		</g>
	</g>
	<g id="XMLID_1013_">
		<g id="XMLID_1022_">
			<path id="XMLID_1025_" class="st8" d="M5.2,34.2c4.2,2.4,4.9-4.9,7.9-6.4C7.6,25.6,1,31.8,5.2,34.2z"/>
			<path id="XMLID_1024_" class="st9" d="M13.1,27.8c-0.1,0-0.1,0.1-0.2,0.1c-5-0.4-9.7,4.6-6.2,6.8c-0.5,0-1-0.1-1.6-0.5
				C1,31.8,7.6,25.6,13.1,27.8z"/>
			<path id="XMLID_1023_" class="st4" d="M5.2,34.2c4.2,2.4,4.9-4.9,7.9-6.4C7.6,25.6,1,31.8,5.2,34.2z"/>
		</g>
		<g id="XMLID_1018_">
			<path id="XMLID_1021_" class="st8" d="M5.2,21.5c-0.3,3.2,4.3,1.5,6,3C11,20.5,5.5,18.3,5.2,21.5z"/>
			<path id="XMLID_1020_" class="st9" d="M11.2,24.4c0,0-0.1-0.1-0.1-0.1c-1.1-3.1-5.4-4.5-5.7-1.8c-0.1-0.3-0.2-0.6-0.1-1.1
				C5.5,18.3,11,20.5,11.2,24.4z"/>
			<path id="XMLID_1019_" class="st4" d="M5.2,21.5c-0.3,3.2,4.3,1.5,6,3C11,20.5,5.5,18.3,5.2,21.5z"/>
		</g>
		<g id="XMLID_1014_">
			<path id="XMLID_1017_" class="st8" d="M0.9,27.4c1.4,1.8,2.9-1.2,4.5-1.4C3.4,24.1-0.5,25.6,0.9,27.4z"/>
			<path id="XMLID_1016_" class="st9" d="M5.4,26c0,0-0.1,0-0.1,0c-2.1-1-5,0.3-3.8,1.8c-0.2-0.1-0.4-0.2-0.6-0.5
				C-0.5,25.6,3.4,24.1,5.4,26z"/>
			<path id="XMLID_1015_" class="st4" d="M0.9,27.4c1.4,1.8,2.9-1.2,4.5-1.4C3.4,24.1-0.5,25.6,0.9,27.4z"/>
		</g>
	</g>
	<path id="XMLID_1012_" class="st4" d="M32.8,15.7l-2.2,1.9c-0.5,0.4-0.3,1.3,0.4,1.4l2.8,0.6"/>
	<path id="XMLID_1011_" class="st4" d="M13.8,20.9l2.8,0.6c0.6,0.1,0.9,0.9,0.4,1.4l-2.2,1.9"/>
</g>
</svg>
