<?xml version="1.0" encoding="utf-8"?>
<!-- Generator: Adobe Illustrator 21.1.0, SVG Export Plug-In . SVG Version: 6.00 Build 0)  -->
<svg version="1.1" id="Icons" xmlns="http://www.w3.org/2000/svg" xmlns:xlink="http://www.w3.org/1999/xlink" x="0px" y="0px"
	 viewBox="0 0 48 48" style="enable-background:new 0 0 48 48;" xml:space="preserve">
<style type="text/css">
	.st0{fill:#FFE500;}
	.st1{fill:#EBCB00;}
	.st2{fill:#FFF48C;}
	.st3{opacity:0.15;fill:#45413C;}
	.st4{fill:none;stroke:#45413C;stroke-linecap:round;stroke-linejoin:round;stroke-miterlimit:10;}
	.st5{fill:#FFAA54;}
	.st6{fill:#FFB0CA;stroke:#45413C;stroke-linecap:round;stroke-linejoin:round;stroke-miterlimit:10;}
	.st7{fill:#FF87AF;stroke:#45413C;stroke-linecap:round;stroke-linejoin:round;stroke-miterlimit:10;}
	.st8{fill:#00B8F0;}
	.st9{fill:#4ACFFF;}
	.st10{fill:#FFFFFF;stroke:#45413C;stroke-linecap:round;stroke-linejoin:round;stroke-miterlimit:10;}
	.st11{fill:#45413C;stroke:#45413C;stroke-linecap:round;stroke-linejoin:round;stroke-miterlimit:10;}
	.st12{fill:#009FD9;}
	.st13{fill:none;stroke:#45413C;stroke-linecap:round;stroke-miterlimit:10;}
	.st14{fill:#FFFFFF;stroke:#45413C;stroke-linejoin:round;stroke-miterlimit:10;}
	.st15{fill:#FF6242;}
	.st16{fill:#FF866E;}
	.st17{fill:#656769;}
	.st18{fill:#87898C;}
	.st19{fill:#4AEFF7;stroke:#45413C;stroke-linecap:round;stroke-linejoin:round;stroke-miterlimit:10;}
	.st20{fill:none;stroke:#48CF3E;stroke-linecap:round;stroke-linejoin:round;stroke-miterlimit:10;}
	.st21{fill:none;stroke:#FF4064;stroke-linecap:round;stroke-linejoin:round;stroke-miterlimit:10;}
	.st22{fill:none;stroke:#FFB700;stroke-linecap:round;stroke-linejoin:round;stroke-miterlimit:10;}
	.st23{fill:none;stroke:#00AED9;stroke-linecap:round;stroke-linejoin:round;stroke-miterlimit:10;}
	.st24{fill:#FFFACF;}
	.st25{fill:#45413C;}
	.st26{fill:#FF866E;stroke:#45413C;stroke-linecap:round;stroke-linejoin:round;stroke-miterlimit:10;}
	.st27{fill:#DABFF5;stroke:#45413C;stroke-linejoin:round;stroke-miterlimit:10;}
	.st28{fill:#EDDBFF;}
	.st29{fill:none;stroke:#45413C;stroke-linejoin:round;stroke-miterlimit:10;}
	.st30{fill:#6DD627;}
	.st31{fill:#46B000;}
	.st32{fill:#C8FFA1;}
	.st33{fill:url(#XMLID_91_);}
	.st34{fill:url(#XMLID_92_);}
	.st35{fill:#F0F0F0;stroke:#45413C;stroke-linecap:round;stroke-linejoin:round;stroke-miterlimit:10;}
	.st36{fill:#EBCB00;stroke:#45413C;stroke-linecap:round;stroke-linejoin:round;stroke-miterlimit:10;}
	.st37{fill:#BDBEC0;stroke:#45413C;stroke-linecap:round;stroke-linejoin:round;stroke-miterlimit:10;}
	.st38{fill:#F0F0F0;}
	.st39{fill:#FFFFFF;}
	.st40{fill:url(#XMLID_93_);}
	.st41{fill:url(#XMLID_94_);}
	.st42{fill:#FFE500;stroke:#45413C;stroke-linecap:round;stroke-linejoin:round;stroke-miterlimit:10;}
	.st43{fill:#E04122;}
	.st44{fill:#8CFFE4;stroke:#45413C;stroke-linecap:round;stroke-linejoin:round;stroke-miterlimit:10;}
	.st45{fill:#E5FFF9;}
	.st46{fill:#E0E0E0;}
	.st47{fill:#9CEB60;}
	.st48{fill:#6DD627;stroke:#45413C;stroke-linecap:round;stroke-linejoin:round;stroke-miterlimit:10;}
	.st49{fill:#E8F4FA;}
	.st50{fill:#F0D5A8;}
	.st51{fill:#DEBB7E;}
	.st52{fill:#B89558;}
	.st53{fill:#00B8F0;stroke:#45413C;stroke-linecap:round;stroke-linejoin:round;stroke-miterlimit:10;}
	.st54{fill:#FFFCE5;}
	.st55{fill:#FF87AF;}
	.st56{fill:#4ACFFF;stroke:#45413C;stroke-linecap:round;stroke-linejoin:round;stroke-miterlimit:10;}
	.st57{fill:#E5F8FF;}
	.st58{fill:none;stroke:#45413C;stroke-miterlimit:10;}
	.st59{fill:none;stroke:#FF6242;stroke-linecap:round;stroke-linejoin:round;stroke-miterlimit:10;}
	.st60{fill:#BDBEC0;}
	.st61{fill:#B89558;stroke:#45413C;stroke-linecap:round;stroke-linejoin:round;stroke-miterlimit:10;}
	.st62{fill:#FF6242;stroke:#45413C;stroke-linecap:round;stroke-linejoin:round;stroke-miterlimit:10;}
	.st63{fill:#525252;stroke:#45413C;stroke-linecap:round;stroke-linejoin:round;stroke-miterlimit:10;}
	.st64{fill:#525252;}
	.st65{fill:#00DBA8;}
	.st66{fill:#00AD85;}
	.st67{fill:#BF8DF2;}
	.st68{fill:#DABFF5;}
	.st69{fill:#00F5BC;}
	.st70{fill:#DAEDF7;}
	.st71{fill:#C0DCEB;}
	.st72{fill:#ADC4D9;}
	.st73{fill:#ADC4D9;stroke:#45413C;stroke-linecap:round;stroke-linejoin:round;stroke-miterlimit:10;}
	.st74{fill:#00DFEB;stroke:#45413C;stroke-linecap:round;stroke-linejoin:round;stroke-miterlimit:10;}
	.st75{fill:#627B8C;stroke:#45413C;stroke-linecap:round;stroke-linejoin:round;stroke-miterlimit:10;}
	.st76{fill:#8CA4B8;}
	.st77{fill:#00DBA8;stroke:#45413C;stroke-linecap:round;stroke-linejoin:round;stroke-miterlimit:10;}
	.st78{fill:#FF8A14;}
	.st79{fill:#BF8256;}
	.st80{fill:#DEA47A;}
	.st81{fill:#915E3A;}
	.st82{fill:#FFA694;}
	.st83{fill:#E5FEFF;stroke:#45413C;stroke-linecap:round;stroke-linejoin:round;stroke-miterlimit:10;}
	.st84{fill:#803EC2;stroke:#45413C;stroke-linecap:round;stroke-linejoin:round;stroke-miterlimit:10;}
	.st85{fill:#9F5AE5;}
	.st86{fill:#803EC2;}
</style>
<g id="XMLID_430_">
	<circle id="XMLID_6991_" class="st0" cx="24" cy="21.5" r="20"/>
	<path id="XMLID_6988_" class="st1" d="M24,1.5c-11,0-20,9-20,20s9,20,20,20s20-9,20-20S35,1.5,24,1.5z M24,38.5
		c-10.1,0-18.2-8.2-18.2-18.2C5.8,10.2,13.9,2,24,2s18.2,8.2,18.2,18.2C42.2,30.3,34.1,38.5,24,38.5z"/>
	<ellipse id="XMLID_6987_" class="st2" cx="24" cy="5.5" rx="6" ry="1.5"/>
	<circle id="XMLID_6986_" class="st4" cx="24" cy="21.5" r="20"/>
	<ellipse id="XMLID_6985_" class="st5" cx="13.1" cy="23.2" rx="2.5" ry="1.5"/>
	<ellipse id="XMLID_6984_" class="st5" cx="34.9" cy="23.2" rx="2.5" ry="1.5"/>
	<path id="XMLID_6983_" class="st6" d="M15.7,28c-0.3,0-0.6,0.1-0.7,0.3c-0.2,0.2-0.3,0.5-0.2,0.8c0.6,4.6,4.5,8.2,9.3,8.2
		c4.8,0,8.7-3.6,9.3-8.2c0-0.3-0.1-0.6-0.2-0.8c-0.2-0.2-0.5-0.3-0.7-0.3H15.7z"/>
	<path id="XMLID_6982_" class="st7" d="M31.4,33.7C29.5,32.7,26.9,32,24,32s-5.5,0.7-7.4,1.7c1.7,2.2,4.4,3.6,7.4,3.6
		C27,37.3,29.6,35.9,31.4,33.7z"/>
	<path id="XMLID_6981_" class="st19" d="M31.5,32.2c0.2-0.4,0.8-0.3,0.8,0.2v9.2c0,0.9-0.7,1.6-1.6,1.6c-0.9,0-1.6-0.7-1.6-1.6v-4.9
		c0-0.9,0.4-1.9,1-2.5C30.6,33.7,31.1,33.1,31.5,32.2z"/>
	<ellipse id="XMLID_6979_" class="st3" cx="24" cy="45.5" rx="16" ry="1.5"/>
	<g id="XMLID_6975_">
		<path id="XMLID_83_" class="st15" d="M37.7,15.8c-0.5,1.1-1.4,2-2.5,2.4l-6,2l-2.5-5.8c-0.4-1.1-0.4-2.3,0.1-3.4
			c0.4-1,1.3-1.7,2.3-2c1.4-0.3,2.7,0.5,3.2,1.9l0.5,1.5l1.4-0.7c1.3-0.6,2.8-0.1,3.5,1.1C38.1,13.7,38.1,14.8,37.7,15.8z"/>
		<path id="XMLID_6977_" class="st16" d="M27.8,11.7c1.4-0.3,2.7,0.5,3.2,1.9l0.5,1.5l1.4-0.7c1.3-0.6,2.8-0.1,3.5,1.1
			c0.3,0.5,0.4,1,0.4,1.6c0.4-0.4,0.7-0.8,0.9-1.3c0.4-1,0.4-2.1-0.1-3c-0.7-1.3-2.2-1.7-3.5-1.1l-1.4,0.7l-0.5-1.5
			C31.8,9.4,30.4,8.6,29,9c-1,0.2-1.8,1-2.3,2c-0.2,0.5-0.4,1.1-0.4,1.6C26.8,12.1,27.3,11.8,27.8,11.7z"/>
		<path id="XMLID_81_" class="st4" d="M37.7,15.8c-0.5,1.1-1.4,2-2.5,2.4l-6,2l-2.5-5.8c-0.4-1.1-0.4-2.3,0.1-3.4
			c0.4-1,1.3-1.7,2.3-2c1.4-0.3,2.7,0.5,3.2,1.9l0.5,1.5l1.4-0.7c1.3-0.6,2.8-0.1,3.5,1.1C38.1,13.7,38.1,14.8,37.7,15.8z"/>
	</g>
	<g id="XMLID_6971_">
		<path id="XMLID_82_" class="st15" d="M6.3,8c1.2-1.8,3.5-2.4,5.5-1.3l2.1,1.2l0.9-2.2c0.9-2.1,3-3.1,5.1-2.5
			c1.5,0.5,2.7,1.7,3.3,3.3c0.6,1.8,0.5,3.7-0.3,5.3l-4.5,8.6l-8.9-3.8c-1.6-0.7-2.9-2.1-3.6-3.9C5.3,11,5.4,9.3,6.3,8z"/>
		<path id="XMLID_6973_" class="st16" d="M7.9,12.4c1.2-1.8,3.5-2.4,5.5-1.3l2.1,1.2l0.9-2.2c0.9-2.1,3-3.1,5.1-2.5
			c0.8,0.2,1.5,0.7,2.1,1.3c0-0.8-0.1-1.7-0.4-2.5c-0.6-1.6-1.8-2.8-3.3-3.3c-2.1-0.7-4.2,0.4-5.1,2.5l-0.9,2.2l-2.1-1.2
			C9.8,5.7,7.5,6.2,6.3,8c-0.9,1.3-1,3-0.5,4.6c0.3,0.8,0.7,1.5,1.3,2.2C7.2,13.9,7.4,13.1,7.9,12.4z"/>
		<path id="XMLID_84_" class="st4" d="M6.3,8c1.2-1.8,3.5-2.4,5.5-1.3l2.1,1.2l0.9-2.2c0.9-2.1,3-3.1,5.1-2.5
			c1.5,0.5,2.7,1.7,3.3,3.3c0.6,1.8,0.5,3.7-0.3,5.3l-4.5,8.6l-8.9-3.8c-1.6-0.7-2.9-2.1-3.6-3.9C5.3,11,5.4,9.3,6.3,8z"/>
	</g>
</g>
</svg>
