<?xml version="1.0" encoding="UTF-8" standalone="no"?>
<!-- Created with Inkscape (http://www.inkscape.org/) -->

<svg
   width="64"
   height="64"
   viewBox="0 0 16.933333 16.933333"
   version="1.1"
   id="svg1"
   inkscape:export-filename="filematch16.png"
   inkscape:export-xdpi="24"
   inkscape:export-ydpi="24"
   inkscape:version="1.3 (0e150ed6c4, 2023-07-21)"
   sodipodi:docname="screenthottool.svg"
   xmlns:inkscape="http://www.inkscape.org/namespaces/inkscape"
   xmlns:sodipodi="http://sodipodi.sourceforge.net/DTD/sodipodi-0.dtd"
   xmlns="http://www.w3.org/2000/svg"
   xmlns:svg="http://www.w3.org/2000/svg">
  <sodipodi:namedview
     id="namedview1"
     pagecolor="#ffffff"
     bordercolor="#000000"
     borderopacity="0.25"
     inkscape:showpageshadow="2"
     inkscape:pageopacity="0.0"
     inkscape:pagecheckerboard="0"
     inkscape:deskcolor="#d1d1d1"
     inkscape:document-units="mm"
     inkscape:zoom="11.822492"
     inkscape:cx="29.773757"
     inkscape:cy="33.368599"
     inkscape:window-width="2560"
     inkscape:window-height="1369"
     inkscape:window-x="1912"
     inkscape:window-y="-8"
     inkscape:window-maximized="1"
     inkscape:current-layer="g12" />
  <defs
     id="defs1" />
  <g
     inkscape:label="Lag 1"
     inkscape:groupmode="layer"
     id="layer1">
    <g
       id="g12"
       transform="matrix(1.0444566,0.20475658,-0.20475658,1.0444566,1.0756686,-2.4180416)">
      <rect
         style="fill:#000000;fill-opacity:0.390042;stroke-width:0.278802"
         id="rect12"
         width="10.176991"
         height="6.9809108"
         x="-0.37984076"
         y="3.218082"
         transform="rotate(-11.091672)" />
      <rect
         style="fill:#ffffff;fill-opacity:0.390042;stroke-width:0.261069"
         id="rect13"
         width="9.0178795"
         height="0.93558598"
         x="0.17653224"
         y="3.7613211"
         transform="rotate(-11.091672)" />
      <g
         id="g15"
         transform="matrix(1.0457235,-0.00139299,-0.00139299,1.038891,0.12293779,1.028967)">
        <path
           style="fill:#000000;fill-opacity:1;stroke-width:0.24859"
           d="M 14.093733,3.2590514 2.9602031,6.3630473 5.0653431,15.571113 16.625733,11.91204 Z"
           id="path13"
           sodipodi:nodetypes="ccccc" />
        <path
           style="fill:#00d0cd;fill-opacity:1;stroke-width:0.24859"
           d="M 3.5116441,6.6620567 13.737275,3.7360464 15.952121,11.208439 5.319856,14.792697 Z"
           id="path14" />
        <path
           style="opacity:0.76;fill:#000000;fill-opacity:1;stroke-width:0.24859"
           d="M 5.3060869,15.159657 16.17787,11.485589 15.757176,9.3396457 15.007076,9.2295714 14.27197,8.4308907 13.095051,7.7831051 12.553703,8.0820754 12.351777,9.1287341 10.544069,9.5259736 9.1818901,7.7145898 9.2426064,6.931312 9.7252802,6.8795422 10.131466,7.4212983 10.915191,6.2820101 11.500297,4.2388678 5.3614371,6.0422958 6.5642221,7.4778127 7.8398978,7.0991653 8.3156678,7.7772697 8.5891418,8.5164595 9.1539044,9.6485136 8.9750628,10.047834 7.6289862,10.504565 7.0237332,10.258959 6.408756,10.400946 5.7217835,9.9570893 4.2090397,9.7822536 Z"
           id="path15"
           sodipodi:nodetypes="cccccccccccccccccccccccccccc" />
      </g>
      <path
         style="opacity:0.76;fill:#000000;fill-opacity:1;stroke-width:0.24859"
         d="M 10.508345,1.5835291 14.48615,4.1677672 13.503805,4.4032015 10.593701,1.9096291 Z"
         id="path16" />
      <path
         style="opacity:0.76;fill:#000000;fill-opacity:1;stroke-width:0.24859"
         d="M 1.8025356,10.404019 5.0151288,16.845155 4.777283,15.413314 2.000786,10.322299 Z"
         id="path17" />
      <path
         style="opacity:0.76;fill:#000000;fill-opacity:1;stroke-width:0.24859"
         d="M 0.46359773,3.5741412 3.0774727,8.0542244 2.9646175,7.3692548 3.4270657,7.2143145 0.60076281,3.2901262 0.35315397,3.3386677 Z"
         id="path18" />
    </g>
  </g>
</svg>
