<?xml version="1.0" encoding="UTF-8" standalone="no"?>
<!-- Created with Inkscape (http://www.inkscape.org/) -->

<svg
   width="64"
   height="64"
   viewBox="0 0 16.933333 16.933333"
   version="1.1"
   id="svg1"
   inkscape:export-filename="sst16.png"
   inkscape:export-xdpi="24"
   inkscape:export-ydpi="24"
   inkscape:version="1.3 (0e150ed6c4, 2023-07-21)"
   sodipodi:docname="screenthottool.svg"
   xmlns:inkscape="http://www.inkscape.org/namespaces/inkscape"
   xmlns:sodipodi="http://sodipodi.sourceforge.net/DTD/sodipodi-0.dtd"
   xmlns="http://www.w3.org/2000/svg"
   xmlns:svg="http://www.w3.org/2000/svg">
  <sodipodi:namedview
     id="namedview1"
     pagecolor="#ffffff"
     bordercolor="#000000"
     borderopacity="0.25"
     inkscape:showpageshadow="2"
     inkscape:pageopacity="0.0"
     inkscape:pagecheckerboard="0"
     inkscape:deskcolor="#d1d1d1"
     inkscape:document-units="mm"
     inkscape:zoom="11.822492"
     inkscape:cx="29.773757"
     inkscape:cy="33.368599"
     inkscape:window-width="2560"
     inkscape:window-height="1369"
     inkscape:window-x="1912"
     inkscape:window-y="-8"
     inkscape:window-maximized="1"
     inkscape:current-layer="g12" />
  <defs
     id="defs1" />
  <g
     inkscape:label="Lag 1"
     inkscape:groupmode="layer"
     id="layer1">
    <g
       id="g12"
       transform="matrix(1.0444566,0.20475658,-0.20475658,1.0444566,1.0756686,-2.4180416)">
      <rect
         style="fill:#676767;fill-opacity:1;stroke-width:0.278802"
         id="rect12"
         width="10.176991"
         height="6.9809108"
         x="-0.37984076"
         y="3.218082"
         transform="rotate(-11.091672)" />
      <rect
         style="fill:#ffffff;fill-opacity:1;stroke-width:0.261069"
         id="rect13"
         width="9.0178795"
         height="0.93558598"
         x="0.17653224"
         y="3.7613211"
         transform="rotate(-11.091672)" />
      <g
         id="g15"
         transform="matrix(1.0457235,-0.00139299,-0.00139299,1.038891,0.12293779,1.028967)">
        <path
           style="fill:#000000;fill-opacity:1;stroke-width:0.24859"
           d="M 14.093733,3.2590514 2.9602031,6.3630473 5.0653431,15.571113 16.625733,11.91204 Z"
           id="path13"
           sodipodi:nodetypes="ccccc" />
        <path
           style="fill:#00d0cd;fill-opacity:1;stroke-width:0.231796"
           d="M 3.9239756,6.8844802 13.526302,4.1487528 15.586662,11.06713 5.6011862,14.413747 Z"
           id="path14" />
        <path
           style="opacity:0.76;fill:#000000;fill-opacity:1;stroke-width:0.231796"
           d="M 5.5873841,14.753795 15.797829,11.323386 15.408225,9.3360292 14.704628,9.2358401 14.016755,8.4975725 12.913941,7.9001816 12.405245,8.1784996 12.213251,9.148788 10.51602,9.5212024 9.2421626,7.8461007 9.3010184,7.1201927 9.7540633,7.0710644 10.133909,7.5720636 10.872061,6.5145494 11.426009,4.6200278 5.6612315,6.3057829 6.7864239,7.6330004 7.9843733,7.2790913 8.4291861,7.9062597 8.6840261,8.590514 9.2112548,9.6380849 9.0424779,10.008513 7.7782797,10.434941 7.2109264,10.208825 6.6335169,10.341863 5.9899578,9.9322495 4.5708839,9.7738871 Z"
           id="path15"
           sodipodi:nodetypes="cccccccccccccccccccccccccccc" />
      </g>
      <path
         style="opacity:0.76;fill:#000000;fill-opacity:1;stroke-width:0.24859"
         d="M 10.508345,1.5835291 14.48615,4.1677672 13.045402,4.5787758 10.690784,2.4048468 Z"
         id="path16"
         sodipodi:nodetypes="ccccc" />
      <path
         style="opacity:0.76;fill:#000000;fill-opacity:1;stroke-width:0.24859"
         d="M 1.7244529,10.333618 5.0151288,16.845155 4.5984805,14.719846 2.3022068,10.220354 Z"
         id="path17"
         sodipodi:nodetypes="ccccc" />
      <path
         style="opacity:0.76;fill:#000000;fill-opacity:1;stroke-width:0.24859"
         d="M 0.4789614,3.8711085 3.1741474,8.6566576 2.9646175,7.3692548 3.947371,7.0266049 0.87305086,3.2581736 0.35315397,3.3386677 Z"
         id="path18"
         sodipodi:nodetypes="ccccccc" />
    </g>
  </g>
</svg>
